<ttFont>
    <TTGlyph name=".notdef" xMin="90" yMin="-500" xMax="510" yMax="1050">
      <contour>
        <pt x="510" y="-500" on="1"/>
        <pt x="90" y="-500" on="1"/>
        <pt x="90" y="1050" on="1"/>
        <pt x="510" y="1050" on="1"/>
      </contour>
      <contour>
        <pt x="145" y="998" on="1"/>
        <pt x="145" y="-448" on="1"/>
        <pt x="456" y="-448" on="1"/>
        <pt x="456" y="998" on="1"/>
      </contour>
      <contour>
        <pt x="307" y="162" on="0"/>
        <pt x="292" y="149" on="0"/>
        <pt x="282" y="149" on="1"/>
        <pt x="272" y="149" on="0"/>
        <pt x="257" y="162" on="0"/>
        <pt x="257" y="173" on="1"/>
        <pt x="257" y="257" on="1"/>
        <pt x="310" y="260" on="0"/>
        <pt x="348" y="293" on="0"/>
        <pt x="348" y="334" on="1"/>
        <pt x="348" y="367" on="0"/>
        <pt x="322" y="403" on="0"/>
        <pt x="287" y="403" on="1"/>
        <pt x="258" y="403" on="0"/>
        <pt x="235" y="392" on="1"/>
        <pt x="228" y="389" on="0"/>
        <pt x="222" y="389" on="1"/>
        <pt x="211" y="389" on="0"/>
        <pt x="198" y="402" on="0"/>
        <pt x="198" y="412" on="1"/>
        <pt x="198" y="431" on="0"/>
        <pt x="257" y="451" on="0"/>
        <pt x="291" y="451" on="1"/>
        <pt x="351" y="451" on="0"/>
        <pt x="402" y="387" on="0"/>
        <pt x="402" y="336" on="1"/>
        <pt x="402" y="283" on="0"/>
        <pt x="357" y="225" on="0"/>
        <pt x="307" y="218" on="1"/>
        <pt x="307" y="173" on="1"/>
      </contour>
      <contour>
        <pt x="247" y="100" on="0"/>
        <pt x="267" y="120" on="0"/>
        <pt x="282" y="120" on="1"/>
        <pt x="297" y="120" on="0"/>
        <pt x="317" y="100" on="0"/>
        <pt x="317" y="85" on="1"/>
        <pt x="317" y="69" on="0"/>
        <pt x="297" y="48" on="0"/>
        <pt x="282" y="48" on="1"/>
        <pt x="267" y="48" on="0"/>
        <pt x="247" y="69" on="0"/>
        <pt x="247" y="85" on="1"/>
      </contour>
    </TTGlyph>
    <TTGlyph name="A" xMin="-11" yMin="0" xMax="612" yMax="693">
      <contour>
        <pt x="160" y="0" on="1"/>
        <pt x="-11" y="0" on="1"/>
        <pt x="201" y="693" on="1"/>
        <pt x="400" y="693" on="1"/>
        <pt x="612" y="0" on="1"/>
        <pt x="437" y="0" on="1"/>
        <pt x="400" y="150" on="1"/>
        <pt x="197" y="150" on="1"/>
      </contour>
      <contour>
        <pt x="298" y="575" on="1"/>
        <pt x="223" y="268" on="1"/>
        <pt x="373" y="268" on="1"/>
      </contour>
    </TTGlyph>
    <TTGlyph name="AE" xMin="-12" yMin="0" xMax="603" yMax="693">
      <contour>
        <pt x="145" y="0" on="1"/>
        <pt x="-12" y="0" on="1"/>
        <pt x="163" y="693" on="1"/>
        <pt x="565" y="693" on="1"/>
        <pt x="548" y="582" on="1"/>
        <pt x="366" y="582" on="1"/>
        <pt x="399" y="406" on="1"/>
        <pt x="556" y="406" on="1"/>
        <pt x="556" y="296" on="1"/>
        <pt x="419" y="296" on="1"/>
        <pt x="454" y="111" on="1"/>
        <pt x="603" y="111" on="1"/>
        <pt x="603" y="0" on="1"/>
        <pt x="338" y="0" on="1"/>
        <pt x="314" y="153" on="1"/>
        <pt x="173" y="153" on="1"/>
      </contour>
      <contour>
        <pt x="245" y="583" on="1"/>
        <pt x="191" y="265" on="1"/>
        <pt x="297" y="265" on="1"/>
      </contour>
    </TTGlyph>
    <TTGlyph name="AEacute" xMin="-12" yMin="0" xMax="603" yMax="953">
      <component glyphName="AE" x="0" y="0" flags="0x0"/>
      <component glyphName="acute.case" x="46" y="0" flags="0x0"/>
    </TTGlyph>
    <TTGlyph name="Aacute" xMin="-11" yMin="0" xMax="612" yMax="953">
      <component glyphName="A" x="0" y="0" flags="0x0"/>
      <component glyphName="acute.case" x="-4" y="0" flags="0x0"/>
    </TTGlyph>
    <TTGlyph name="Abreve" xMin="-11" yMin="0" xMax="612" yMax="921">
      <component glyphName="A" x="0" y="0" flags="0x0"/>
      <component glyphName="breve.case" x="1" y="0" flags="0x0"/>
    </TTGlyph>
    <TTGlyph name="Acircumflex" xMin="-11" yMin="0" xMax="612" yMax="943">
      <component glyphName="A" x="0" y="0" flags="0x0"/>
      <component glyphName="circumflex.case" x="1" y="0" flags="0x0"/>
    </TTGlyph>
    <TTGlyph name="Adieresis" xMin="-11" yMin="0" xMax="612" yMax="922">
      <component glyphName="A" x="0" y="0" flags="0x0"/>
      <component glyphName="dieresis.case" x="-4" y="0" flags="0x0"/>
    </TTGlyph>
    <TTGlyph name="Agrave" xMin="-11" yMin="0" xMax="612" yMax="953">
      <component glyphName="A" x="0" y="0" flags="0x0"/>
      <component glyphName="grave.case" x="-4" y="0" flags="0x0"/>
    </TTGlyph>
    <TTGlyph name="Alpha" xMin="-11" yMin="0" xMax="612" yMax="693">
      <contour>
        <pt x="160" y="0" on="1"/>
        <pt x="-11" y="0" on="1"/>
        <pt x="201" y="693" on="1"/>
        <pt x="400" y="693" on="1"/>
        <pt x="612" y="0" on="1"/>
        <pt x="437" y="0" on="1"/>
        <pt x="400" y="150" on="1"/>
        <pt x="197" y="150" on="1"/>
      </contour>
      <contour>
        <pt x="298" y="575" on="1"/>
        <pt x="223" y="268" on="1"/>
        <pt x="373" y="268" on="1"/>
      </contour>
    </TTGlyph>
    <TTGlyph name="Alphatonos" xMin="-46" yMin="0" xMax="612" yMax="720">
      <component glyphName="A" x="0" y="0" flags="0x0"/>
      <component glyphName="tonos.case" x="-237" y="0" flags="0x0"/>
    </TTGlyph>
    <TTGlyph name="Amacron" xMin="-11" yMin="0" xMax="612" yMax="892">
      <component glyphName="A" x="0" y="0" flags="0x0"/>
      <component glyphName="macron.case" x="-4" y="0" flags="0x0"/>
    </TTGlyph>
    <TTGlyph name="Aogonek" xMin="-11" yMin="-253" xMax="612" yMax="693">
      <contour>
        <pt x="468" y="-22" on="0"/>
        <pt x="418" y="-76" on="0"/>
        <pt x="418" y="-110" on="1"/>
        <pt x="418" y="-134" on="0"/>
        <pt x="449" y="-159" on="0"/>
        <pt x="476" y="-159" on="1"/>
        <pt x="500" y="-159" on="0"/>
        <pt x="530" y="-152" on="1"/>
        <pt x="518" y="-245" on="1"/>
        <pt x="489" y="-253" on="0"/>
        <pt x="459" y="-253" on="1"/>
        <pt x="393" y="-253" on="0"/>
        <pt x="308" y="-188" on="0"/>
        <pt x="308" y="-130" on="1"/>
        <pt x="308" y="-75" on="0"/>
        <pt x="372" y="-3" on="0"/>
        <pt x="432" y="22" on="1"/>
        <pt x="400" y="150" on="1"/>
        <pt x="197" y="150" on="1"/>
        <pt x="160" y="0" on="1"/>
        <pt x="-11" y="0" on="1"/>
        <pt x="201" y="693" on="1"/>
        <pt x="400" y="693" on="1"/>
        <pt x="612" y="0" on="1"/>
        <pt x="533" y="0" on="1"/>
      </contour>
      <contour>
        <pt x="298" y="575" on="1"/>
        <pt x="223" y="268" on="1"/>
        <pt x="373" y="268" on="1"/>
      </contour>
    </TTGlyph>
    <TTGlyph name="Aring" xMin="-11" yMin="0" xMax="612" yMax="990">
      <component glyphName="A" x="0" y="0" flags="0x0"/>
      <component glyphName="ring.case" x="-4" y="0" flags="0x0"/>
    </TTGlyph>
    <TTGlyph name="Atilde" xMin="-11" yMin="0" xMax="612" yMax="914">
      <component glyphName="A" x="0" y="0" flags="0x0"/>
      <component glyphName="tilde.case" x="-4" y="0" flags="0x0"/>
    </TTGlyph>
    <TTGlyph name="B" xMin="56" yMin="0" xMax="571" yMax="693">
      <contour>
        <pt x="571" y="92" on="0"/>
        <pt x="414" y="0" on="0"/>
        <pt x="286" y="0" on="1"/>
        <pt x="56" y="0" on="1"/>
        <pt x="56" y="693" on="1"/>
        <pt x="276" y="693" on="1"/>
        <pt x="395" y="693" on="0"/>
        <pt x="541" y="610" on="0"/>
        <pt x="541" y="516" on="1"/>
        <pt x="541" y="457" on="0"/>
        <pt x="469" y="381" on="0"/>
        <pt x="414" y="367" on="1"/>
        <pt x="480" y="356" on="0"/>
        <pt x="571" y="279" on="0"/>
        <pt x="571" y="203" on="1"/>
      </contour>
      <contour>
        <pt x="376" y="540" on="0"/>
        <pt x="325" y="577" on="0"/>
        <pt x="270" y="577" on="1"/>
        <pt x="220" y="577" on="1"/>
        <pt x="220" y="416" on="1"/>
        <pt x="276" y="416" on="1"/>
        <pt x="328" y="416" on="0"/>
        <pt x="376" y="455" on="0"/>
        <pt x="376" y="499" on="1"/>
      </contour>
      <contour>
        <pt x="402" y="262" on="0"/>
        <pt x="343" y="307" on="0"/>
        <pt x="287" y="307" on="1"/>
        <pt x="220" y="307" on="1"/>
        <pt x="220" y="120" on="1"/>
        <pt x="281" y="120" on="1"/>
        <pt x="337" y="120" on="0"/>
        <pt x="402" y="158" on="0"/>
        <pt x="402" y="210" on="1"/>
      </contour>
    </TTGlyph>
    <TTGlyph name="Beta" xMin="56" yMin="0" xMax="571" yMax="693">
      <component glyphName="B" x="0" y="0" flags="0x0"/>
    </TTGlyph>
    <TTGlyph name="C" xMin="34" yMin="-17" xMax="589" yMax="711">
      <contour>
        <pt x="430" y="711" on="0"/>
        <pt x="534" y="673" on="0"/>
        <pt x="580" y="635" on="1"/>
        <pt x="500" y="538" on="1"/>
        <pt x="437" y="589" on="0"/>
        <pt x="362" y="589" on="1"/>
        <pt x="291" y="589" on="0"/>
        <pt x="203" y="469" on="0"/>
        <pt x="203" y="348" on="1"/>
        <pt x="203" y="228" on="0"/>
        <pt x="290" y="110" on="0"/>
        <pt x="365" y="110" on="1"/>
        <pt x="411" y="110" on="0"/>
        <pt x="478" y="141" on="0"/>
        <pt x="515" y="171" on="1"/>
        <pt x="589" y="77" on="1"/>
        <pt x="497" y="-17" on="0"/>
        <pt x="356" y="-17" on="1"/>
        <pt x="261" y="-17" on="0"/>
        <pt x="116" y="67" on="0"/>
        <pt x="34" y="232" on="0"/>
        <pt x="34" y="348" on="1"/>
        <pt x="34" y="461" on="0"/>
        <pt x="118" y="625" on="0"/>
        <pt x="266" y="711" on="0"/>
        <pt x="358" y="711" on="1"/>
      </contour>
    </TTGlyph>
    <TTGlyph name="Cacute" xMin="34" yMin="-17" xMax="589" yMax="953">
      <component glyphName="C" x="0" y="0" flags="0x0"/>
      <component glyphName="acute.case" x="56" y="0" flags="0x0"/>
    </TTGlyph>
    <TTGlyph name="Cacute.loclPLK" xMin="34" yMin="-17" xMax="589" yMax="972">
      <component glyphName="C" x="0" y="0" flags="0x0"/>
      <component glyphName="acute.case.loclPLK" x="99" y="0" flags="0x0"/>
    </TTGlyph>
    <TTGlyph name="Ccaron" xMin="34" yMin="-17" xMax="589" yMax="946">
      <component glyphName="C" x="0" y="0" flags="0x0"/>
      <component glyphName="caron.case" x="61" y="0" flags="0x0"/>
    </TTGlyph>
    <TTGlyph name="Ccedilla" xMin="34" yMin="-262" xMax="589" yMax="711">
      <contour>
        <pt x="506" y="-8" on="0"/>
        <pt x="382" y="-16" on="1"/>
        <pt x="382" y="-48" on="1"/>
        <pt x="433" y="-54" on="0"/>
        <pt x="485" y="-106" on="0"/>
        <pt x="485" y="-147" on="1"/>
        <pt x="485" y="-198" on="0"/>
        <pt x="403" y="-262" on="0"/>
        <pt x="336" y="-262" on="1"/>
        <pt x="302" y="-262" on="0"/>
        <pt x="242" y="-244" on="0"/>
        <pt x="219" y="-231" on="1"/>
        <pt x="255" y="-159" on="1"/>
        <pt x="289" y="-176" on="0"/>
        <pt x="319" y="-176" on="1"/>
        <pt x="372" y="-176" on="0"/>
        <pt x="372" y="-145" on="1"/>
        <pt x="372" y="-126" on="0"/>
        <pt x="328" y="-112" on="0"/>
        <pt x="280" y="-112" on="1"/>
        <pt x="291" y="-12" on="1"/>
        <pt x="173" y="9" on="0"/>
        <pt x="34" y="195" on="0"/>
        <pt x="34" y="348" on="1"/>
        <pt x="34" y="461" on="0"/>
        <pt x="118" y="625" on="0"/>
        <pt x="266" y="711" on="0"/>
        <pt x="358" y="711" on="1"/>
        <pt x="430" y="711" on="0"/>
        <pt x="534" y="673" on="0"/>
        <pt x="580" y="635" on="1"/>
        <pt x="500" y="538" on="1"/>
        <pt x="437" y="589" on="0"/>
        <pt x="362" y="589" on="1"/>
        <pt x="291" y="589" on="0"/>
        <pt x="203" y="469" on="0"/>
        <pt x="203" y="348" on="1"/>
        <pt x="203" y="228" on="0"/>
        <pt x="290" y="110" on="0"/>
        <pt x="365" y="110" on="1"/>
        <pt x="411" y="110" on="0"/>
        <pt x="478" y="141" on="0"/>
        <pt x="515" y="171" on="1"/>
        <pt x="589" y="77" on="1"/>
      </contour>
    </TTGlyph>
    <TTGlyph name="Ccircumflex" xMin="34" yMin="-17" xMax="589" yMax="943">
      <component glyphName="C" x="0" y="0" flags="0x0"/>
      <component glyphName="circumflex.case" x="61" y="0" flags="0x0"/>
    </TTGlyph>
    <TTGlyph name="Cdotaccent" xMin="34" yMin="-17" xMax="589" yMax="934">
      <component glyphName="C" x="0" y="0" flags="0x0"/>
      <component glyphName="dotaccent.case" x="56" y="0" flags="0x0"/>
    </TTGlyph>
    <TTGlyph name="Chi" xMin="4" yMin="0" xMax="597" yMax="693">
      <component glyphName="X" x="0" y="0" flags="0x0"/>
    </TTGlyph>
    <TTGlyph name="D" xMin="52" yMin="0" xMax="574" yMax="693">
      <contour>
        <pt x="574" y="0" on="0"/>
        <pt x="239" y="0" on="1"/>
        <pt x="52" y="0" on="1"/>
        <pt x="52" y="693" on="1"/>
        <pt x="227" y="693" on="1"/>
        <pt x="384" y="693" on="0"/>
        <pt x="574" y="546" on="0"/>
        <pt x="574" y="350" on="1"/>
      </contour>
      <contour>
        <pt x="405" y="439" on="0"/>
        <pt x="366" y="538" on="0"/>
        <pt x="299" y="574" on="0"/>
        <pt x="251" y="574" on="1"/>
        <pt x="216" y="574" on="1"/>
        <pt x="216" y="119" on="1"/>
        <pt x="251" y="119" on="1"/>
        <pt x="326" y="119" on="0"/>
        <pt x="405" y="222" on="0"/>
        <pt x="405" y="350" on="1"/>
      </contour>
    </TTGlyph>
    <TTGlyph name="Dcaron" xMin="52" yMin="0" xMax="574" yMax="946">
      <component glyphName="D" x="0" y="0" flags="0x0"/>
      <component glyphName="caron.case" x="-13" y="0" flags="0x0"/>
    </TTGlyph>
    <TTGlyph name="Dcroat" xMin="9" yMin="0" xMax="587" yMax="693">
      <component glyphName="Eth" x="0" y="0" flags="0x0"/>
    </TTGlyph>
    <TTGlyph name="Delta" xMin="-11" yMin="0" xMax="612" yMax="693">
      <contour>
        <pt x="-11" y="0" on="1"/>
        <pt x="201" y="693" on="1"/>
        <pt x="400" y="693" on="1"/>
        <pt x="612" y="0" on="1"/>
      </contour>
      <contour>
        <pt x="405" y="133" on="1"/>
        <pt x="298" y="575" on="1"/>
        <pt x="192" y="133" on="1"/>
      </contour>
    </TTGlyph>
    <TTGlyph name="E" xMin="93" yMin="0" xMax="546" yMax="693">
      <contour>
        <pt x="497" y="409" on="1"/>
        <pt x="497" y="295" on="1"/>
        <pt x="257" y="295" on="1"/>
        <pt x="257" y="118" on="1"/>
        <pt x="546" y="118" on="1"/>
        <pt x="546" y="0" on="1"/>
        <pt x="93" y="0" on="1"/>
        <pt x="93" y="693" on="1"/>
        <pt x="546" y="693" on="1"/>
        <pt x="529" y="576" on="1"/>
        <pt x="257" y="576" on="1"/>
        <pt x="257" y="409" on="1"/>
      </contour>
    </TTGlyph>
    <TTGlyph name="Eacute" xMin="93" yMin="0" xMax="546" yMax="953">
      <component glyphName="E" x="0" y="0" flags="0x0"/>
      <component glyphName="acute.case" x="15" y="0" flags="0x0"/>
    </TTGlyph>
    <TTGlyph name="Ebreve" xMin="93" yMin="0" xMax="546" yMax="921">
      <component glyphName="E" x="0" y="0" flags="0x0"/>
      <component glyphName="breve.case" x="20" y="0" flags="0x0"/>
    </TTGlyph>
    <TTGlyph name="Ecaron" xMin="93" yMin="0" xMax="546" yMax="946">
      <component glyphName="E" x="0" y="0" flags="0x0"/>
      <component glyphName="caron.case" x="20" y="0" flags="0x0"/>
    </TTGlyph>
    <TTGlyph name="Ecircumflex" xMin="93" yMin="0" xMax="546" yMax="943">
      <component glyphName="E" x="0" y="0" flags="0x0"/>
      <component glyphName="circumflex.case" x="20" y="0" flags="0x0"/>
    </TTGlyph>
    <TTGlyph name="Edieresis" xMin="93" yMin="0" xMax="546" yMax="922">
      <component glyphName="E" x="0" y="0" flags="0x0"/>
      <component glyphName="dieresis.case" x="15" y="0" flags="0x0"/>
    </TTGlyph>
    <TTGlyph name="Edotaccent" xMin="93" yMin="0" xMax="546" yMax="934">
      <component glyphName="E" x="0" y="0" flags="0x0"/>
      <component glyphName="dotaccent.case" x="15" y="0" flags="0x0"/>
    </TTGlyph>
    <TTGlyph name="Egrave" xMin="93" yMin="0" xMax="546" yMax="953">
      <component glyphName="E" x="0" y="0" flags="0x0"/>
      <component glyphName="grave.case" x="15" y="0" flags="0x0"/>
    </TTGlyph>
    <TTGlyph name="Emacron" xMin="93" yMin="0" xMax="546" yMax="892">
      <component glyphName="E" x="0" y="0" flags="0x0"/>
      <component glyphName="macron.case" x="15" y="0" flags="0x0"/>
    </TTGlyph>
    <TTGlyph name="Eng" xMin="52" yMin="-222" xMax="548" yMax="693">
      <contour>
        <pt x="548" y="-67" on="0"/>
        <pt x="429" y="-188" on="0"/>
        <pt x="327" y="-222" on="1"/>
        <pt x="292" y="-117" on="1"/>
        <pt x="351" y="-93" on="0"/>
        <pt x="402" y="-42" on="0"/>
        <pt x="407" y="0" on="1"/>
        <pt x="349" y="0" on="1"/>
        <pt x="171" y="540" on="1"/>
        <pt x="167" y="540" on="1"/>
        <pt x="175" y="496" on="0"/>
        <pt x="191" y="342" on="0"/>
        <pt x="191" y="262" on="1"/>
        <pt x="191" y="0" on="1"/>
        <pt x="52" y="0" on="1"/>
        <pt x="52" y="693" on="1"/>
        <pt x="256" y="693" on="1"/>
        <pt x="429" y="152" on="1"/>
        <pt x="433" y="152" on="1"/>
        <pt x="424" y="198" on="0"/>
        <pt x="409" y="343" on="0"/>
        <pt x="409" y="427" on="1"/>
        <pt x="409" y="693" on="1"/>
        <pt x="548" y="693" on="1"/>
        <pt x="548" y="45" on="1"/>
      </contour>
    </TTGlyph>
    <TTGlyph name="Eogonek" xMin="93" yMin="-253" xMax="546" yMax="693">
      <contour>
        <pt x="546" y="118" on="1"/>
        <pt x="546" y="0" on="1"/>
        <pt x="467" y="0" on="1"/>
        <pt x="402" y="-22" on="0"/>
        <pt x="352" y="-76" on="0"/>
        <pt x="352" y="-110" on="1"/>
        <pt x="352" y="-134" on="0"/>
        <pt x="383" y="-159" on="0"/>
        <pt x="410" y="-159" on="1"/>
        <pt x="434" y="-159" on="0"/>
        <pt x="464" y="-152" on="1"/>
        <pt x="452" y="-245" on="1"/>
        <pt x="423" y="-253" on="0"/>
        <pt x="393" y="-253" on="1"/>
        <pt x="327" y="-253" on="0"/>
        <pt x="242" y="-188" on="0"/>
        <pt x="242" y="-130" on="1"/>
        <pt x="242" y="-47" on="0"/>
        <pt x="322" y="0" on="1"/>
        <pt x="93" y="0" on="1"/>
        <pt x="93" y="693" on="1"/>
        <pt x="546" y="693" on="1"/>
        <pt x="529" y="576" on="1"/>
        <pt x="257" y="576" on="1"/>
        <pt x="257" y="409" on="1"/>
        <pt x="497" y="409" on="1"/>
        <pt x="497" y="295" on="1"/>
        <pt x="257" y="295" on="1"/>
        <pt x="257" y="118" on="1"/>
      </contour>
    </TTGlyph>
    <TTGlyph name="Epsilon" xMin="93" yMin="0" xMax="546" yMax="693">
      <contour>
        <pt x="497" y="409" on="1"/>
        <pt x="497" y="295" on="1"/>
        <pt x="257" y="295" on="1"/>
        <pt x="257" y="118" on="1"/>
        <pt x="546" y="118" on="1"/>
        <pt x="546" y="0" on="1"/>
        <pt x="93" y="0" on="1"/>
        <pt x="93" y="693" on="1"/>
        <pt x="546" y="693" on="1"/>
        <pt x="529" y="576" on="1"/>
        <pt x="257" y="576" on="1"/>
        <pt x="257" y="409" on="1"/>
      </contour>
    </TTGlyph>
    <TTGlyph name="Epsilontonos" xMin="-152" yMin="0" xMax="546" yMax="720">
      <component glyphName="E" x="0" y="0" flags="0x0"/>
      <component glyphName="tonos.case" x="-343" y="0" flags="0x0"/>
    </TTGlyph>
    <TTGlyph name="Eta" xMin="52" yMin="0" xMax="548" yMax="693">
      <contour>
        <pt x="216" y="290" on="1"/>
        <pt x="216" y="0" on="1"/>
        <pt x="52" y="0" on="1"/>
        <pt x="52" y="693" on="1"/>
        <pt x="216" y="693" on="1"/>
        <pt x="216" y="429" on="1"/>
        <pt x="384" y="429" on="1"/>
        <pt x="384" y="693" on="1"/>
        <pt x="548" y="693" on="1"/>
        <pt x="548" y="0" on="1"/>
        <pt x="384" y="0" on="1"/>
        <pt x="384" y="290" on="1"/>
      </contour>
    </TTGlyph>
    <TTGlyph name="Etatonos" xMin="-182" yMin="0" xMax="548" yMax="720">
      <component glyphName="H" x="0" y="0" flags="0x0"/>
      <component glyphName="tonos.case" x="-373" y="0" flags="0x0"/>
    </TTGlyph>
    <TTGlyph name="Eth" xMin="9" yMin="0" xMax="587" yMax="693">
      <contour>
        <pt x="397" y="693" on="0"/>
        <pt x="587" y="546" on="0"/>
        <pt x="587" y="350" on="1"/>
        <pt x="587" y="0" on="0"/>
        <pt x="252" y="0" on="1"/>
        <pt x="65" y="0" on="1"/>
        <pt x="65" y="304" on="1"/>
        <pt x="9" y="304" on="1"/>
        <pt x="9" y="403" on="1"/>
        <pt x="65" y="403" on="1"/>
        <pt x="65" y="693" on="1"/>
        <pt x="240" y="693" on="1"/>
      </contour>
      <contour>
        <pt x="339" y="119" on="0"/>
        <pt x="418" y="222" on="0"/>
        <pt x="418" y="350" on="1"/>
        <pt x="418" y="439" on="0"/>
        <pt x="379" y="538" on="0"/>
        <pt x="312" y="574" on="0"/>
        <pt x="264" y="574" on="1"/>
        <pt x="229" y="574" on="1"/>
        <pt x="229" y="403" on="1"/>
        <pt x="349" y="403" on="1"/>
        <pt x="349" y="304" on="1"/>
        <pt x="229" y="304" on="1"/>
        <pt x="229" y="119" on="1"/>
        <pt x="264" y="119" on="1"/>
      </contour>
    </TTGlyph>
    <TTGlyph name="Euro" xMin="32" yMin="-17" xMax="579" yMax="711">
      <contour>
        <pt x="464" y="711" on="0"/>
        <pt x="540" y="685" on="0"/>
        <pt x="579" y="659" on="1"/>
        <pt x="520" y="561" on="1"/>
        <pt x="492" y="580" on="0"/>
        <pt x="448" y="595" on="0"/>
        <pt x="416" y="595" on="1"/>
        <pt x="364" y="595" on="0"/>
        <pt x="298" y="533" on="0"/>
        <pt x="284" y="466" on="1"/>
        <pt x="490" y="466" on="1"/>
        <pt x="469" y="383" on="1"/>
        <pt x="273" y="383" on="1"/>
        <pt x="273" y="313" on="1"/>
        <pt x="454" y="313" on="1"/>
        <pt x="433" y="229" on="1"/>
        <pt x="281" y="229" on="1"/>
        <pt x="292" y="161" on="0"/>
        <pt x="354" y="100" on="0"/>
        <pt x="411" y="100" on="1"/>
        <pt x="483" y="100" on="0"/>
        <pt x="551" y="146" on="1"/>
        <pt x="551" y="20" on="1"/>
        <pt x="475" y="-17" on="0"/>
        <pt x="399" y="-17" on="1"/>
        <pt x="285" y="-17" on="0"/>
        <pt x="146" y="109" on="0"/>
        <pt x="124" y="229" on="1"/>
        <pt x="32" y="229" on="1"/>
        <pt x="53" y="313" on="1"/>
        <pt x="114" y="313" on="1"/>
        <pt x="114" y="383" on="1"/>
        <pt x="33" y="383" on="1"/>
        <pt x="54" y="466" on="1"/>
        <pt x="126" y="466" on="1"/>
        <pt x="151" y="582" on="0"/>
        <pt x="298" y="711" on="0"/>
        <pt x="408" y="711" on="1"/>
      </contour>
    </TTGlyph>
    <TTGlyph name="Euro.tosf" xMin="32" yMin="-17" xMax="579" yMax="711">
      <component glyphName="Euro" x="0" y="0" flags="0x0"/>
    </TTGlyph>
    <TTGlyph name="F" xMin="108" yMin="0" xMax="563" yMax="693">
      <contour>
        <pt x="515" y="393" on="1"/>
        <pt x="515" y="275" on="1"/>
        <pt x="273" y="275" on="1"/>
        <pt x="273" y="0" on="1"/>
        <pt x="108" y="0" on="1"/>
        <pt x="108" y="693" on="1"/>
        <pt x="563" y="693" on="1"/>
        <pt x="547" y="576" on="1"/>
        <pt x="273" y="576" on="1"/>
        <pt x="273" y="393" on="1"/>
      </contour>
    </TTGlyph>
    <TTGlyph name="G" xMin="23" yMin="-17" xMax="568" yMax="711">
      <contour>
        <pt x="178" y="-17" on="0"/>
        <pt x="23" y="170" on="0"/>
        <pt x="23" y="348" on="1"/>
        <pt x="23" y="463" on="0"/>
        <pt x="107" y="627" on="0"/>
        <pt x="254" y="711" on="0"/>
        <pt x="345" y="711" on="1"/>
        <pt x="416" y="711" on="0"/>
        <pt x="521" y="666" on="0"/>
        <pt x="565" y="625" on="1"/>
        <pt x="479" y="536" on="1"/>
        <pt x="446" y="565" on="0"/>
        <pt x="388" y="591" on="0"/>
        <pt x="352" y="591" on="1"/>
        <pt x="278" y="591" on="0"/>
        <pt x="191" y="472" on="0"/>
        <pt x="191" y="347" on="1"/>
        <pt x="191" y="214" on="0"/>
        <pt x="256" y="103" on="0"/>
        <pt x="327" y="103" on="1"/>
        <pt x="374" y="103" on="0"/>
        <pt x="413" y="124" on="1"/>
        <pt x="413" y="283" on="1"/>
        <pt x="326" y="283" on="1"/>
        <pt x="310" y="397" on="1"/>
        <pt x="568" y="397" on="1"/>
        <pt x="568" y="53" on="1"/>
        <pt x="454" y="-17" on="0"/>
        <pt x="326" y="-17" on="1"/>
      </contour>
    </TTGlyph>
    <TTGlyph name="Gamma" xMin="90" yMin="0" xMax="559" yMax="693">
      <component glyphName="uni0413" x="0" y="0" flags="0x0"/>
    </TTGlyph>
    <TTGlyph name="Gbreve" xMin="23" yMin="-17" xMax="568" yMax="921">
      <component glyphName="G" x="0" y="0" flags="0x0"/>
      <component glyphName="breve.case" x="30" y="0" flags="0x0"/>
    </TTGlyph>
    <TTGlyph name="Gcircumflex" xMin="23" yMin="-17" xMax="568" yMax="943">
      <component glyphName="G" x="0" y="0" flags="0x0"/>
      <component glyphName="circumflex.case" x="30" y="0" flags="0x0"/>
    </TTGlyph>
    <TTGlyph name="Gcommaaccent" xMin="23" yMin="-322" xMax="568" yMax="711">
      <component glyphName="G" x="0" y="0" flags="0x0"/>
      <component glyphName="uni0326" x="26" y="0" flags="0x0"/>
    </TTGlyph>
    <TTGlyph name="Gdotaccent" xMin="23" yMin="-17" xMax="568" yMax="934">
      <component glyphName="G" x="0" y="0" flags="0x0"/>
      <component glyphName="dotaccent.case" x="25" y="0" flags="0x0"/>
    </TTGlyph>
    <TTGlyph name="H" xMin="52" yMin="0" xMax="548" yMax="693">
      <contour>
        <pt x="216" y="290" on="1"/>
        <pt x="216" y="0" on="1"/>
        <pt x="52" y="0" on="1"/>
        <pt x="52" y="693" on="1"/>
        <pt x="216" y="693" on="1"/>
        <pt x="216" y="429" on="1"/>
        <pt x="384" y="429" on="1"/>
        <pt x="384" y="693" on="1"/>
        <pt x="548" y="693" on="1"/>
        <pt x="548" y="0" on="1"/>
        <pt x="384" y="0" on="1"/>
        <pt x="384" y="290" on="1"/>
      </contour>
    </TTGlyph>
    <TTGlyph name="H18543" xMin="142" yMin="0" xMax="427" yMax="270">
      <contour>
        <pt x="142" y="0" on="1"/>
        <pt x="142" y="270" on="1"/>
        <pt x="427" y="270" on="1"/>
        <pt x="427" y="0" on="1"/>
      </contour>
    </TTGlyph>
    <TTGlyph name="H18551" xMin="142" yMin="0" xMax="427" yMax="270">
      <contour>
        <pt x="142" y="0" on="1"/>
        <pt x="142" y="270" on="1"/>
        <pt x="427" y="270" on="1"/>
        <pt x="427" y="0" on="1"/>
      </contour>
      <contour>
        <pt x="222" y="80" on="1"/>
        <pt x="347" y="80" on="1"/>
        <pt x="347" y="190" on="1"/>
        <pt x="222" y="190" on="1"/>
      </contour>
    </TTGlyph>
    <TTGlyph name="H22073" xMin="30" yMin="0" xMax="570" yMax="540">
      <contour>
        <pt x="30" y="0" on="1"/>
        <pt x="30" y="540" on="1"/>
        <pt x="570" y="540" on="1"/>
        <pt x="570" y="0" on="1"/>
      </contour>
      <contour>
        <pt x="110" y="80" on="1"/>
        <pt x="490" y="80" on="1"/>
        <pt x="490" y="460" on="1"/>
        <pt x="110" y="460" on="1"/>
      </contour>
    </TTGlyph>
    <TTGlyph name="Hbar" xMin="2" yMin="0" xMax="598" yMax="693">
      <contour>
        <pt x="543" y="500" on="1"/>
        <pt x="543" y="0" on="1"/>
        <pt x="380" y="0" on="1"/>
        <pt x="380" y="297" on="1"/>
        <pt x="220" y="297" on="1"/>
        <pt x="220" y="0" on="1"/>
        <pt x="57" y="0" on="1"/>
        <pt x="57" y="500" on="1"/>
        <pt x="2" y="500" on="1"/>
        <pt x="2" y="592" on="1"/>
        <pt x="57" y="592" on="1"/>
        <pt x="57" y="693" on="1"/>
        <pt x="220" y="693" on="1"/>
        <pt x="220" y="592" on="1"/>
        <pt x="380" y="592" on="1"/>
        <pt x="380" y="693" on="1"/>
        <pt x="543" y="693" on="1"/>
        <pt x="543" y="592" on="1"/>
        <pt x="598" y="592" on="1"/>
        <pt x="598" y="500" on="1"/>
      </contour>
      <contour>
        <pt x="220" y="500" on="1"/>
        <pt x="220" y="424" on="1"/>
        <pt x="380" y="424" on="1"/>
        <pt x="380" y="500" on="1"/>
      </contour>
    </TTGlyph>
    <TTGlyph name="Hcircumflex" xMin="52" yMin="0" xMax="548" yMax="943">
      <component glyphName="H" x="0" y="0" flags="0x0"/>
      <component glyphName="circumflex.case" x="0" y="0" flags="0x0"/>
    </TTGlyph>
    <TTGlyph name="I" xMin="75" yMin="0" xMax="525" yMax="693">
      <contour>
        <pt x="382" y="573" on="1"/>
        <pt x="382" y="120" on="1"/>
        <pt x="525" y="120" on="1"/>
        <pt x="525" y="0" on="1"/>
        <pt x="75" y="0" on="1"/>
        <pt x="75" y="120" on="1"/>
        <pt x="218" y="120" on="1"/>
        <pt x="218" y="573" on="1"/>
        <pt x="75" y="573" on="1"/>
        <pt x="75" y="693" on="1"/>
        <pt x="525" y="693" on="1"/>
        <pt x="525" y="573" on="1"/>
      </contour>
    </TTGlyph>
    <TTGlyph name="IJ" xMin="8" yMin="-183" xMax="556" yMax="693">
      <contour>
        <pt x="271" y="-56" on="0"/>
        <pt x="365" y="2" on="0"/>
        <pt x="398" y="91" on="0"/>
        <pt x="398" y="164" on="1"/>
        <pt x="398" y="592" on="1"/>
        <pt x="232" y="592" on="1"/>
        <pt x="232" y="102" on="1"/>
        <pt x="285" y="102" on="1"/>
        <pt x="285" y="0" on="1"/>
        <pt x="8" y="0" on="1"/>
        <pt x="8" y="102" on="1"/>
        <pt x="81" y="102" on="1"/>
        <pt x="81" y="592" on="1"/>
        <pt x="8" y="592" on="1"/>
        <pt x="8" y="693" on="1"/>
        <pt x="556" y="693" on="1"/>
        <pt x="556" y="171" on="1"/>
        <pt x="556" y="24" on="0"/>
        <pt x="391" y="-152" on="0"/>
        <pt x="200" y="-183" on="1"/>
        <pt x="181" y="-72" on="1"/>
      </contour>
    </TTGlyph>
    <TTGlyph name="Iacute" xMin="75" yMin="0" xMax="525" yMax="953">
      <component glyphName="I" x="0" y="0" flags="0x0"/>
      <component glyphName="acute.case" x="-5" y="0" flags="0x0"/>
    </TTGlyph>
    <TTGlyph name="Ibreve" xMin="75" yMin="0" xMax="525" yMax="921">
      <component glyphName="I" x="0" y="0" flags="0x0"/>
      <component glyphName="breve.case" x="0" y="0" flags="0x0"/>
    </TTGlyph>
    <TTGlyph name="Icircumflex" xMin="75" yMin="0" xMax="525" yMax="943">
      <component glyphName="I" x="0" y="0" flags="0x0"/>
      <component glyphName="circumflex.case" x="0" y="0" flags="0x0"/>
    </TTGlyph>
    <TTGlyph name="Idieresis" xMin="75" yMin="0" xMax="525" yMax="922">
      <component glyphName="I" x="0" y="0" flags="0x0"/>
      <component glyphName="dieresis.case" x="-5" y="0" flags="0x0"/>
    </TTGlyph>
    <TTGlyph name="Idotaccent" xMin="75" yMin="0" xMax="525" yMax="934">
      <component glyphName="I" x="0" y="0" flags="0x0"/>
      <component glyphName="dotaccent.case" x="-5" y="0" flags="0x0"/>
    </TTGlyph>
    <TTGlyph name="Igrave" xMin="75" yMin="0" xMax="525" yMax="953">
      <component glyphName="I" x="0" y="0" flags="0x0"/>
      <component glyphName="grave.case" x="-5" y="0" flags="0x0"/>
    </TTGlyph>
    <TTGlyph name="Imacron" xMin="75" yMin="0" xMax="525" yMax="892">
      <component glyphName="I" x="0" y="0" flags="0x0"/>
      <component glyphName="macron.case" x="-5" y="0" flags="0x0"/>
    </TTGlyph>
    <TTGlyph name="Iogonek" xMin="75" yMin="-253" xMax="525" yMax="693">
      <contour>
        <pt x="382" y="120" on="1"/>
        <pt x="525" y="120" on="1"/>
        <pt x="525" y="0" on="1"/>
        <pt x="382" y="0" on="1"/>
        <pt x="317" y="-22" on="0"/>
        <pt x="267" y="-76" on="0"/>
        <pt x="267" y="-110" on="1"/>
        <pt x="267" y="-134" on="0"/>
        <pt x="298" y="-159" on="0"/>
        <pt x="325" y="-159" on="1"/>
        <pt x="349" y="-159" on="0"/>
        <pt x="379" y="-152" on="1"/>
        <pt x="367" y="-245" on="1"/>
        <pt x="338" y="-253" on="0"/>
        <pt x="308" y="-253" on="1"/>
        <pt x="242" y="-253" on="0"/>
        <pt x="157" y="-188" on="0"/>
        <pt x="157" y="-130" on="1"/>
        <pt x="157" y="-47" on="0"/>
        <pt x="237" y="0" on="1"/>
        <pt x="75" y="0" on="1"/>
        <pt x="75" y="120" on="1"/>
        <pt x="218" y="120" on="1"/>
        <pt x="218" y="573" on="1"/>
        <pt x="75" y="573" on="1"/>
        <pt x="75" y="693" on="1"/>
        <pt x="525" y="693" on="1"/>
        <pt x="525" y="573" on="1"/>
        <pt x="382" y="573" on="1"/>
      </contour>
    </TTGlyph>
    <TTGlyph name="Iota" xMin="75" yMin="0" xMax="525" yMax="693">
      <contour>
        <pt x="382" y="573" on="1"/>
        <pt x="382" y="120" on="1"/>
        <pt x="525" y="120" on="1"/>
        <pt x="525" y="0" on="1"/>
        <pt x="75" y="0" on="1"/>
        <pt x="75" y="120" on="1"/>
        <pt x="218" y="120" on="1"/>
        <pt x="218" y="573" on="1"/>
        <pt x="75" y="573" on="1"/>
        <pt x="75" y="693" on="1"/>
        <pt x="525" y="693" on="1"/>
        <pt x="525" y="573" on="1"/>
      </contour>
    </TTGlyph>
    <TTGlyph name="Iotadieresis" xMin="75" yMin="0" xMax="525" yMax="922">
      <component glyphName="I" x="0" y="0" flags="0x0"/>
      <component glyphName="dieresis.case" x="-5" y="0" flags="0x0"/>
    </TTGlyph>
    <TTGlyph name="Iotatonos" xMin="-162" yMin="0" xMax="525" yMax="720">
      <component glyphName="I" x="0" y="0" flags="0x0"/>
      <component glyphName="tonos.case" x="-353" y="0" flags="0x0"/>
    </TTGlyph>
    <TTGlyph name="Itilde" xMin="75" yMin="0" xMax="525" yMax="914">
      <component glyphName="I" x="0" y="0" flags="0x0"/>
      <component glyphName="tilde.case" x="-5" y="0" flags="0x0"/>
    </TTGlyph>
    <TTGlyph name="J" xMin="39" yMin="-15" xMax="527" yMax="693">
      <contour>
        <pt x="527" y="127" on="0"/>
        <pt x="380" y="-15" on="0"/>
        <pt x="248" y="-15" on="1"/>
        <pt x="184" y="-15" on="0"/>
        <pt x="87" y="17" on="0"/>
        <pt x="39" y="50" on="1"/>
        <pt x="101" y="151" on="1"/>
        <pt x="137" y="127" on="0"/>
        <pt x="199" y="107" on="0"/>
        <pt x="239" y="107" on="1"/>
        <pt x="294" y="107" on="0"/>
        <pt x="363" y="178" on="0"/>
        <pt x="363" y="248" on="1"/>
        <pt x="363" y="573" on="1"/>
        <pt x="151" y="573" on="1"/>
        <pt x="151" y="693" on="1"/>
        <pt x="527" y="693" on="1"/>
        <pt x="527" y="249" on="1"/>
      </contour>
    </TTGlyph>
    <TTGlyph name="Jcircumflex" xMin="39" yMin="-15" xMax="541" yMax="943">
      <component glyphName="J" x="0" y="0" flags="0x0"/>
      <component glyphName="circumflex.case" x="52" y="0" flags="0x0"/>
    </TTGlyph>
    <TTGlyph name="K" xMin="59" yMin="0" xMax="608" yMax="693">
      <contour>
        <pt x="59" y="693" on="1"/>
        <pt x="223" y="693" on="1"/>
        <pt x="223" y="0" on="1"/>
        <pt x="59" y="0" on="1"/>
      </contour>
      <contour>
        <pt x="589" y="693" on="1"/>
        <pt x="393" y="382" on="1"/>
        <pt x="608" y="0" on="1"/>
        <pt x="419" y="0" on="1"/>
        <pt x="228" y="370" on="1"/>
        <pt x="418" y="693" on="1"/>
      </contour>
    </TTGlyph>
    <TTGlyph name="Kappa" xMin="59" yMin="0" xMax="608" yMax="693">
      <component glyphName="K" x="0" y="0" flags="0x0"/>
    </TTGlyph>
    <TTGlyph name="Kcommaaccent" xMin="59" yMin="-322" xMax="608" yMax="693">
      <component glyphName="K" x="0" y="0" flags="0x0"/>
      <component glyphName="uni0326.case" x="1" y="0" flags="0x0"/>
    </TTGlyph>
    <TTGlyph name="L" xMin="93" yMin="0" xMax="557" yMax="693">
      <contour>
        <pt x="257" y="693" on="1"/>
        <pt x="257" y="129" on="1"/>
        <pt x="557" y="129" on="1"/>
        <pt x="541" y="0" on="1"/>
        <pt x="93" y="0" on="1"/>
        <pt x="93" y="693" on="1"/>
      </contour>
    </TTGlyph>
    <TTGlyph name="Lacute" xMin="37" yMin="0" xMax="557" yMax="953">
      <component glyphName="L" x="0" y="0" flags="0x0"/>
      <component glyphName="acute.case" x="-130" y="0" flags="0x0"/>
    </TTGlyph>
    <TTGlyph name="Lambda" xMin="-7" yMin="0" xMax="607" yMax="693">
      <contour>
        <pt x="432" y="0" on="1"/>
        <pt x="299" y="571" on="1"/>
        <pt x="165" y="0" on="1"/>
        <pt x="-7" y="0" on="1"/>
        <pt x="201" y="693" on="1"/>
        <pt x="400" y="693" on="1"/>
        <pt x="607" y="0" on="1"/>
      </contour>
    </TTGlyph>
    <TTGlyph name="Lcaron" xMin="93" yMin="0" xMax="557" yMax="715">
      <component glyphName="L" x="0" y="0" flags="0x0"/>
      <component glyphName="caron.alt" x="86" y="4" flags="0x0"/>
    </TTGlyph>
    <TTGlyph name="Lcommaaccent" xMin="93" yMin="-322" xMax="557" yMax="693">
      <component glyphName="L" x="0" y="0" flags="0x0"/>
      <component glyphName="uni0326.case" x="17" y="0" flags="0x0"/>
    </TTGlyph>
    <TTGlyph name="Ldot" xMin="93" yMin="0" xMax="559" yMax="693">
      <component glyphName="L" x="0" y="0" flags="0x0"/>
      <component glyphName="dotaccent" x="166" y="-335" flags="0x0"/>
    </TTGlyph>
    <TTGlyph name="Lslash" xMin="9" yMin="0" xMax="572" yMax="693">
      <contour>
        <pt x="555" y="0" on="1"/>
        <pt x="108" y="0" on="1"/>
        <pt x="108" y="230" on="1"/>
        <pt x="62" y="201" on="1"/>
        <pt x="9" y="288" on="1"/>
        <pt x="108" y="349" on="1"/>
        <pt x="108" y="693" on="1"/>
        <pt x="271" y="693" on="1"/>
        <pt x="271" y="450" on="1"/>
        <pt x="396" y="527" on="1"/>
        <pt x="450" y="442" on="1"/>
        <pt x="271" y="331" on="1"/>
        <pt x="271" y="129" on="1"/>
        <pt x="572" y="129" on="1"/>
      </contour>
    </TTGlyph>
    <TTGlyph name="M" xMin="17" yMin="0" xMax="583" yMax="693">
      <contour>
        <pt x="439" y="0" on="1"/>
        <pt x="431" y="297" on="1"/>
        <pt x="430" y="319" on="0"/>
        <pt x="430" y="358" on="1"/>
        <pt x="430" y="436" on="0"/>
        <pt x="440" y="539" on="1"/>
        <pt x="436" y="539" on="1"/>
        <pt x="361" y="118" on="1"/>
        <pt x="238" y="118" on="1"/>
        <pt x="157" y="539" on="1"/>
        <pt x="153" y="539" on="1"/>
        <pt x="164" y="445" on="0"/>
        <pt x="164" y="347" on="1"/>
        <pt x="163" y="294" on="1"/>
        <pt x="158" y="0" on="1"/>
        <pt x="17" y="0" on="1"/>
        <pt x="56" y="693" on="1"/>
        <pt x="225" y="693" on="1"/>
        <pt x="302" y="245" on="1"/>
        <pt x="375" y="693" on="1"/>
        <pt x="544" y="693" on="1"/>
        <pt x="583" y="0" on="1"/>
      </contour>
    </TTGlyph>
    <TTGlyph name="Mu" xMin="17" yMin="0" xMax="583" yMax="693">
      <component glyphName="M" x="0" y="0" flags="0x0"/>
    </TTGlyph>
    <TTGlyph name="N" xMin="52" yMin="0" xMax="548" yMax="693">
      <contour>
        <pt x="167" y="540" on="1"/>
        <pt x="175" y="496" on="0"/>
        <pt x="191" y="342" on="0"/>
        <pt x="191" y="262" on="1"/>
        <pt x="191" y="0" on="1"/>
        <pt x="52" y="0" on="1"/>
        <pt x="52" y="693" on="1"/>
        <pt x="256" y="693" on="1"/>
        <pt x="429" y="152" on="1"/>
        <pt x="433" y="152" on="1"/>
        <pt x="424" y="198" on="0"/>
        <pt x="409" y="343" on="0"/>
        <pt x="409" y="427" on="1"/>
        <pt x="409" y="693" on="1"/>
        <pt x="548" y="693" on="1"/>
        <pt x="548" y="0" on="1"/>
        <pt x="349" y="0" on="1"/>
        <pt x="171" y="540" on="1"/>
      </contour>
    </TTGlyph>
    <TTGlyph name="Nacute" xMin="52" yMin="0" xMax="548" yMax="953">
      <component glyphName="N" x="0" y="0" flags="0x0"/>
      <component glyphName="acute.case" x="5" y="0" flags="0x0"/>
    </TTGlyph>
    <TTGlyph name="Nacute.loclPLK" xMin="52" yMin="0" xMax="548" yMax="972">
      <component glyphName="N" x="0" y="0" flags="0x0"/>
      <component glyphName="acute.case.loclPLK" x="48" y="0" flags="0x0"/>
    </TTGlyph>
    <TTGlyph name="Ncaron" xMin="52" yMin="0" xMax="548" yMax="946">
      <component glyphName="N" x="0" y="0" flags="0x0"/>
      <component glyphName="caron.case" x="10" y="0" flags="0x0"/>
    </TTGlyph>
    <TTGlyph name="Ncommaaccent" xMin="52" yMin="-322" xMax="548" yMax="693">
      <component glyphName="N" x="0" y="0" flags="0x0"/>
      <component glyphName="uni0326.case" x="0" y="0" flags="0x0"/>
    </TTGlyph>
    <TTGlyph name="Ntilde" xMin="52" yMin="0" xMax="548" yMax="914">
      <component glyphName="N" x="0" y="0" flags="0x0"/>
      <component glyphName="tilde.case" x="5" y="0" flags="0x0"/>
    </TTGlyph>
    <TTGlyph name="Nu" xMin="52" yMin="0" xMax="548" yMax="693">
      <component glyphName="N" x="0" y="0" flags="0x0"/>
    </TTGlyph>
    <TTGlyph name="O" xMin="23" yMin="-17" xMax="577" yMax="711">
      <contour>
        <pt x="577" y="178" on="0"/>
        <pt x="434" y="-17" on="0"/>
        <pt x="300" y="-17" on="1"/>
        <pt x="165" y="-17" on="0"/>
        <pt x="23" y="176" on="0"/>
        <pt x="23" y="347" on="1"/>
        <pt x="23" y="516" on="0"/>
        <pt x="166" y="711" on="0"/>
        <pt x="300" y="711" on="1"/>
        <pt x="435" y="711" on="0"/>
        <pt x="577" y="518" on="0"/>
        <pt x="577" y="347" on="1"/>
      </contour>
      <contour>
        <pt x="410" y="475" on="0"/>
        <pt x="358" y="591" on="0"/>
        <pt x="300" y="591" on="1"/>
        <pt x="242" y="591" on="0"/>
        <pt x="190" y="475" on="0"/>
        <pt x="190" y="347" on="1"/>
        <pt x="190" y="219" on="0"/>
        <pt x="242" y="103" on="0"/>
        <pt x="300" y="103" on="1"/>
        <pt x="359" y="103" on="0"/>
        <pt x="410" y="219" on="0"/>
        <pt x="410" y="347" on="1"/>
      </contour>
    </TTGlyph>
    <TTGlyph name="OE" xMin="10" yMin="-17" xMax="597" yMax="711">
      <contour>
        <pt x="250" y="711" on="0"/>
        <pt x="292" y="702" on="0"/>
        <pt x="320" y="693" on="1"/>
        <pt x="596" y="693" on="1"/>
        <pt x="580" y="582" on="1"/>
        <pt x="398" y="582" on="1"/>
        <pt x="430" y="518" on="0"/>
        <pt x="436" y="406" on="1"/>
        <pt x="558" y="406" on="1"/>
        <pt x="558" y="296" on="1"/>
        <pt x="437" y="296" on="1"/>
        <pt x="431" y="183" on="0"/>
        <pt x="393" y="111" on="1"/>
        <pt x="597" y="111" on="1"/>
        <pt x="597" y="0" on="1"/>
        <pt x="316" y="0" on="1"/>
        <pt x="288" y="-9" on="0"/>
        <pt x="249" y="-17" on="0"/>
        <pt x="225" y="-17" on="1"/>
        <pt x="113" y="-17" on="0"/>
        <pt x="10" y="168" on="0"/>
        <pt x="10" y="347" on="1"/>
        <pt x="10" y="711" on="0"/>
        <pt x="225" y="711" on="1"/>
      </contour>
      <contour>
        <pt x="196" y="599" on="0"/>
        <pt x="163" y="550" on="0"/>
        <pt x="149" y="441" on="0"/>
        <pt x="149" y="347" on="1"/>
        <pt x="149" y="210" on="0"/>
        <pt x="184" y="94" on="0"/>
        <pt x="226" y="94" on="1"/>
        <pt x="269" y="94" on="0"/>
        <pt x="304" y="209" on="0"/>
        <pt x="304" y="347" on="1"/>
        <pt x="304" y="443" on="0"/>
        <pt x="290" y="551" on="0"/>
        <pt x="256" y="599" on="0"/>
        <pt x="226" y="599" on="1"/>
      </contour>
    </TTGlyph>
    <TTGlyph name="Oacute" xMin="23" yMin="-17" xMax="577" yMax="953">
      <component glyphName="O" x="0" y="0" flags="0x0"/>
      <component glyphName="acute.case" x="-5" y="0" flags="0x0"/>
    </TTGlyph>
    <TTGlyph name="Oacute.loclPLK" xMin="23" yMin="-17" xMax="577" yMax="972">
      <component glyphName="O" x="0" y="0" flags="0x0"/>
      <component glyphName="acute.case.loclPLK" x="38" y="0" flags="0x0"/>
    </TTGlyph>
    <TTGlyph name="Obreve" xMin="23" yMin="-17" xMax="577" yMax="921">
      <component glyphName="O" x="0" y="0" flags="0x0"/>
      <component glyphName="breve.case" x="0" y="0" flags="0x0"/>
    </TTGlyph>
    <TTGlyph name="Ocircumflex" xMin="23" yMin="-17" xMax="577" yMax="943">
      <component glyphName="O" x="0" y="0" flags="0x0"/>
      <component glyphName="circumflex.case" x="0" y="0" flags="0x0"/>
    </TTGlyph>
    <TTGlyph name="Odieresis" xMin="23" yMin="-17" xMax="577" yMax="922">
      <component glyphName="O" x="0" y="0" flags="0x0"/>
      <component glyphName="dieresis.case" x="-5" y="0" flags="0x0"/>
    </TTGlyph>
    <TTGlyph name="Ograve" xMin="23" yMin="-17" xMax="577" yMax="953">
      <component glyphName="O" x="0" y="0" flags="0x0"/>
      <component glyphName="grave.case" x="-5" y="0" flags="0x0"/>
    </TTGlyph>
    <TTGlyph name="Ohungarumlaut" xMin="23" yMin="-17" xMax="577" yMax="982">
      <component glyphName="O" x="0" y="0" flags="0x0"/>
      <component glyphName="hungarumlaut.case" x="39" y="0" flags="0x0"/>
    </TTGlyph>
    <TTGlyph name="Omacron" xMin="23" yMin="-17" xMax="577" yMax="892">
      <component glyphName="O" x="0" y="0" flags="0x0"/>
      <component glyphName="macron.case" x="-5" y="0" flags="0x0"/>
    </TTGlyph>
    <TTGlyph name="Omega" xMin="23" yMin="0" xMax="577" yMax="711">
      <contour>
        <pt x="243" y="590" on="0"/>
        <pt x="190" y="486" on="0"/>
        <pt x="190" y="377" on="1"/>
        <pt x="190" y="264" on="0"/>
        <pt x="229" y="141" on="0"/>
        <pt x="273" y="114" on="1"/>
        <pt x="273" y="0" on="1"/>
        <pt x="34" y="0" on="1"/>
        <pt x="34" y="117" on="1"/>
        <pt x="143" y="117" on="1"/>
        <pt x="143" y="121" on="1"/>
        <pt x="23" y="183" on="0"/>
        <pt x="23" y="377" on="1"/>
        <pt x="23" y="474" on="0"/>
        <pt x="88" y="625" on="0"/>
        <pt x="213" y="711" on="0"/>
        <pt x="300" y="711" on="1"/>
        <pt x="387" y="711" on="0"/>
        <pt x="512" y="625" on="0"/>
        <pt x="577" y="474" on="0"/>
        <pt x="577" y="377" on="1"/>
        <pt x="577" y="185" on="0"/>
        <pt x="456" y="121" on="1"/>
        <pt x="456" y="117" on="1"/>
        <pt x="566" y="117" on="1"/>
        <pt x="566" y="0" on="1"/>
        <pt x="327" y="0" on="1"/>
        <pt x="327" y="114" on="1"/>
        <pt x="372" y="140" on="0"/>
        <pt x="410" y="263" on="0"/>
        <pt x="410" y="377" on="1"/>
        <pt x="410" y="486" on="0"/>
        <pt x="357" y="590" on="0"/>
        <pt x="300" y="590" on="1"/>
      </contour>
    </TTGlyph>
    <TTGlyph name="Omegatonos" xMin="-134" yMin="0" xMax="577" yMax="720">
      <component glyphName="Omega" x="0" y="0" flags="0x0"/>
      <component glyphName="tonos.case" x="-325" y="0" flags="0x0"/>
    </TTGlyph>
    <TTGlyph name="Omicron" xMin="23" yMin="-17" xMax="577" yMax="711">
      <contour>
        <pt x="577" y="178" on="0"/>
        <pt x="434" y="-17" on="0"/>
        <pt x="300" y="-17" on="1"/>
        <pt x="165" y="-17" on="0"/>
        <pt x="23" y="176" on="0"/>
        <pt x="23" y="347" on="1"/>
        <pt x="23" y="516" on="0"/>
        <pt x="166" y="711" on="0"/>
        <pt x="300" y="711" on="1"/>
        <pt x="435" y="711" on="0"/>
        <pt x="577" y="518" on="0"/>
        <pt x="577" y="347" on="1"/>
      </contour>
      <contour>
        <pt x="410" y="475" on="0"/>
        <pt x="358" y="591" on="0"/>
        <pt x="300" y="591" on="1"/>
        <pt x="242" y="591" on="0"/>
        <pt x="190" y="475" on="0"/>
        <pt x="190" y="347" on="1"/>
        <pt x="190" y="219" on="0"/>
        <pt x="242" y="103" on="0"/>
        <pt x="300" y="103" on="1"/>
        <pt x="359" y="103" on="0"/>
        <pt x="410" y="219" on="0"/>
        <pt x="410" y="347" on="1"/>
      </contour>
    </TTGlyph>
    <TTGlyph name="Omicrontonos" xMin="-133" yMin="-17" xMax="577" yMax="720">
      <component glyphName="O" x="0" y="0" flags="0x0"/>
      <component glyphName="tonos.case" x="-324" y="0" flags="0x0"/>
    </TTGlyph>
    <TTGlyph name="Oslash" xMin="23" yMin="-109" xMax="577" yMax="803">
      <contour>
        <pt x="514" y="616" on="0"/>
        <pt x="577" y="455" on="0"/>
        <pt x="577" y="347" on="1"/>
        <pt x="577" y="178" on="0"/>
        <pt x="434" y="-17" on="0"/>
        <pt x="300" y="-17" on="1"/>
        <pt x="276" y="-17" on="0"/>
        <pt x="248" y="-12" on="1"/>
        <pt x="220" y="-109" on="1"/>
        <pt x="109" y="-76" on="1"/>
        <pt x="143" y="34" on="1"/>
        <pt x="85" y="78" on="0"/>
        <pt x="23" y="239" on="0"/>
        <pt x="23" y="347" on="1"/>
        <pt x="23" y="516" on="0"/>
        <pt x="166" y="711" on="0"/>
        <pt x="300" y="711" on="1"/>
        <pt x="324" y="711" on="0"/>
        <pt x="352" y="706" on="1"/>
        <pt x="381" y="803" on="1"/>
        <pt x="491" y="770" on="1"/>
        <pt x="456" y="661" on="1"/>
      </contour>
      <contour>
        <pt x="239" y="594" on="0"/>
        <pt x="185" y="477" on="0"/>
        <pt x="185" y="347" on="1"/>
        <pt x="185" y="224" on="0"/>
        <pt x="208" y="166" on="1"/>
        <pt x="332" y="590" on="1"/>
        <pt x="319" y="594" on="0"/>
        <pt x="300" y="594" on="1"/>
      </contour>
      <contour>
        <pt x="362" y="100" on="0"/>
        <pt x="415" y="217" on="0"/>
        <pt x="415" y="347" on="1"/>
        <pt x="415" y="467" on="0"/>
        <pt x="393" y="526" on="1"/>
        <pt x="270" y="104" on="1"/>
        <pt x="282" y="100" on="0"/>
        <pt x="300" y="100" on="1"/>
      </contour>
    </TTGlyph>
    <TTGlyph name="Oslashacute" xMin="23" yMin="-109" xMax="577" yMax="953">
      <component glyphName="Oslash" x="0" y="0" flags="0x0"/>
      <component glyphName="acute.case" x="-5" y="0" flags="0x0"/>
    </TTGlyph>
    <TTGlyph name="Otilde" xMin="23" yMin="-17" xMax="577" yMax="914">
      <component glyphName="O" x="0" y="0" flags="0x0"/>
      <component glyphName="tilde.case" x="-5" y="0" flags="0x0"/>
    </TTGlyph>
    <TTGlyph name="P" xMin="63" yMin="0" xMax="576" yMax="693">
      <contour>
        <pt x="576" y="350" on="0"/>
        <pt x="429" y="231" on="0"/>
        <pt x="302" y="231" on="1"/>
        <pt x="226" y="231" on="1"/>
        <pt x="226" y="0" on="1"/>
        <pt x="63" y="0" on="1"/>
        <pt x="63" y="693" on="1"/>
        <pt x="280" y="693" on="1"/>
        <pt x="424" y="693" on="0"/>
        <pt x="576" y="580" on="0"/>
        <pt x="576" y="467" on="1"/>
      </contour>
      <contour>
        <pt x="408" y="576" on="0"/>
        <pt x="283" y="576" on="1"/>
        <pt x="226" y="576" on="1"/>
        <pt x="226" y="349" on="1"/>
        <pt x="291" y="349" on="1"/>
        <pt x="347" y="349" on="0"/>
        <pt x="408" y="407" on="0"/>
        <pt x="408" y="467" on="1"/>
      </contour>
    </TTGlyph>
    <TTGlyph name="Phi" xMin="4" yMin="0" xMax="596" yMax="693">
      <contour>
        <pt x="477" y="609" on="0"/>
        <pt x="596" y="483" on="0"/>
        <pt x="596" y="350" on="1"/>
        <pt x="596" y="217" on="0"/>
        <pt x="476" y="84" on="0"/>
        <pt x="357" y="80" on="1"/>
        <pt x="357" y="0" on="1"/>
        <pt x="243" y="0" on="1"/>
        <pt x="243" y="80" on="1"/>
        <pt x="121" y="84" on="0"/>
        <pt x="4" y="216" on="0"/>
        <pt x="4" y="350" on="1"/>
        <pt x="4" y="484" on="0"/>
        <pt x="120" y="609" on="0"/>
        <pt x="243" y="614" on="1"/>
        <pt x="243" y="693" on="1"/>
        <pt x="357" y="693" on="1"/>
        <pt x="357" y="614" on="1"/>
      </contour>
      <contour>
        <pt x="196" y="525" on="0"/>
        <pt x="149" y="440" on="0"/>
        <pt x="149" y="350" on="1"/>
        <pt x="149" y="259" on="0"/>
        <pt x="194" y="171" on="0"/>
        <pt x="253" y="170" on="1"/>
        <pt x="253" y="526" on="1"/>
      </contour>
      <contour>
        <pt x="406" y="171" on="0"/>
        <pt x="451" y="259" on="0"/>
        <pt x="451" y="350" on="1"/>
        <pt x="451" y="439" on="0"/>
        <pt x="404" y="525" on="0"/>
        <pt x="347" y="526" on="1"/>
        <pt x="347" y="170" on="1"/>
      </contour>
    </TTGlyph>
    <TTGlyph name="Pi" xMin="52" yMin="0" xMax="548" yMax="693">
      <component glyphName="uni041F" x="0" y="0" flags="0x0"/>
    </TTGlyph>
    <TTGlyph name="Psi" xMin="11" yMin="0" xMax="589" yMax="693">
      <contour>
        <pt x="11" y="213" on="0"/>
        <pt x="11" y="423" on="1"/>
        <pt x="11" y="693" on="1"/>
        <pt x="150" y="693" on="1"/>
        <pt x="150" y="419" on="1"/>
        <pt x="150" y="357" on="0"/>
        <pt x="185" y="298" on="0"/>
        <pt x="239" y="288" on="1"/>
        <pt x="239" y="693" on="1"/>
        <pt x="362" y="693" on="1"/>
        <pt x="362" y="289" on="1"/>
        <pt x="414" y="300" on="0"/>
        <pt x="450" y="358" on="0"/>
        <pt x="450" y="419" on="1"/>
        <pt x="450" y="693" on="1"/>
        <pt x="589" y="693" on="1"/>
        <pt x="589" y="423" on="1"/>
        <pt x="589" y="323" on="0"/>
        <pt x="481" y="200" on="0"/>
        <pt x="372" y="184" on="1"/>
        <pt x="372" y="0" on="1"/>
        <pt x="228" y="0" on="1"/>
        <pt x="228" y="183" on="1"/>
      </contour>
    </TTGlyph>
    <TTGlyph name="Q" xMin="32" yMin="-173" xMax="634" yMax="711">
      <contour>
        <pt x="574" y="115" on="0"/>
        <pt x="432" y="40" on="1"/>
        <pt x="514" y="26" on="0"/>
        <pt x="606" y="-47" on="0"/>
        <pt x="634" y="-127" on="1"/>
        <pt x="500" y="-173" on="1"/>
        <pt x="476" y="-116" on="0"/>
        <pt x="426" y="-49" on="0"/>
        <pt x="349" y="-14" on="0"/>
        <pt x="290" y="-14" on="1"/>
        <pt x="162" y="-14" on="0"/>
        <pt x="32" y="175" on="0"/>
        <pt x="32" y="347" on="1"/>
        <pt x="32" y="517" on="0"/>
        <pt x="170" y="711" on="0"/>
        <pt x="303" y="711" on="1"/>
        <pt x="436" y="711" on="0"/>
        <pt x="574" y="519" on="0"/>
        <pt x="574" y="347" on="1"/>
      </contour>
      <contour>
        <pt x="404" y="435" on="0"/>
        <pt x="386" y="540" on="0"/>
        <pt x="342" y="590" on="0"/>
        <pt x="303" y="590" on="1"/>
        <pt x="264" y="590" on="0"/>
        <pt x="220" y="539" on="0"/>
        <pt x="202" y="434" on="0"/>
        <pt x="202" y="347" on="1"/>
        <pt x="202" y="259" on="0"/>
        <pt x="221" y="154" on="0"/>
        <pt x="265" y="103" on="0"/>
        <pt x="303" y="103" on="1"/>
        <pt x="343" y="103" on="0"/>
        <pt x="386" y="154" on="0"/>
        <pt x="404" y="259" on="0"/>
        <pt x="404" y="347" on="1"/>
      </contour>
    </TTGlyph>
    <TTGlyph name="R" xMin="58" yMin="0" xMax="604" yMax="693">
      <contour>
        <pt x="561" y="412" on="0"/>
        <pt x="485" y="317" on="0"/>
        <pt x="422" y="292" on="1"/>
        <pt x="604" y="0" on="1"/>
        <pt x="419" y="0" on="1"/>
        <pt x="268" y="265" on="1"/>
        <pt x="222" y="265" on="1"/>
        <pt x="222" y="0" on="1"/>
        <pt x="58" y="0" on="1"/>
        <pt x="58" y="693" on="1"/>
        <pt x="276" y="693" on="1"/>
        <pt x="419" y="693" on="0"/>
        <pt x="561" y="589" on="0"/>
        <pt x="561" y="482" on="1"/>
      </contour>
      <contour>
        <pt x="393" y="532" on="0"/>
        <pt x="335" y="578" on="0"/>
        <pt x="276" y="578" on="1"/>
        <pt x="222" y="578" on="1"/>
        <pt x="222" y="378" on="1"/>
        <pt x="283" y="378" on="1"/>
        <pt x="337" y="378" on="0"/>
        <pt x="393" y="428" on="0"/>
        <pt x="393" y="482" on="1"/>
      </contour>
    </TTGlyph>
    <TTGlyph name="Racute" xMin="58" yMin="0" xMax="604" yMax="953">
      <component glyphName="R" x="0" y="0" flags="0x0"/>
      <component glyphName="acute.case" x="-5" y="0" flags="0x0"/>
    </TTGlyph>
    <TTGlyph name="Rcaron" xMin="58" yMin="0" xMax="604" yMax="946">
      <component glyphName="R" x="0" y="0" flags="0x0"/>
      <component glyphName="caron.case" x="0" y="0" flags="0x0"/>
    </TTGlyph>
    <TTGlyph name="Rcommaaccent" xMin="58" yMin="-322" xMax="604" yMax="693">
      <component glyphName="R" x="0" y="0" flags="0x0"/>
      <component glyphName="uni0326.case" x="10" y="0" flags="0x0"/>
    </TTGlyph>
    <TTGlyph name="Rho" xMin="63" yMin="0" xMax="576" yMax="693">
      <component glyphName="P" x="0" y="0" flags="0x0"/>
    </TTGlyph>
    <TTGlyph name="S" xMin="12" yMin="-17" xMax="568" yMax="711">
      <contour>
        <pt x="568" y="138" on="0"/>
        <pt x="500" y="38" on="0"/>
        <pt x="373" y="-17" on="0"/>
        <pt x="286" y="-17" on="1"/>
        <pt x="114" y="-17" on="0"/>
        <pt x="12" y="83" on="1"/>
        <pt x="95" y="175" on="1"/>
        <pt x="174" y="105" on="0"/>
        <pt x="282" y="105" on="1"/>
        <pt x="335" y="105" on="0"/>
        <pt x="398" y="150" on="0"/>
        <pt x="398" y="190" on="1"/>
        <pt x="398" y="227" on="0"/>
        <pt x="344" y="271" on="0"/>
        <pt x="272" y="293" on="1"/>
        <pt x="151" y="330" on="0"/>
        <pt x="48" y="430" on="0"/>
        <pt x="48" y="509" on="1"/>
        <pt x="48" y="571" on="0"/>
        <pt x="117" y="663" on="0"/>
        <pt x="236" y="711" on="0"/>
        <pt x="309" y="711" on="1"/>
        <pt x="462" y="711" on="0"/>
        <pt x="557" y="621" on="1"/>
        <pt x="480" y="532" on="1"/>
        <pt x="445" y="561" on="0"/>
        <pt x="364" y="590" on="0"/>
        <pt x="321" y="590" on="1"/>
        <pt x="273" y="590" on="0"/>
        <pt x="217" y="555" on="0"/>
        <pt x="217" y="522" on="1"/>
        <pt x="217" y="500" on="0"/>
        <pt x="242" y="470" on="0"/>
        <pt x="301" y="444" on="0"/>
        <pt x="359" y="426" on="1"/>
        <pt x="466" y="393" on="0"/>
        <pt x="568" y="293" on="0"/>
        <pt x="568" y="203" on="1"/>
      </contour>
    </TTGlyph>
    <TTGlyph name="Sacute" xMin="12" yMin="-17" xMax="568" yMax="953">
      <component glyphName="S" x="0" y="0" flags="0x0"/>
      <component glyphName="acute.case" x="5" y="0" flags="0x0"/>
    </TTGlyph>
    <TTGlyph name="Sacute.loclPLK" xMin="12" yMin="-17" xMax="568" yMax="972">
      <component glyphName="S" x="0" y="0" flags="0x0"/>
      <component glyphName="acute.case.loclPLK" x="48" y="0" flags="0x0"/>
    </TTGlyph>
    <TTGlyph name="Scaron" xMin="12" yMin="-17" xMax="568" yMax="946">
      <component glyphName="S" x="0" y="0" flags="0x0"/>
      <component glyphName="caron.case" x="10" y="0" flags="0x0"/>
    </TTGlyph>
    <TTGlyph name="Scedilla" xMin="12" yMin="-262" xMax="568" yMax="711">
      <contour>
        <pt x="568" y="113" on="0"/>
        <pt x="442" y="-5" on="0"/>
        <pt x="330" y="-15" on="1"/>
        <pt x="330" y="-48" on="1"/>
        <pt x="381" y="-54" on="0"/>
        <pt x="433" y="-106" on="0"/>
        <pt x="433" y="-147" on="1"/>
        <pt x="433" y="-198" on="0"/>
        <pt x="351" y="-262" on="0"/>
        <pt x="284" y="-262" on="1"/>
        <pt x="250" y="-262" on="0"/>
        <pt x="190" y="-244" on="0"/>
        <pt x="167" y="-231" on="1"/>
        <pt x="203" y="-159" on="1"/>
        <pt x="237" y="-176" on="0"/>
        <pt x="267" y="-176" on="1"/>
        <pt x="320" y="-176" on="0"/>
        <pt x="320" y="-145" on="1"/>
        <pt x="320" y="-126" on="0"/>
        <pt x="276" y="-112" on="0"/>
        <pt x="228" y="-112" on="1"/>
        <pt x="239" y="-15" on="1"/>
        <pt x="100" y="-3" on="0"/>
        <pt x="12" y="83" on="1"/>
        <pt x="95" y="175" on="1"/>
        <pt x="174" y="105" on="0"/>
        <pt x="282" y="105" on="1"/>
        <pt x="335" y="105" on="0"/>
        <pt x="398" y="150" on="0"/>
        <pt x="398" y="190" on="1"/>
        <pt x="398" y="227" on="0"/>
        <pt x="344" y="271" on="0"/>
        <pt x="272" y="293" on="1"/>
        <pt x="151" y="330" on="0"/>
        <pt x="48" y="430" on="0"/>
        <pt x="48" y="509" on="1"/>
        <pt x="48" y="571" on="0"/>
        <pt x="117" y="663" on="0"/>
        <pt x="236" y="711" on="0"/>
        <pt x="309" y="711" on="1"/>
        <pt x="462" y="711" on="0"/>
        <pt x="557" y="621" on="1"/>
        <pt x="480" y="532" on="1"/>
        <pt x="445" y="561" on="0"/>
        <pt x="364" y="590" on="0"/>
        <pt x="321" y="590" on="1"/>
        <pt x="273" y="590" on="0"/>
        <pt x="217" y="555" on="0"/>
        <pt x="217" y="522" on="1"/>
        <pt x="217" y="500" on="0"/>
        <pt x="242" y="470" on="0"/>
        <pt x="301" y="444" on="0"/>
        <pt x="359" y="426" on="1"/>
        <pt x="466" y="393" on="0"/>
        <pt x="568" y="293" on="0"/>
        <pt x="568" y="203" on="1"/>
      </contour>
    </TTGlyph>
    <TTGlyph name="Scircumflex" xMin="12" yMin="-17" xMax="568" yMax="943">
      <component glyphName="S" x="0" y="0" flags="0x0"/>
      <component glyphName="circumflex.case" x="10" y="0" flags="0x0"/>
    </TTGlyph>
    <TTGlyph name="Scommaaccent" xMin="12" yMin="-322" xMax="568" yMax="711">
      <component glyphName="S" x="0" y="0" flags="0x0"/>
      <component glyphName="uni0326.case" x="0" y="0" flags="0x0"/>
    </TTGlyph>
    <TTGlyph name="Sigma" xMin="55" yMin="0" xMax="545" yMax="693">
      <contour>
        <pt x="545" y="122" on="1"/>
        <pt x="545" y="0" on="1"/>
        <pt x="55" y="0" on="1"/>
        <pt x="55" y="119" on="1"/>
        <pt x="267" y="341" on="1"/>
        <pt x="55" y="574" on="1"/>
        <pt x="55" y="693" on="1"/>
        <pt x="545" y="693" on="1"/>
        <pt x="545" y="574" on="1"/>
        <pt x="236" y="574" on="1"/>
        <pt x="422" y="376" on="1"/>
        <pt x="422" y="311" on="1"/>
        <pt x="234" y="122" on="1"/>
      </contour>
    </TTGlyph>
    <TTGlyph name="T" xMin="23" yMin="0" xMax="583" yMax="693">
      <contour>
        <pt x="217" y="0" on="1"/>
        <pt x="217" y="567" on="1"/>
        <pt x="23" y="567" on="1"/>
        <pt x="23" y="693" on="1"/>
        <pt x="583" y="693" on="1"/>
        <pt x="567" y="567" on="1"/>
        <pt x="381" y="567" on="1"/>
        <pt x="381" y="0" on="1"/>
      </contour>
    </TTGlyph>
    <TTGlyph name="Tau" xMin="23" yMin="0" xMax="583" yMax="693">
      <component glyphName="T" x="0" y="0" flags="0x0"/>
    </TTGlyph>
    <TTGlyph name="Tbar" xMin="23" yMin="0" xMax="583" yMax="693">
      <contour>
        <pt x="381" y="406" on="1"/>
        <pt x="498" y="406" on="1"/>
        <pt x="498" y="314" on="1"/>
        <pt x="381" y="314" on="1"/>
        <pt x="381" y="0" on="1"/>
        <pt x="217" y="0" on="1"/>
        <pt x="217" y="314" on="1"/>
        <pt x="101" y="314" on="1"/>
        <pt x="101" y="406" on="1"/>
        <pt x="217" y="406" on="1"/>
        <pt x="217" y="567" on="1"/>
        <pt x="23" y="567" on="1"/>
        <pt x="23" y="693" on="1"/>
        <pt x="583" y="693" on="1"/>
        <pt x="567" y="567" on="1"/>
        <pt x="381" y="567" on="1"/>
      </contour>
    </TTGlyph>
    <TTGlyph name="Tcaron" xMin="23" yMin="0" xMax="583" yMax="946">
      <component glyphName="T" x="0" y="0" flags="0x0"/>
      <component glyphName="caron.case" x="-1" y="0" flags="0x0"/>
    </TTGlyph>
    <TTGlyph name="Tcedilla" xMin="23" yMin="-262" xMax="583" yMax="693">
      <contour>
        <pt x="346" y="-48" on="1"/>
        <pt x="397" y="-54" on="0"/>
        <pt x="450" y="-106" on="0"/>
        <pt x="450" y="-147" on="1"/>
        <pt x="450" y="-198" on="0"/>
        <pt x="368" y="-262" on="0"/>
        <pt x="301" y="-262" on="1"/>
        <pt x="267" y="-262" on="0"/>
        <pt x="205" y="-244" on="0"/>
        <pt x="183" y="-231" on="1"/>
        <pt x="220" y="-159" on="1"/>
        <pt x="254" y="-176" on="0"/>
        <pt x="284" y="-176" on="1"/>
        <pt x="336" y="-176" on="0"/>
        <pt x="336" y="-145" on="1"/>
        <pt x="336" y="-126" on="0"/>
        <pt x="292" y="-112" on="0"/>
        <pt x="245" y="-112" on="1"/>
        <pt x="256" y="0" on="1"/>
        <pt x="217" y="0" on="1"/>
        <pt x="217" y="567" on="1"/>
        <pt x="23" y="567" on="1"/>
        <pt x="23" y="693" on="1"/>
        <pt x="583" y="693" on="1"/>
        <pt x="567" y="567" on="1"/>
        <pt x="381" y="567" on="1"/>
        <pt x="381" y="0" on="1"/>
        <pt x="346" y="0" on="1"/>
      </contour>
    </TTGlyph>
    <TTGlyph name="Theta" xMin="23" yMin="-17" xMax="577" yMax="711">
      <contour>
        <pt x="577" y="178" on="0"/>
        <pt x="434" y="-17" on="0"/>
        <pt x="300" y="-17" on="1"/>
        <pt x="165" y="-17" on="0"/>
        <pt x="23" y="176" on="0"/>
        <pt x="23" y="347" on="1"/>
        <pt x="23" y="516" on="0"/>
        <pt x="166" y="711" on="0"/>
        <pt x="300" y="711" on="1"/>
        <pt x="435" y="711" on="0"/>
        <pt x="577" y="518" on="0"/>
        <pt x="577" y="347" on="1"/>
      </contour>
      <contour>
        <pt x="415" y="475" on="0"/>
        <pt x="359" y="591" on="0"/>
        <pt x="300" y="591" on="1"/>
        <pt x="241" y="591" on="0"/>
        <pt x="185" y="476" on="0"/>
        <pt x="185" y="347" on="1"/>
        <pt x="185" y="219" on="0"/>
        <pt x="241" y="103" on="0"/>
        <pt x="300" y="103" on="1"/>
        <pt x="360" y="103" on="0"/>
        <pt x="415" y="218" on="0"/>
        <pt x="415" y="347" on="1"/>
      </contour>
      <contour>
        <pt x="224" y="398" on="1"/>
        <pt x="375" y="398" on="1"/>
        <pt x="375" y="307" on="1"/>
        <pt x="224" y="307" on="1"/>
      </contour>
    </TTGlyph>
    <TTGlyph name="Thorn" xMin="59" yMin="0" xMax="576" yMax="693">
      <contour>
        <pt x="279" y="581" on="1"/>
        <pt x="422" y="581" on="0"/>
        <pt x="576" y="467" on="0"/>
        <pt x="576" y="354" on="1"/>
        <pt x="576" y="234" on="0"/>
        <pt x="433" y="116" on="0"/>
        <pt x="301" y="116" on="1"/>
        <pt x="224" y="116" on="1"/>
        <pt x="224" y="0" on="1"/>
        <pt x="59" y="0" on="1"/>
        <pt x="59" y="693" on="1"/>
        <pt x="224" y="693" on="1"/>
        <pt x="224" y="581" on="1"/>
      </contour>
      <contour>
        <pt x="224" y="235" on="1"/>
        <pt x="290" y="235" on="1"/>
        <pt x="347" y="235" on="0"/>
        <pt x="406" y="290" on="0"/>
        <pt x="406" y="353" on="1"/>
        <pt x="406" y="410" on="0"/>
        <pt x="345" y="464" on="0"/>
        <pt x="284" y="464" on="1"/>
        <pt x="224" y="464" on="1"/>
      </contour>
    </TTGlyph>
    <TTGlyph name="U" xMin="42" yMin="-17" xMax="558" yMax="693">
      <contour>
        <pt x="558" y="160" on="0"/>
        <pt x="500" y="47" on="0"/>
        <pt x="384" y="-17" on="0"/>
        <pt x="300" y="-17" on="1"/>
        <pt x="174" y="-17" on="0"/>
        <pt x="42" y="117" on="0"/>
        <pt x="42" y="232" on="1"/>
        <pt x="42" y="693" on="1"/>
        <pt x="207" y="693" on="1"/>
        <pt x="207" y="293" on="1"/>
        <pt x="207" y="225" on="0"/>
        <pt x="221" y="146" on="0"/>
        <pt x="261" y="105" on="0"/>
        <pt x="300" y="105" on="1"/>
        <pt x="339" y="105" on="0"/>
        <pt x="379" y="146" on="0"/>
        <pt x="393" y="225" on="0"/>
        <pt x="393" y="293" on="1"/>
        <pt x="393" y="693" on="1"/>
        <pt x="558" y="693" on="1"/>
        <pt x="558" y="232" on="1"/>
      </contour>
    </TTGlyph>
    <TTGlyph name="Uacute" xMin="42" yMin="-17" xMax="558" yMax="953">
      <component glyphName="U" x="0" y="0" flags="0x0"/>
      <component glyphName="acute.case" x="-5" y="0" flags="0x0"/>
    </TTGlyph>
    <TTGlyph name="Ubreve" xMin="42" yMin="-17" xMax="558" yMax="921">
      <component glyphName="U" x="0" y="0" flags="0x0"/>
      <component glyphName="breve.case" x="0" y="0" flags="0x0"/>
    </TTGlyph>
    <TTGlyph name="Ucircumflex" xMin="42" yMin="-17" xMax="558" yMax="943">
      <component glyphName="U" x="0" y="0" flags="0x0"/>
      <component glyphName="circumflex.case" x="0" y="0" flags="0x0"/>
    </TTGlyph>
    <TTGlyph name="Udieresis" xMin="42" yMin="-17" xMax="558" yMax="922">
      <component glyphName="U" x="0" y="0" flags="0x0"/>
      <component glyphName="dieresis.case" x="-5" y="0" flags="0x0"/>
    </TTGlyph>
    <TTGlyph name="Ugrave" xMin="42" yMin="-17" xMax="558" yMax="953">
      <component glyphName="U" x="0" y="0" flags="0x0"/>
      <component glyphName="grave.case" x="-5" y="0" flags="0x0"/>
    </TTGlyph>
    <TTGlyph name="Uhungarumlaut" xMin="42" yMin="-17" xMax="558" yMax="982">
      <component glyphName="U" x="0" y="0" flags="0x0"/>
      <component glyphName="hungarumlaut.case" x="39" y="0" flags="0x0"/>
    </TTGlyph>
    <TTGlyph name="Umacron" xMin="42" yMin="-17" xMax="558" yMax="892">
      <component glyphName="U" x="0" y="0" flags="0x0"/>
      <component glyphName="macron.case" x="-5" y="0" flags="0x0"/>
    </TTGlyph>
    <TTGlyph name="Uogonek" xMin="42" yMin="-253" xMax="558" yMax="693">
      <contour>
        <pt x="558" y="232" on="1"/>
        <pt x="558" y="143" on="0"/>
        <pt x="472" y="17" on="0"/>
        <pt x="389" y="-6" on="1"/>
        <pt x="333" y="-27" on="0"/>
        <pt x="290" y="-78" on="0"/>
        <pt x="290" y="-110" on="1"/>
        <pt x="290" y="-134" on="0"/>
        <pt x="321" y="-159" on="0"/>
        <pt x="348" y="-159" on="1"/>
        <pt x="372" y="-159" on="0"/>
        <pt x="402" y="-152" on="1"/>
        <pt x="390" y="-245" on="1"/>
        <pt x="361" y="-253" on="0"/>
        <pt x="331" y="-253" on="1"/>
        <pt x="265" y="-253" on="0"/>
        <pt x="180" y="-188" on="0"/>
        <pt x="180" y="-130" on="1"/>
        <pt x="180" y="-56" on="0"/>
        <pt x="241" y="-13" on="1"/>
        <pt x="143" y="2" on="0"/>
        <pt x="42" y="132" on="0"/>
        <pt x="42" y="232" on="1"/>
        <pt x="42" y="693" on="1"/>
        <pt x="207" y="693" on="1"/>
        <pt x="207" y="293" on="1"/>
        <pt x="207" y="225" on="0"/>
        <pt x="221" y="146" on="0"/>
        <pt x="261" y="105" on="0"/>
        <pt x="300" y="105" on="1"/>
        <pt x="339" y="105" on="0"/>
        <pt x="379" y="146" on="0"/>
        <pt x="393" y="225" on="0"/>
        <pt x="393" y="293" on="1"/>
        <pt x="393" y="693" on="1"/>
        <pt x="558" y="693" on="1"/>
      </contour>
    </TTGlyph>
    <TTGlyph name="Upsilon" xMin="-8" yMin="0" xMax="608" yMax="693">
      <contour>
        <pt x="218" y="0" on="1"/>
        <pt x="218" y="259" on="1"/>
        <pt x="-8" y="693" on="1"/>
        <pt x="171" y="693" on="1"/>
        <pt x="303" y="394" on="1"/>
        <pt x="436" y="693" on="1"/>
        <pt x="608" y="693" on="1"/>
        <pt x="382" y="260" on="1"/>
        <pt x="382" y="0" on="1"/>
      </contour>
    </TTGlyph>
    <TTGlyph name="Upsilondieresis" xMin="-8" yMin="0" xMax="608" yMax="922">
      <component glyphName="Y" x="0" y="0" flags="0x0"/>
      <component glyphName="dieresis.case" x="-5" y="0" flags="0x0"/>
    </TTGlyph>
    <TTGlyph name="Upsilontonos" xMin="-244" yMin="0" xMax="608" yMax="720">
      <component glyphName="Y" x="0" y="0" flags="0x0"/>
      <component glyphName="tonos.case" x="-435" y="0" flags="0x0"/>
    </TTGlyph>
    <TTGlyph name="Uring" xMin="42" yMin="-17" xMax="558" yMax="990">
      <component glyphName="U" x="0" y="0" flags="0x0"/>
      <component glyphName="ring.case" x="-5" y="0" flags="0x0"/>
    </TTGlyph>
    <TTGlyph name="Utilde" xMin="42" yMin="-17" xMax="558" yMax="914">
      <component glyphName="U" x="0" y="0" flags="0x0"/>
      <component glyphName="tilde.case" x="-5" y="0" flags="0x0"/>
    </TTGlyph>
    <TTGlyph name="V" xMin="0" yMin="0" xMax="601" yMax="693">
      <contour>
        <pt x="601" y="693" on="1"/>
        <pt x="401" y="0" on="1"/>
        <pt x="199" y="0" on="1"/>
        <pt x="0" y="693" on="1"/>
        <pt x="173" y="693" on="1"/>
        <pt x="303" y="128" on="1"/>
        <pt x="434" y="693" on="1"/>
      </contour>
    </TTGlyph>
    <TTGlyph name="W" xMin="-3" yMin="0" xMax="603" yMax="693">
      <contour>
        <pt x="352" y="0" on="1"/>
        <pt x="302" y="487" on="1"/>
        <pt x="298" y="487" on="1"/>
        <pt x="245" y="0" on="1"/>
        <pt x="72" y="0" on="1"/>
        <pt x="-3" y="693" on="1"/>
        <pt x="150" y="693" on="1"/>
        <pt x="171" y="150" on="1"/>
        <pt x="175" y="150" on="1"/>
        <pt x="232" y="613" on="1"/>
        <pt x="372" y="613" on="1"/>
        <pt x="425" y="151" on="1"/>
        <pt x="429" y="151" on="1"/>
        <pt x="461" y="693" on="1"/>
        <pt x="603" y="693" on="1"/>
        <pt x="522" y="0" on="1"/>
      </contour>
    </TTGlyph>
    <TTGlyph name="Wacute" xMin="-3" yMin="0" xMax="603" yMax="953">
      <component glyphName="W" x="0" y="0" flags="0x0"/>
      <component glyphName="acute.case" x="-5" y="0" flags="0x0"/>
    </TTGlyph>
    <TTGlyph name="Wcircumflex" xMin="-3" yMin="0" xMax="603" yMax="943">
      <component glyphName="W" x="0" y="0" flags="0x0"/>
      <component glyphName="circumflex.case" x="0" y="0" flags="0x0"/>
    </TTGlyph>
    <TTGlyph name="Wdieresis" xMin="-3" yMin="0" xMax="603" yMax="922">
      <component glyphName="W" x="0" y="0" flags="0x0"/>
      <component glyphName="dieresis.case" x="-5" y="0" flags="0x0"/>
    </TTGlyph>
    <TTGlyph name="Wgrave" xMin="-3" yMin="0" xMax="603" yMax="953">
      <component glyphName="W" x="0" y="0" flags="0x0"/>
      <component glyphName="grave.case" x="-5" y="0" flags="0x0"/>
    </TTGlyph>
    <TTGlyph name="X" xMin="4" yMin="0" xMax="597" yMax="693">
      <contour>
        <pt x="300" y="471" on="1"/>
        <pt x="407" y="693" on="1"/>
        <pt x="580" y="693" on="1"/>
        <pt x="396" y="375" on="1"/>
        <pt x="597" y="0" on="1"/>
        <pt x="421" y="0" on="1"/>
        <pt x="298" y="264" on="1"/>
        <pt x="177" y="0" on="1"/>
        <pt x="4" y="0" on="1"/>
        <pt x="200" y="368" on="1"/>
        <pt x="19" y="693" on="1"/>
        <pt x="196" y="693" on="1"/>
      </contour>
    </TTGlyph>
    <TTGlyph name="Xi" xMin="53" yMin="0" xMax="547" yMax="693">
      <contour>
        <pt x="53" y="563" on="1"/>
        <pt x="53" y="693" on="1"/>
        <pt x="547" y="693" on="1"/>
        <pt x="528" y="563" on="1"/>
      </contour>
      <contour>
        <pt x="112" y="291" on="1"/>
        <pt x="112" y="413" on="1"/>
        <pt x="484" y="413" on="1"/>
        <pt x="484" y="291" on="1"/>
      </contour>
      <contour>
        <pt x="53" y="0" on="1"/>
        <pt x="53" y="134" on="1"/>
        <pt x="547" y="134" on="1"/>
        <pt x="547" y="0" on="1"/>
      </contour>
    </TTGlyph>
    <TTGlyph name="Y" xMin="-8" yMin="0" xMax="608" yMax="693">
      <contour>
        <pt x="218" y="0" on="1"/>
        <pt x="218" y="259" on="1"/>
        <pt x="-8" y="693" on="1"/>
        <pt x="171" y="693" on="1"/>
        <pt x="303" y="394" on="1"/>
        <pt x="436" y="693" on="1"/>
        <pt x="608" y="693" on="1"/>
        <pt x="382" y="260" on="1"/>
        <pt x="382" y="0" on="1"/>
      </contour>
    </TTGlyph>
    <TTGlyph name="Yacute" xMin="-8" yMin="0" xMax="608" yMax="953">
      <component glyphName="Y" x="0" y="0" flags="0x0"/>
      <component glyphName="acute.case" x="-5" y="0" flags="0x0"/>
    </TTGlyph>
    <TTGlyph name="Ycircumflex" xMin="-8" yMin="0" xMax="608" yMax="943">
      <component glyphName="Y" x="0" y="0" flags="0x0"/>
      <component glyphName="circumflex.case" x="0" y="0" flags="0x0"/>
    </TTGlyph>
    <TTGlyph name="Ydieresis" xMin="-8" yMin="0" xMax="608" yMax="922">
      <component glyphName="Y" x="0" y="0" flags="0x0"/>
      <component glyphName="dieresis.case" x="-5" y="0" flags="0x0"/>
    </TTGlyph>
    <TTGlyph name="Ygrave" xMin="-8" yMin="0" xMax="608" yMax="953">
      <component glyphName="Y" x="0" y="0" flags="0x0"/>
      <component glyphName="grave.case" x="-5" y="0" flags="0x0"/>
    </TTGlyph>
    <TTGlyph name="Z" xMin="39" yMin="0" xMax="562" yMax="693">
      <contour>
        <pt x="545" y="0" on="1"/>
        <pt x="39" y="0" on="1"/>
        <pt x="39" y="122" on="1"/>
        <pt x="368" y="566" on="1"/>
        <pt x="75" y="566" on="1"/>
        <pt x="75" y="693" on="1"/>
        <pt x="554" y="693" on="1"/>
        <pt x="554" y="569" on="1"/>
        <pt x="232" y="130" on="1"/>
        <pt x="562" y="130" on="1"/>
      </contour>
    </TTGlyph>
    <TTGlyph name="Zacute" xMin="39" yMin="0" xMax="562" yMax="953">
      <component glyphName="Z" x="0" y="0" flags="0x0"/>
      <component glyphName="acute.case" x="8" y="0" flags="0x0"/>
    </TTGlyph>
    <TTGlyph name="Zacute.loclPLK" xMin="39" yMin="0" xMax="562" yMax="972">
      <component glyphName="Z" x="0" y="0" flags="0x0"/>
      <component glyphName="acute.case.loclPLK" x="51" y="0" flags="0x0"/>
    </TTGlyph>
    <TTGlyph name="Zcaron" xMin="39" yMin="0" xMax="562" yMax="946">
      <component glyphName="Z" x="0" y="0" flags="0x0"/>
      <component glyphName="caron.case" x="13" y="0" flags="0x0"/>
    </TTGlyph>
    <TTGlyph name="Zdotaccent" xMin="39" yMin="0" xMax="562" yMax="934">
      <component glyphName="Z" x="0" y="0" flags="0x0"/>
      <component glyphName="dotaccent.case" x="8" y="0" flags="0x0"/>
    </TTGlyph>
    <TTGlyph name="Zeta" xMin="39" yMin="0" xMax="562" yMax="693">
      <component glyphName="Z" x="0" y="0" flags="0x0"/>
    </TTGlyph>
    <TTGlyph name="a" xMin="35" yMin="-17" xMax="552" yMax="549">
      <contour>
        <pt x="517" y="124" on="0"/>
        <pt x="533" y="96" on="0"/>
        <pt x="552" y="89" on="1"/>
        <pt x="519" y="-15" on="1"/>
        <pt x="471" y="-10" on="0"/>
        <pt x="407" y="23" on="0"/>
        <pt x="389" y="55" on="1"/>
        <pt x="360" y="20" on="0"/>
        <pt x="267" y="-17" on="0"/>
        <pt x="215" y="-17" on="1"/>
        <pt x="133" y="-17" on="0"/>
        <pt x="35" y="76" on="0"/>
        <pt x="35" y="150" on="1"/>
        <pt x="35" y="236" on="0"/>
        <pt x="171" y="331" on="0"/>
        <pt x="294" y="331" on="1"/>
        <pt x="365" y="331" on="1"/>
        <pt x="365" y="350" on="1"/>
        <pt x="365" y="432" on="0"/>
        <pt x="260" y="432" on="1"/>
        <pt x="233" y="432" on="0"/>
        <pt x="153" y="417" on="0"/>
        <pt x="115" y="404" on="1"/>
        <pt x="78" y="509" on="1"/>
        <pt x="129" y="528" on="0"/>
        <pt x="240" y="549" on="0"/>
        <pt x="285" y="549" on="1"/>
        <pt x="517" y="549" on="0"/>
        <pt x="517" y="361" on="1"/>
        <pt x="517" y="153" on="1"/>
      </contour>
      <contour>
        <pt x="296" y="96" on="0"/>
        <pt x="351" y="127" on="0"/>
        <pt x="365" y="154" on="1"/>
        <pt x="365" y="241" on="1"/>
        <pt x="326" y="241" on="1"/>
        <pt x="198" y="241" on="0"/>
        <pt x="198" y="161" on="1"/>
        <pt x="198" y="130" on="0"/>
        <pt x="235" y="96" on="0"/>
        <pt x="269" y="96" on="1"/>
      </contour>
    </TTGlyph>
    <TTGlyph name="aacute" xMin="35" yMin="-17" xMax="552" yMax="832">
      <component glyphName="a" x="0" y="0" flags="0x0"/>
      <component glyphName="acute" x="-7" y="0" flags="0x0"/>
    </TTGlyph>
    <TTGlyph name="abreve" xMin="35" yMin="-17" xMax="552" yMax="801">
      <component glyphName="a" x="0" y="0" flags="0x0"/>
      <component glyphName="breve" x="-7" y="0" flags="0x0"/>
    </TTGlyph>
    <TTGlyph name="acircumflex" xMin="35" yMin="-17" xMax="552" yMax="815">
      <component glyphName="a" x="0" y="0" flags="0x0"/>
      <component glyphName="circumflex" x="-7" y="0" flags="0x0"/>
    </TTGlyph>
    <TTGlyph name="acute" xMin="158" yMin="608" xMax="442" yMax="832">
      <contour>
        <pt x="442" y="714" on="1"/>
        <pt x="205" y="608" on="1"/>
        <pt x="158" y="688" on="1"/>
        <pt x="372" y="832" on="1"/>
      </contour>
    </TTGlyph>
    <TTGlyph name="acute.case" xMin="167" yMin="751" xMax="442" yMax="953">
      <contour>
        <pt x="205" y="751" on="1"/>
        <pt x="167" y="831" on="1"/>
        <pt x="383" y="953" on="1"/>
        <pt x="442" y="835" on="1"/>
      </contour>
    </TTGlyph>
    <TTGlyph name="acute.case.loclPLK" xMin="189" yMin="739" xMax="412" yMax="972">
      <contour>
        <pt x="265" y="739" on="1"/>
        <pt x="189" y="787" on="1"/>
        <pt x="290" y="972" on="1"/>
        <pt x="412" y="895" on="1"/>
      </contour>
    </TTGlyph>
    <TTGlyph name="acute.loclPLK" xMin="189" yMin="581" xMax="412" yMax="824">
      <contour>
        <pt x="265" y="581" on="1"/>
        <pt x="189" y="629" on="1"/>
        <pt x="290" y="824" on="1"/>
        <pt x="412" y="747" on="1"/>
      </contour>
    </TTGlyph>
    <TTGlyph name="acutecomb" xMin="163" yMin="625" xMax="437" yMax="826">
      <contour>
        <pt x="200" y="625" on="1"/>
        <pt x="163" y="705" on="1"/>
        <pt x="378" y="826" on="1"/>
        <pt x="437" y="709" on="1"/>
      </contour>
    </TTGlyph>
    <TTGlyph name="adieresis" xMin="35" yMin="-17" xMax="552" yMax="797">
      <component glyphName="a" x="0" y="0" flags="0x0"/>
      <component glyphName="dieresis" x="-7" y="0" flags="0x0"/>
    </TTGlyph>
    <TTGlyph name="ae" xMin="-6" yMin="-17" xMax="600" yMax="549">
      <contour>
        <pt x="519" y="549" on="0"/>
        <pt x="600" y="412" on="0"/>
        <pt x="600" y="276" on="1"/>
        <pt x="600" y="250" on="0"/>
        <pt x="597" y="226" on="1"/>
        <pt x="356" y="226" on="1"/>
        <pt x="363" y="155" on="0"/>
        <pt x="410" y="87" on="0"/>
        <pt x="453" y="87" on="1"/>
        <pt x="476" y="87" on="0"/>
        <pt x="517" y="103" on="0"/>
        <pt x="540" y="119" on="1"/>
        <pt x="600" y="40" on="1"/>
        <pt x="533" y="-17" on="0"/>
        <pt x="444" y="-17" on="1"/>
        <pt x="338" y="-17" on="0"/>
        <pt x="284" y="67" on="1"/>
        <pt x="254" y="22" on="0"/>
        <pt x="192" y="-17" on="0"/>
        <pt x="143" y="-17" on="1"/>
        <pt x="74" y="-17" on="0"/>
        <pt x="-6" y="77" on="0"/>
        <pt x="-6" y="152" on="1"/>
        <pt x="-6" y="238" on="0"/>
        <pt x="94" y="327" on="0"/>
        <pt x="196" y="327" on="1"/>
        <pt x="238" y="327" on="1"/>
        <pt x="238" y="350" on="1"/>
        <pt x="238" y="401" on="0"/>
        <pt x="191" y="452" on="0"/>
        <pt x="148" y="452" on="1"/>
        <pt x="125" y="452" on="0"/>
        <pt x="86" y="441" on="0"/>
        <pt x="55" y="426" on="1"/>
        <pt x="20" y="513" on="1"/>
        <pt x="61" y="532" on="0"/>
        <pt x="127" y="549" on="0"/>
        <pt x="164" y="549" on="1"/>
        <pt x="216" y="549" on="0"/>
        <pt x="282" y="512" on="0"/>
        <pt x="302" y="478" on="1"/>
        <pt x="321" y="511" on="0"/>
        <pt x="384" y="549" on="0"/>
        <pt x="428" y="549" on="1"/>
      </contour>
      <contour>
        <pt x="391" y="450" on="0"/>
        <pt x="360" y="388" on="0"/>
        <pt x="356" y="312" on="1"/>
        <pt x="481" y="312" on="1"/>
        <pt x="480" y="386" on="0"/>
        <pt x="456" y="450" on="0"/>
        <pt x="422" y="450" on="1"/>
      </contour>
      <contour>
        <pt x="168" y="242" on="0"/>
        <pt x="126" y="200" on="0"/>
        <pt x="126" y="159" on="1"/>
        <pt x="126" y="124" on="0"/>
        <pt x="150" y="86" on="0"/>
        <pt x="172" y="86" on="1"/>
        <pt x="192" y="86" on="0"/>
        <pt x="226" y="116" on="0"/>
        <pt x="242" y="148" on="1"/>
        <pt x="238" y="188" on="0"/>
        <pt x="238" y="242" on="1"/>
        <pt x="216" y="242" on="1"/>
      </contour>
    </TTGlyph>
    <TTGlyph name="aeacute" xMin="-6" yMin="-17" xMax="600" yMax="832">
      <component glyphName="ae" x="0" y="0" flags="0x0"/>
      <component glyphName="acute" x="2" y="0" flags="0x0"/>
    </TTGlyph>
    <TTGlyph name="agrave" xMin="35" yMin="-17" xMax="552" yMax="832">
      <component glyphName="a" x="0" y="0" flags="0x0"/>
      <component glyphName="grave" x="-7" y="0" flags="0x0"/>
    </TTGlyph>
    <TTGlyph name="alpha" xMin="35" yMin="-17" xMax="571" yMax="549">
      <contour>
        <pt x="317" y="549" on="0"/>
        <pt x="396" y="474" on="0"/>
        <pt x="405" y="404" on="1"/>
        <pt x="429" y="531" on="1"/>
        <pt x="571" y="531" on="1"/>
        <pt x="487" y="283" on="1"/>
        <pt x="514" y="167" on="1"/>
        <pt x="521" y="134" on="0"/>
        <pt x="547" y="107" on="0"/>
        <pt x="571" y="102" on="1"/>
        <pt x="520" y="-17" on="1"/>
        <pt x="472" y="-9" on="0"/>
        <pt x="421" y="31" on="0"/>
        <pt x="411" y="77" on="1"/>
        <pt x="400" y="130" on="1"/>
        <pt x="381" y="55" on="0"/>
        <pt x="300" y="-17" on="0"/>
        <pt x="235" y="-17" on="1"/>
        <pt x="142" y="-17" on="0"/>
        <pt x="35" y="131" on="0"/>
        <pt x="35" y="263" on="1"/>
        <pt x="35" y="345" on="0"/>
        <pt x="87" y="475" on="0"/>
        <pt x="183" y="549" on="0"/>
        <pt x="246" y="549" on="1"/>
      </contour>
      <contour>
        <pt x="195" y="433" on="0"/>
        <pt x="195" y="263" on="1"/>
        <pt x="195" y="98" on="0"/>
        <pt x="264" y="98" on="1"/>
        <pt x="332" y="98" on="0"/>
        <pt x="361" y="266" on="1"/>
        <pt x="347" y="355" on="0"/>
        <pt x="302" y="433" on="0"/>
        <pt x="268" y="433" on="1"/>
      </contour>
    </TTGlyph>
    <TTGlyph name="alphatonos" xMin="35" yMin="-17" xMax="571" yMax="853">
      <component glyphName="alpha" x="0" y="0" flags="0x0"/>
      <component glyphName="tonos" x="11" y="0" flags="0x0"/>
    </TTGlyph>
    <TTGlyph name="amacron" xMin="35" yMin="-17" xMax="552" yMax="767">
      <component glyphName="a" x="0" y="0" flags="0x0"/>
      <component glyphName="macron" x="-7" y="0" flags="0x0"/>
    </TTGlyph>
    <TTGlyph name="ampersand" xMin="38" yMin="-17" xMax="578" yMax="710">
      <contour>
        <pt x="341" y="710" on="0"/>
        <pt x="433" y="674" on="0"/>
        <pt x="473" y="631" on="1"/>
        <pt x="388" y="558" on="1"/>
        <pt x="365" y="582" on="0"/>
        <pt x="325" y="602" on="0"/>
        <pt x="297" y="602" on="1"/>
        <pt x="262" y="602" on="0"/>
        <pt x="223" y="560" on="0"/>
        <pt x="223" y="523" on="1"/>
        <pt x="223" y="484" on="0"/>
        <pt x="275" y="433" on="0"/>
        <pt x="316" y="433" on="1"/>
        <pt x="578" y="433" on="1"/>
        <pt x="578" y="332" on="1"/>
        <pt x="512" y="332" on="1"/>
        <pt x="512" y="70" on="1"/>
        <pt x="429" y="-17" on="0"/>
        <pt x="281" y="-17" on="1"/>
        <pt x="204" y="-17" on="0"/>
        <pt x="94" y="39" on="0"/>
        <pt x="38" y="136" on="0"/>
        <pt x="38" y="198" on="1"/>
        <pt x="38" y="279" on="0"/>
        <pt x="116" y="371" on="0"/>
        <pt x="190" y="389" on="1"/>
        <pt x="190" y="393" on="1"/>
        <pt x="72" y="424" on="0"/>
        <pt x="72" y="543" on="1"/>
        <pt x="72" y="590" on="0"/>
        <pt x="125" y="666" on="0"/>
        <pt x="220" y="710" on="0"/>
        <pt x="279" y="710" on="1"/>
      </contour>
      <contour>
        <pt x="251" y="332" on="0"/>
        <pt x="191" y="260" on="0"/>
        <pt x="191" y="210" on="1"/>
        <pt x="191" y="159" on="0"/>
        <pt x="243" y="98" on="0"/>
        <pt x="290" y="98" on="1"/>
        <pt x="314" y="98" on="0"/>
        <pt x="354" y="113" on="0"/>
        <pt x="366" y="126" on="1"/>
        <pt x="366" y="332" on="1"/>
        <pt x="307" y="332" on="1"/>
      </contour>
    </TTGlyph>
    <TTGlyph name="aogonek" xMin="35" yMin="-268" xMax="552" yMax="549">
      <contour>
        <pt x="454" y="-37" on="0"/>
        <pt x="404" y="-91" on="0"/>
        <pt x="404" y="-125" on="1"/>
        <pt x="404" y="-149" on="0"/>
        <pt x="435" y="-174" on="0"/>
        <pt x="462" y="-174" on="1"/>
        <pt x="486" y="-174" on="0"/>
        <pt x="516" y="-167" on="1"/>
        <pt x="504" y="-260" on="1"/>
        <pt x="475" y="-268" on="0"/>
        <pt x="445" y="-268" on="1"/>
        <pt x="379" y="-268" on="0"/>
        <pt x="294" y="-203" on="0"/>
        <pt x="294" y="-145" on="1"/>
        <pt x="294" y="-87" on="0"/>
        <pt x="364" y="-14" on="0"/>
        <pt x="430" y="12" on="1"/>
        <pt x="403" y="29" on="0"/>
        <pt x="389" y="55" on="1"/>
        <pt x="360" y="20" on="0"/>
        <pt x="267" y="-17" on="0"/>
        <pt x="215" y="-17" on="1"/>
        <pt x="133" y="-17" on="0"/>
        <pt x="35" y="76" on="0"/>
        <pt x="35" y="150" on="1"/>
        <pt x="35" y="236" on="0"/>
        <pt x="171" y="331" on="0"/>
        <pt x="294" y="331" on="1"/>
        <pt x="365" y="331" on="1"/>
        <pt x="365" y="350" on="1"/>
        <pt x="365" y="432" on="0"/>
        <pt x="260" y="432" on="1"/>
        <pt x="233" y="432" on="0"/>
        <pt x="153" y="417" on="0"/>
        <pt x="115" y="404" on="1"/>
        <pt x="78" y="509" on="1"/>
        <pt x="129" y="528" on="0"/>
        <pt x="240" y="549" on="0"/>
        <pt x="285" y="549" on="1"/>
        <pt x="517" y="549" on="0"/>
        <pt x="517" y="361" on="1"/>
        <pt x="517" y="153" on="1"/>
        <pt x="517" y="124" on="0"/>
        <pt x="533" y="96" on="0"/>
        <pt x="552" y="89" on="1"/>
        <pt x="519" y="-15" on="1"/>
      </contour>
      <contour>
        <pt x="326" y="241" on="1"/>
        <pt x="198" y="241" on="0"/>
        <pt x="198" y="161" on="1"/>
        <pt x="198" y="130" on="0"/>
        <pt x="235" y="96" on="0"/>
        <pt x="269" y="96" on="1"/>
        <pt x="296" y="96" on="0"/>
        <pt x="351" y="127" on="0"/>
        <pt x="365" y="154" on="1"/>
        <pt x="365" y="241" on="1"/>
      </contour>
    </TTGlyph>
    <TTGlyph name="approxequal" xMin="59" yMin="126" xMax="541" yMax="494">
      <contour>
        <pt x="253" y="494" on="0"/>
        <pt x="300" y="476" on="0"/>
        <pt x="330" y="458" on="1"/>
        <pt x="351" y="446" on="0"/>
        <pt x="374" y="435" on="0"/>
        <pt x="388" y="435" on="1"/>
        <pt x="412" y="435" on="0"/>
        <pt x="439" y="461" on="0"/>
        <pt x="454" y="489" on="1"/>
        <pt x="541" y="443" on="1"/>
        <pt x="513" y="387" on="0"/>
        <pt x="438" y="319" on="0"/>
        <pt x="381" y="319" on="1"/>
        <pt x="346" y="319" on="0"/>
        <pt x="297" y="338" on="0"/>
        <pt x="270" y="355" on="1"/>
        <pt x="251" y="366" on="0"/>
        <pt x="226" y="377" on="0"/>
        <pt x="212" y="377" on="1"/>
        <pt x="188" y="377" on="0"/>
        <pt x="161" y="351" on="0"/>
        <pt x="146" y="324" on="1"/>
        <pt x="59" y="369" on="1"/>
        <pt x="87" y="425" on="0"/>
        <pt x="163" y="494" on="0"/>
        <pt x="219" y="494" on="1"/>
      </contour>
      <contour>
        <pt x="253" y="302" on="0"/>
        <pt x="300" y="284" on="0"/>
        <pt x="330" y="266" on="1"/>
        <pt x="351" y="254" on="0"/>
        <pt x="374" y="243" on="0"/>
        <pt x="388" y="243" on="1"/>
        <pt x="412" y="243" on="0"/>
        <pt x="439" y="269" on="0"/>
        <pt x="454" y="296" on="1"/>
        <pt x="541" y="250" on="1"/>
        <pt x="513" y="194" on="0"/>
        <pt x="437" y="126" on="0"/>
        <pt x="381" y="126" on="1"/>
        <pt x="346" y="126" on="0"/>
        <pt x="297" y="145" on="0"/>
        <pt x="270" y="162" on="1"/>
        <pt x="251" y="173" on="0"/>
        <pt x="226" y="184" on="0"/>
        <pt x="212" y="184" on="1"/>
        <pt x="188" y="184" on="0"/>
        <pt x="161" y="158" on="0"/>
        <pt x="146" y="131" on="1"/>
        <pt x="59" y="178" on="1"/>
        <pt x="87" y="234" on="0"/>
        <pt x="163" y="302" on="0"/>
        <pt x="219" y="302" on="1"/>
      </contour>
    </TTGlyph>
    <TTGlyph name="approxequal.tosf" xMin="59" yMin="126" xMax="541" yMax="494">
      <component glyphName="approxequal" x="0" y="0" flags="0x0"/>
    </TTGlyph>
    <TTGlyph name="aring" xMin="35" yMin="-17" xMax="552" yMax="865">
      <component glyphName="a" x="0" y="0" flags="0x0"/>
      <component glyphName="ring" x="-7" y="0" flags="0x0"/>
    </TTGlyph>
    <TTGlyph name="arrowdown" xMin="-17" yMin="-26" xMax="617" yMax="664">
      <contour>
        <pt x="389" y="223" on="0"/>
        <pt x="423" y="267" on="0"/>
        <pt x="455" y="299" on="1"/>
        <pt x="526" y="368" on="1"/>
        <pt x="617" y="271" on="1"/>
        <pt x="300" y="-26" on="1"/>
        <pt x="-17" y="271" on="1"/>
        <pt x="74" y="368" on="1"/>
        <pt x="146" y="298" on="1"/>
        <pt x="178" y="265" on="0"/>
        <pt x="213" y="221" on="0"/>
        <pt x="227" y="196" on="1"/>
        <pt x="227" y="664" on="1"/>
        <pt x="373" y="664" on="1"/>
        <pt x="373" y="195" on="1"/>
      </contour>
    </TTGlyph>
    <TTGlyph name="arrowdownwhite" xMin="0" yMin="-94" xMax="600" yMax="750">
      <contour>
        <pt x="404" y="750" on="0"/>
        <pt x="431" y="723" on="0"/>
        <pt x="431" y="700" on="1"/>
        <pt x="431" y="204" on="1"/>
        <pt x="600" y="204" on="1"/>
        <pt x="300" y="-94" on="1"/>
        <pt x="0" y="204" on="1"/>
        <pt x="169" y="204" on="1"/>
        <pt x="169" y="700" on="1"/>
        <pt x="169" y="723" on="0"/>
        <pt x="197" y="750" on="0"/>
        <pt x="219" y="750" on="1"/>
        <pt x="381" y="750" on="1"/>
      </contour>
      <contour>
        <pt x="216" y="159" on="1"/>
        <pt x="109" y="159" on="1"/>
        <pt x="300" y="-30" on="1"/>
        <pt x="491" y="159" on="1"/>
        <pt x="384" y="159" on="1"/>
        <pt x="384" y="706" on="1"/>
        <pt x="216" y="706" on="1"/>
      </contour>
    </TTGlyph>
    <TTGlyph name="arrowleft" xMin="-1" yMin="-7" xMax="601" yMax="665">
      <contour>
        <pt x="334" y="500" on="1"/>
        <pt x="300" y="463" on="0"/>
        <pt x="244" y="412" on="0"/>
        <pt x="214" y="393" on="1"/>
        <pt x="601" y="393" on="1"/>
        <pt x="601" y="265" on="1"/>
        <pt x="216" y="265" on="1"/>
        <pt x="277" y="223" on="0"/>
        <pt x="334" y="158" on="1"/>
        <pt x="405" y="82" on="1"/>
        <pt x="301" y="-7" on="1"/>
        <pt x="-1" y="329" on="1"/>
        <pt x="301" y="665" on="1"/>
        <pt x="405" y="576" on="1"/>
      </contour>
    </TTGlyph>
    <TTGlyph name="arrowleftwhite" xMin="-40" yMin="13" xMax="640" yMax="613">
      <contour>
        <pt x="590" y="437" on="1"/>
        <pt x="613" y="437" on="0"/>
        <pt x="640" y="410" on="0"/>
        <pt x="640" y="387" on="1"/>
        <pt x="640" y="239" on="1"/>
        <pt x="640" y="217" on="0"/>
        <pt x="613" y="189" on="0"/>
        <pt x="590" y="189" on="1"/>
        <pt x="258" y="189" on="1"/>
        <pt x="258" y="13" on="1"/>
        <pt x="-40" y="313" on="1"/>
        <pt x="258" y="613" on="1"/>
        <pt x="258" y="437" on="1"/>
      </contour>
      <contour>
        <pt x="213" y="122" on="1"/>
        <pt x="213" y="233" on="1"/>
        <pt x="596" y="233" on="1"/>
        <pt x="596" y="393" on="1"/>
        <pt x="213" y="393" on="1"/>
        <pt x="213" y="504" on="1"/>
        <pt x="24" y="313" on="1"/>
      </contour>
    </TTGlyph>
    <TTGlyph name="arrowright" xMin="-1" yMin="-7" xMax="601" yMax="665">
      <contour>
        <pt x="299" y="-7" on="1"/>
        <pt x="195" y="82" on="1"/>
        <pt x="266" y="158" on="1"/>
        <pt x="323" y="223" on="0"/>
        <pt x="384" y="265" on="1"/>
        <pt x="-1" y="265" on="1"/>
        <pt x="-1" y="393" on="1"/>
        <pt x="386" y="393" on="1"/>
        <pt x="356" y="412" on="0"/>
        <pt x="300" y="463" on="0"/>
        <pt x="266" y="500" on="1"/>
        <pt x="195" y="576" on="1"/>
        <pt x="299" y="665" on="1"/>
        <pt x="601" y="329" on="1"/>
      </contour>
    </TTGlyph>
    <TTGlyph name="arrowrightwhite" xMin="-40" yMin="13" xMax="640" yMax="613">
      <contour>
        <pt x="342" y="13" on="1"/>
        <pt x="342" y="189" on="1"/>
        <pt x="10" y="189" on="1"/>
        <pt x="-13" y="189" on="0"/>
        <pt x="-40" y="217" on="0"/>
        <pt x="-40" y="239" on="1"/>
        <pt x="-40" y="387" on="1"/>
        <pt x="-40" y="410" on="0"/>
        <pt x="-13" y="437" on="0"/>
        <pt x="10" y="437" on="1"/>
        <pt x="342" y="437" on="1"/>
        <pt x="342" y="613" on="1"/>
        <pt x="640" y="313" on="1"/>
      </contour>
      <contour>
        <pt x="4" y="393" on="1"/>
        <pt x="4" y="233" on="1"/>
        <pt x="387" y="233" on="1"/>
        <pt x="387" y="122" on="1"/>
        <pt x="576" y="313" on="1"/>
        <pt x="387" y="504" on="1"/>
        <pt x="387" y="393" on="1"/>
      </contour>
    </TTGlyph>
    <TTGlyph name="arrowup" xMin="-17" yMin="0" xMax="617" yMax="690">
      <contour>
        <pt x="526" y="296" on="1"/>
        <pt x="455" y="366" on="1"/>
        <pt x="424" y="397" on="0"/>
        <pt x="389" y="440" on="0"/>
        <pt x="373" y="469" on="1"/>
        <pt x="373" y="0" on="1"/>
        <pt x="227" y="0" on="1"/>
        <pt x="227" y="469" on="1"/>
        <pt x="213" y="443" on="0"/>
        <pt x="178" y="399" on="0"/>
        <pt x="146" y="366" on="1"/>
        <pt x="74" y="296" on="1"/>
        <pt x="-17" y="393" on="1"/>
        <pt x="300" y="690" on="1"/>
        <pt x="617" y="393" on="1"/>
      </contour>
    </TTGlyph>
    <TTGlyph name="arrowupdn" xMin="-17" yMin="-228" xMax="617" yMax="891">
      <contour>
        <pt x="526" y="497" on="1"/>
        <pt x="455" y="566" on="1"/>
        <pt x="423" y="598" on="0"/>
        <pt x="389" y="642" on="0"/>
        <pt x="373" y="670" on="1"/>
        <pt x="373" y="-7" on="1"/>
        <pt x="389" y="22" on="0"/>
        <pt x="423" y="65" on="0"/>
        <pt x="455" y="97" on="1"/>
        <pt x="526" y="167" on="1"/>
        <pt x="617" y="70" on="1"/>
        <pt x="300" y="-228" on="1"/>
        <pt x="-17" y="70" on="1"/>
        <pt x="74" y="167" on="1"/>
        <pt x="146" y="96" on="1"/>
        <pt x="178" y="64" on="0"/>
        <pt x="213" y="20" on="0"/>
        <pt x="227" y="-6" on="1"/>
        <pt x="227" y="669" on="1"/>
        <pt x="213" y="644" on="0"/>
        <pt x="178" y="600" on="0"/>
        <pt x="146" y="567" on="1"/>
        <pt x="74" y="497" on="1"/>
        <pt x="-17" y="594" on="1"/>
        <pt x="300" y="891" on="1"/>
        <pt x="617" y="594" on="1"/>
      </contour>
    </TTGlyph>
    <TTGlyph name="arrowupwhite" xMin="0" yMin="-12" xMax="600" yMax="832">
      <contour>
        <pt x="431" y="534" on="1"/>
        <pt x="431" y="38" on="1"/>
        <pt x="431" y="16" on="0"/>
        <pt x="404" y="-12" on="0"/>
        <pt x="381" y="-12" on="1"/>
        <pt x="219" y="-12" on="1"/>
        <pt x="197" y="-12" on="0"/>
        <pt x="169" y="16" on="0"/>
        <pt x="169" y="38" on="1"/>
        <pt x="169" y="534" on="1"/>
        <pt x="0" y="534" on="1"/>
        <pt x="300" y="832" on="1"/>
        <pt x="600" y="534" on="1"/>
      </contour>
      <contour>
        <pt x="216" y="579" on="1"/>
        <pt x="216" y="32" on="1"/>
        <pt x="384" y="32" on="1"/>
        <pt x="384" y="579" on="1"/>
        <pt x="491" y="579" on="1"/>
        <pt x="300" y="768" on="1"/>
        <pt x="109" y="579" on="1"/>
      </contour>
    </TTGlyph>
    <TTGlyph name="asciicircum" xMin="39" yMin="527" xMax="561" yMax="844">
      <contour>
        <pt x="407" y="527" on="1"/>
        <pt x="299" y="726" on="1"/>
        <pt x="195" y="527" on="1"/>
        <pt x="39" y="527" on="1"/>
        <pt x="228" y="844" on="1"/>
        <pt x="372" y="844" on="1"/>
        <pt x="561" y="527" on="1"/>
      </contour>
    </TTGlyph>
    <TTGlyph name="asciitilde" xMin="22" yMin="211" xMax="578" yMax="430">
      <contour>
        <pt x="240" y="430" on="0"/>
        <pt x="295" y="399" on="0"/>
        <pt x="327" y="371" on="1"/>
        <pt x="350" y="350" on="0"/>
        <pt x="383" y="330" on="0"/>
        <pt x="401" y="330" on="1"/>
        <pt x="428" y="330" on="0"/>
        <pt x="469" y="367" on="0"/>
        <pt x="490" y="408" on="1"/>
        <pt x="578" y="369" on="1"/>
        <pt x="543" y="292" on="0"/>
        <pt x="459" y="211" on="0"/>
        <pt x="397" y="211" on="1"/>
        <pt x="361" y="211" on="0"/>
        <pt x="308" y="241" on="0"/>
        <pt x="274" y="270" on="1"/>
        <pt x="249" y="291" on="0"/>
        <pt x="216" y="311" on="0"/>
        <pt x="199" y="311" on="1"/>
        <pt x="172" y="311" on="0"/>
        <pt x="132" y="272" on="0"/>
        <pt x="110" y="232" on="1"/>
        <pt x="22" y="272" on="1"/>
        <pt x="58" y="346" on="0"/>
        <pt x="141" y="430" on="0"/>
        <pt x="203" y="430" on="1"/>
      </contour>
    </TTGlyph>
    <TTGlyph name="asciitilde.tosf" xMin="22" yMin="211" xMax="578" yMax="430">
      <component glyphName="asciitilde" x="0" y="0" flags="0x0"/>
    </TTGlyph>
    <TTGlyph name="asterisk" xMin="78" yMin="103" xMax="522" yMax="531">
      <contour>
        <pt x="482" y="444" on="1"/>
        <pt x="522" y="320" on="1"/>
        <pt x="374" y="293" on="1"/>
        <pt x="480" y="183" on="1"/>
        <pt x="372" y="104" on="1"/>
        <pt x="299" y="238" on="1"/>
        <pt x="230" y="103" on="1"/>
        <pt x="121" y="182" on="1"/>
        <pt x="225" y="293" on="1"/>
        <pt x="78" y="320" on="1"/>
        <pt x="117" y="444" on="1"/>
        <pt x="254" y="380" on="1"/>
        <pt x="232" y="531" on="1"/>
        <pt x="367" y="531" on="1"/>
        <pt x="345" y="379" on="1"/>
      </contour>
    </TTGlyph>
    <TTGlyph name="at" xMin="-2" yMin="-94" xMax="599" yMax="711">
      <contour>
        <pt x="456" y="711" on="0"/>
        <pt x="599" y="496" on="0"/>
        <pt x="599" y="296" on="1"/>
        <pt x="599" y="162" on="0"/>
        <pt x="572" y="-6" on="0"/>
        <pt x="503" y="-94" on="0"/>
        <pt x="441" y="-94" on="1"/>
        <pt x="387" y="-94" on="0"/>
        <pt x="328" y="-17" on="0"/>
        <pt x="321" y="44" on="1"/>
        <pt x="317" y="44" on="1"/>
        <pt x="299" y="3" on="0"/>
        <pt x="227" y="-49" on="0"/>
        <pt x="177" y="-49" on="1"/>
        <pt x="93" y="-49" on="0"/>
        <pt x="15" y="75" on="0"/>
        <pt x="15" y="179" on="1"/>
        <pt x="15" y="306" on="0"/>
        <pt x="122" y="448" on="0"/>
        <pt x="228" y="448" on="1"/>
        <pt x="269" y="448" on="0"/>
        <pt x="356" y="426" on="0"/>
        <pt x="396" y="404" on="1"/>
        <pt x="396" y="104" on="1"/>
        <pt x="396" y="50" on="0"/>
        <pt x="415" y="4" on="0"/>
        <pt x="436" y="4" on="1"/>
        <pt x="455" y="4" on="0"/>
        <pt x="473" y="58" on="0"/>
        <pt x="478" y="171" on="0"/>
        <pt x="478" y="287" on="1"/>
        <pt x="478" y="398" on="0"/>
        <pt x="444" y="539" on="0"/>
        <pt x="357" y="613" on="0"/>
        <pt x="279" y="613" on="1"/>
        <pt x="223" y="613" on="0"/>
        <pt x="117" y="570" on="0"/>
        <pt x="61" y="521" on="1"/>
        <pt x="-2" y="595" on="1"/>
        <pt x="66" y="655" on="0"/>
        <pt x="206" y="711" on="0"/>
        <pt x="287" y="711" on="1"/>
      </contour>
      <contour>
        <pt x="198" y="349" on="0"/>
        <pt x="169" y="317" on="0"/>
        <pt x="157" y="245" on="0"/>
        <pt x="157" y="179" on="1"/>
        <pt x="157" y="109" on="0"/>
        <pt x="178" y="50" on="0"/>
        <pt x="206" y="50" on="1"/>
        <pt x="235" y="50" on="0"/>
        <pt x="259" y="90" on="0"/>
        <pt x="263" y="121" on="1"/>
        <pt x="263" y="340" on="1"/>
        <pt x="245" y="349" on="0"/>
        <pt x="225" y="349" on="1"/>
      </contour>
    </TTGlyph>
    <TTGlyph name="atilde" xMin="35" yMin="-17" xMax="552" yMax="789">
      <component glyphName="a" x="0" y="0" flags="0x0"/>
      <component glyphName="tilde" x="-7" y="0" flags="0x0"/>
    </TTGlyph>
    <TTGlyph name="b" xMin="70" yMin="-17" xMax="560" yMax="759">
      <contour>
        <pt x="253" y="510" on="0"/>
        <pt x="324" y="549" on="0"/>
        <pt x="364" y="549" on="1"/>
        <pt x="463" y="549" on="0"/>
        <pt x="560" y="401" on="0"/>
        <pt x="560" y="267" on="1"/>
        <pt x="560" y="184" on="0"/>
        <pt x="510" y="56" on="0"/>
        <pt x="414" y="-17" on="0"/>
        <pt x="347" y="-17" on="1"/>
        <pt x="307" y="-17" on="0"/>
        <pt x="239" y="17" on="0"/>
        <pt x="216" y="48" on="1"/>
        <pt x="210" y="0" on="1"/>
        <pt x="70" y="0" on="1"/>
        <pt x="70" y="742" on="1"/>
        <pt x="228" y="759" on="1"/>
        <pt x="228" y="476" on="1"/>
      </contour>
      <contour>
        <pt x="397" y="98" on="0"/>
        <pt x="397" y="265" on="1"/>
        <pt x="397" y="358" on="0"/>
        <pt x="355" y="432" on="0"/>
        <pt x="314" y="432" on="1"/>
        <pt x="265" y="432" on="0"/>
        <pt x="228" y="370" on="1"/>
        <pt x="228" y="146" on="1"/>
        <pt x="259" y="98" on="0"/>
        <pt x="306" y="98" on="1"/>
      </contour>
    </TTGlyph>
    <TTGlyph name="backslash" xMin="29" yMin="-112" xMax="571" yMax="817">
      <contour>
        <pt x="571" y="-56" on="1"/>
        <pt x="448" y="-112" on="1"/>
        <pt x="29" y="761" on="1"/>
        <pt x="152" y="817" on="1"/>
      </contour>
    </TTGlyph>
    <TTGlyph name="bar" xMin="226" yMin="-105" xMax="373" yMax="810">
      <contour>
        <pt x="226" y="-105" on="1"/>
        <pt x="226" y="810" on="1"/>
        <pt x="373" y="810" on="1"/>
        <pt x="373" y="-105" on="1"/>
      </contour>
    </TTGlyph>
    <TTGlyph name="beta" xMin="53" yMin="-227" xMax="566" yMax="764">
      <contour>
        <pt x="457" y="398" on="0"/>
        <pt x="566" y="311" on="0"/>
        <pt x="566" y="210" on="1"/>
        <pt x="566" y="142" on="0"/>
        <pt x="512" y="38" on="0"/>
        <pt x="411" y="-20" on="0"/>
        <pt x="342" y="-20" on="1"/>
        <pt x="277" y="-20" on="0"/>
        <pt x="212" y="21" on="1"/>
        <pt x="212" y="-200" on="1"/>
        <pt x="53" y="-227" on="1"/>
        <pt x="53" y="549" on="1"/>
        <pt x="53" y="616" on="0"/>
        <pt x="112" y="713" on="0"/>
        <pt x="217" y="764" on="0"/>
        <pt x="284" y="764" on="1"/>
        <pt x="354" y="764" on="0"/>
        <pt x="458" y="712" on="0"/>
        <pt x="513" y="622" on="0"/>
        <pt x="513" y="567" on="1"/>
        <pt x="513" y="503" on="0"/>
        <pt x="448" y="423" on="0"/>
        <pt x="380" y="406" on="1"/>
      </contour>
      <contour>
        <pt x="346" y="98" on="0"/>
        <pt x="404" y="158" on="0"/>
        <pt x="404" y="219" on="1"/>
        <pt x="404" y="278" on="0"/>
        <pt x="339" y="339" on="0"/>
        <pt x="287" y="339" on="1"/>
        <pt x="254" y="339" on="1"/>
        <pt x="264" y="451" on="1"/>
        <pt x="284" y="451" on="1"/>
        <pt x="316" y="451" on="0"/>
        <pt x="353" y="504" on="0"/>
        <pt x="353" y="552" on="1"/>
        <pt x="353" y="599" on="0"/>
        <pt x="317" y="647" on="0"/>
        <pt x="284" y="647" on="1"/>
        <pt x="249" y="647" on="0"/>
        <pt x="212" y="602" on="0"/>
        <pt x="212" y="557" on="1"/>
        <pt x="212" y="123" on="1"/>
        <pt x="255" y="98" on="0"/>
        <pt x="300" y="98" on="1"/>
      </contour>
    </TTGlyph>
    <TTGlyph name="blackDiamond" xMin="30" yMin="0" xMax="570" yMax="540">
      <contour>
        <pt x="300" y="0" on="1"/>
        <pt x="30" y="270" on="1"/>
        <pt x="300" y="540" on="1"/>
        <pt x="570" y="270" on="1"/>
      </contour>
    </TTGlyph>
    <TTGlyph name="blackcircle" xMin="30" yMin="0" xMax="570" yMax="540">
      <contour>
        <pt x="373" y="540" on="0"/>
        <pt x="497" y="467" on="0"/>
        <pt x="570" y="343" on="0"/>
        <pt x="570" y="270" on="1"/>
        <pt x="570" y="196" on="0"/>
        <pt x="497" y="72" on="0"/>
        <pt x="373" y="0" on="0"/>
        <pt x="300" y="0" on="1"/>
        <pt x="226" y="0" on="0"/>
        <pt x="102" y="72" on="0"/>
        <pt x="30" y="196" on="0"/>
        <pt x="30" y="270" on="1"/>
        <pt x="30" y="343" on="0"/>
        <pt x="102" y="467" on="0"/>
        <pt x="226" y="540" on="0"/>
        <pt x="300" y="540" on="1"/>
      </contour>
    </TTGlyph>
    <TTGlyph name="blacklowerlefttriangle" xMin="30" yMin="0" xMax="570" yMax="540">
      <contour>
        <pt x="30" y="0" on="1"/>
        <pt x="30" y="540" on="1"/>
        <pt x="570" y="0" on="1"/>
      </contour>
    </TTGlyph>
    <TTGlyph name="blacklowerrighttriangle" xMin="30" yMin="0" xMax="570" yMax="540">
      <contour>
        <pt x="30" y="0" on="1"/>
        <pt x="570" y="540" on="1"/>
        <pt x="570" y="0" on="1"/>
      </contour>
    </TTGlyph>
    <TTGlyph name="blackupperlefttriangle" xMin="30" yMin="0" xMax="570" yMax="540">
      <contour>
        <pt x="30" y="540" on="1"/>
        <pt x="570" y="540" on="1"/>
        <pt x="30" y="0" on="1"/>
      </contour>
    </TTGlyph>
    <TTGlyph name="blackupperrighttriangle" xMin="30" yMin="0" xMax="570" yMax="540">
      <contour>
        <pt x="30" y="540" on="1"/>
        <pt x="570" y="540" on="1"/>
        <pt x="570" y="0" on="1"/>
      </contour>
    </TTGlyph>
    <TTGlyph name="block" xMin="0" yMin="-500" xMax="600" yMax="1000">
      <contour>
        <pt x="0" y="-500" on="1"/>
        <pt x="0" y="1000" on="1"/>
        <pt x="600" y="1000" on="1"/>
        <pt x="600" y="-500" on="1"/>
      </contour>
    </TTGlyph>
    <TTGlyph name="braceleft" xMin="133" yMin="-140" xMax="467" yMax="840">
      <contour>
        <pt x="418" y="730" on="0"/>
        <pt x="376" y="703" on="0"/>
        <pt x="376" y="667" on="1"/>
        <pt x="376" y="519" on="1"/>
        <pt x="376" y="437" on="0"/>
        <pt x="309" y="362" on="0"/>
        <pt x="231" y="350" on="1"/>
        <pt x="286" y="342" on="0"/>
        <pt x="348" y="306" on="0"/>
        <pt x="376" y="238" on="0"/>
        <pt x="376" y="181" on="1"/>
        <pt x="376" y="33" on="1"/>
        <pt x="376" y="-3" on="0"/>
        <pt x="419" y="-30" on="0"/>
        <pt x="467" y="-30" on="1"/>
        <pt x="467" y="-140" on="1"/>
        <pt x="375" y="-140" on="0"/>
        <pt x="271" y="-104" on="0"/>
        <pt x="228" y="-25" on="0"/>
        <pt x="228" y="44" on="1"/>
        <pt x="228" y="188" on="1"/>
        <pt x="228" y="243" on="0"/>
        <pt x="183" y="286" on="0"/>
        <pt x="133" y="286" on="1"/>
        <pt x="133" y="414" on="1"/>
        <pt x="183" y="414" on="0"/>
        <pt x="228" y="457" on="0"/>
        <pt x="228" y="512" on="1"/>
        <pt x="228" y="655" on="1"/>
        <pt x="228" y="725" on="0"/>
        <pt x="271" y="804" on="0"/>
        <pt x="374" y="840" on="0"/>
        <pt x="467" y="840" on="1"/>
        <pt x="467" y="730" on="1"/>
      </contour>
    </TTGlyph>
    <TTGlyph name="braceleft.case" xMin="133" yMin="-150" xMax="467" yMax="830">
      <component glyphName="braceleft" x="0" y="-10" flags="0x0"/>
    </TTGlyph>
    <TTGlyph name="braceright" xMin="133" yMin="-140" xMax="467" yMax="840">
      <contour>
        <pt x="226" y="840" on="0"/>
        <pt x="329" y="804" on="0"/>
        <pt x="372" y="725" on="0"/>
        <pt x="372" y="655" on="1"/>
        <pt x="372" y="512" on="1"/>
        <pt x="372" y="457" on="0"/>
        <pt x="417" y="414" on="0"/>
        <pt x="467" y="414" on="1"/>
        <pt x="467" y="286" on="1"/>
        <pt x="417" y="286" on="0"/>
        <pt x="372" y="243" on="0"/>
        <pt x="372" y="188" on="1"/>
        <pt x="372" y="44" on="1"/>
        <pt x="372" y="-25" on="0"/>
        <pt x="329" y="-104" on="0"/>
        <pt x="225" y="-140" on="0"/>
        <pt x="133" y="-140" on="1"/>
        <pt x="133" y="-30" on="1"/>
        <pt x="181" y="-30" on="0"/>
        <pt x="224" y="-3" on="0"/>
        <pt x="224" y="33" on="1"/>
        <pt x="224" y="181" on="1"/>
        <pt x="224" y="238" on="0"/>
        <pt x="253" y="307" on="0"/>
        <pt x="315" y="342" on="0"/>
        <pt x="367" y="349" on="1"/>
        <pt x="291" y="361" on="0"/>
        <pt x="224" y="437" on="0"/>
        <pt x="224" y="519" on="1"/>
        <pt x="224" y="667" on="1"/>
        <pt x="224" y="703" on="0"/>
        <pt x="182" y="730" on="0"/>
        <pt x="133" y="730" on="1"/>
        <pt x="133" y="840" on="1"/>
      </contour>
    </TTGlyph>
    <TTGlyph name="braceright.case" xMin="133" yMin="-150" xMax="467" yMax="830">
      <component glyphName="braceright" x="0" y="-10" flags="0x0"/>
    </TTGlyph>
    <TTGlyph name="bracketleft" xMin="156" yMin="-123" xMax="444" yMax="823">
      <contour>
        <pt x="444" y="823" on="1"/>
        <pt x="444" y="705" on="1"/>
        <pt x="305" y="705" on="1"/>
        <pt x="305" y="-6" on="1"/>
        <pt x="444" y="-6" on="1"/>
        <pt x="444" y="-123" on="1"/>
        <pt x="156" y="-123" on="1"/>
        <pt x="156" y="823" on="1"/>
      </contour>
    </TTGlyph>
    <TTGlyph name="bracketleft.case" xMin="156" yMin="-133" xMax="444" yMax="813">
      <component glyphName="bracketleft" x="0" y="-10" flags="0x0"/>
    </TTGlyph>
    <TTGlyph name="bracketright" xMin="156" yMin="-123" xMax="444" yMax="823">
      <contour>
        <pt x="156" y="-123" on="1"/>
        <pt x="156" y="-5" on="1"/>
        <pt x="295" y="-5" on="1"/>
        <pt x="295" y="705" on="1"/>
        <pt x="156" y="705" on="1"/>
        <pt x="156" y="823" on="1"/>
        <pt x="444" y="823" on="1"/>
        <pt x="444" y="-123" on="1"/>
      </contour>
    </TTGlyph>
    <TTGlyph name="bracketright.case" xMin="156" yMin="-133" xMax="444" yMax="813">
      <component glyphName="bracketright" x="0" y="-10" flags="0x0"/>
    </TTGlyph>
    <TTGlyph name="breve" xMin="128" yMin="612" xMax="472" yMax="801">
      <contour>
        <pt x="223" y="612" on="0"/>
        <pt x="135" y="713" on="0"/>
        <pt x="128" y="786" on="1"/>
        <pt x="215" y="801" on="1"/>
        <pt x="224" y="763" on="0"/>
        <pt x="267" y="720" on="0"/>
        <pt x="300" y="720" on="1"/>
        <pt x="333" y="720" on="0"/>
        <pt x="376" y="763" on="0"/>
        <pt x="385" y="801" on="1"/>
        <pt x="472" y="786" on="1"/>
        <pt x="465" y="714" on="0"/>
        <pt x="377" y="612" on="0"/>
        <pt x="300" y="612" on="1"/>
      </contour>
    </TTGlyph>
    <TTGlyph name="breve.case" xMin="128" yMin="751" xMax="472" yMax="921">
      <contour>
        <pt x="222" y="751" on="0"/>
        <pt x="136" y="836" on="0"/>
        <pt x="128" y="905" on="1"/>
        <pt x="215" y="921" on="1"/>
        <pt x="225" y="890" on="0"/>
        <pt x="265" y="861" on="0"/>
        <pt x="300" y="861" on="1"/>
        <pt x="335" y="861" on="0"/>
        <pt x="375" y="890" on="0"/>
        <pt x="385" y="921" on="1"/>
        <pt x="472" y="905" on="1"/>
        <pt x="465" y="837" on="0"/>
        <pt x="378" y="751" on="0"/>
        <pt x="300" y="751" on="1"/>
      </contour>
    </TTGlyph>
    <TTGlyph name="brevecy" xMin="128" yMin="612" xMax="472" yMax="782">
      <contour>
        <pt x="223" y="612" on="0"/>
        <pt x="135" y="702" on="0"/>
        <pt x="128" y="767" on="1"/>
        <pt x="215" y="782" on="1"/>
        <pt x="222" y="753" on="0"/>
        <pt x="266" y="721" on="0"/>
        <pt x="300" y="721" on="1"/>
        <pt x="334" y="721" on="0"/>
        <pt x="378" y="753" on="0"/>
        <pt x="385" y="782" on="1"/>
        <pt x="472" y="767" on="1"/>
        <pt x="465" y="702" on="0"/>
        <pt x="377" y="612" on="0"/>
        <pt x="300" y="612" on="1"/>
      </contour>
    </TTGlyph>
    <TTGlyph name="brevecy.case" xMin="128" yMin="738" xMax="472" yMax="908">
      <contour>
        <pt x="223" y="738" on="0"/>
        <pt x="135" y="828" on="0"/>
        <pt x="128" y="893" on="1"/>
        <pt x="215" y="908" on="1"/>
        <pt x="222" y="879" on="0"/>
        <pt x="266" y="847" on="0"/>
        <pt x="300" y="847" on="1"/>
        <pt x="334" y="847" on="0"/>
        <pt x="378" y="879" on="0"/>
        <pt x="385" y="908" on="1"/>
        <pt x="472" y="893" on="1"/>
        <pt x="465" y="828" on="0"/>
        <pt x="377" y="738" on="0"/>
        <pt x="300" y="738" on="1"/>
      </contour>
    </TTGlyph>
    <TTGlyph name="brokenbar" xMin="226" yMin="-105" xMax="373" yMax="810">
      <contour>
        <pt x="226" y="446" on="1"/>
        <pt x="226" y="810" on="1"/>
        <pt x="373" y="810" on="1"/>
        <pt x="373" y="446" on="1"/>
      </contour>
      <contour>
        <pt x="226" y="-105" on="1"/>
        <pt x="226" y="259" on="1"/>
        <pt x="373" y="259" on="1"/>
        <pt x="373" y="-105" on="1"/>
      </contour>
    </TTGlyph>
    <TTGlyph name="bullet" xMin="158" yMin="200" xMax="442" yMax="483">
      <contour>
        <pt x="239" y="200" on="0"/>
        <pt x="158" y="281" on="0"/>
        <pt x="158" y="342" on="1"/>
        <pt x="158" y="403" on="0"/>
        <pt x="238" y="483" on="0"/>
        <pt x="300" y="483" on="1"/>
        <pt x="362" y="483" on="0"/>
        <pt x="442" y="403" on="0"/>
        <pt x="442" y="341" on="1"/>
        <pt x="442" y="280" on="0"/>
        <pt x="362" y="200" on="0"/>
        <pt x="300" y="200" on="1"/>
      </contour>
    </TTGlyph>
    <TTGlyph name="bulletoperator" xMin="189" yMin="231" xMax="411" yMax="453">
      <component glyphName="periodcentered" x="0" y="0" flags="0x0"/>
    </TTGlyph>
    <TTGlyph name="bullseye" xMin="30" yMin="0" xMax="570" yMax="540">
      <contour>
        <pt x="373" y="540" on="0"/>
        <pt x="497" y="467" on="0"/>
        <pt x="570" y="343" on="0"/>
        <pt x="570" y="270" on="1"/>
        <pt x="570" y="196" on="0"/>
        <pt x="497" y="72" on="0"/>
        <pt x="373" y="0" on="0"/>
        <pt x="300" y="0" on="1"/>
        <pt x="226" y="0" on="0"/>
        <pt x="102" y="72" on="0"/>
        <pt x="30" y="196" on="0"/>
        <pt x="30" y="270" on="1"/>
        <pt x="30" y="343" on="0"/>
        <pt x="102" y="467" on="0"/>
        <pt x="226" y="540" on="0"/>
        <pt x="300" y="540" on="1"/>
      </contour>
      <contour>
        <pt x="248" y="460" on="0"/>
        <pt x="161" y="409" on="0"/>
        <pt x="110" y="321" on="0"/>
        <pt x="110" y="270" on="1"/>
        <pt x="110" y="218" on="0"/>
        <pt x="161" y="131" on="0"/>
        <pt x="248" y="80" on="0"/>
        <pt x="300" y="80" on="1"/>
        <pt x="351" y="80" on="0"/>
        <pt x="439" y="131" on="0"/>
        <pt x="490" y="218" on="0"/>
        <pt x="490" y="270" on="1"/>
        <pt x="490" y="321" on="0"/>
        <pt x="438" y="408" on="0"/>
        <pt x="351" y="460" on="0"/>
        <pt x="300" y="460" on="1"/>
      </contour>
      <contour>
        <pt x="345" y="380" on="0"/>
        <pt x="410" y="315" on="0"/>
        <pt x="410" y="270" on="1"/>
        <pt x="410" y="224" on="0"/>
        <pt x="345" y="160" on="0"/>
        <pt x="300" y="160" on="1"/>
        <pt x="254" y="160" on="0"/>
        <pt x="190" y="224" on="0"/>
        <pt x="190" y="270" on="1"/>
        <pt x="190" y="315" on="0"/>
        <pt x="254" y="380" on="0"/>
        <pt x="300" y="380" on="1"/>
      </contour>
      <contour>
        <pt x="287" y="300" on="0"/>
        <pt x="270" y="282" on="0"/>
        <pt x="270" y="270" on="1"/>
        <pt x="270" y="257" on="0"/>
        <pt x="287" y="240" on="0"/>
        <pt x="300" y="240" on="1"/>
        <pt x="312" y="240" on="0"/>
        <pt x="330" y="257" on="0"/>
        <pt x="330" y="270" on="1"/>
        <pt x="330" y="282" on="0"/>
        <pt x="312" y="300" on="0"/>
        <pt x="300" y="300" on="1"/>
      </contour>
    </TTGlyph>
    <TTGlyph name="c" xMin="69" yMin="-17" xMax="540" yMax="549">
      <contour>
        <pt x="382" y="108" on="0"/>
        <pt x="438" y="131" on="0"/>
        <pt x="470" y="153" on="1"/>
        <pt x="540" y="53" on="1"/>
        <pt x="502" y="21" on="0"/>
        <pt x="402" y="-17" on="0"/>
        <pt x="343" y="-17" on="1"/>
        <pt x="258" y="-17" on="0"/>
        <pt x="135" y="53" on="0"/>
        <pt x="69" y="179" on="0"/>
        <pt x="69" y="262" on="1"/>
        <pt x="69" y="345" on="0"/>
        <pt x="137" y="475" on="0"/>
        <pt x="262" y="549" on="0"/>
        <pt x="346" y="549" on="1"/>
        <pt x="405" y="549" on="0"/>
        <pt x="499" y="516" on="0"/>
        <pt x="540" y="482" on="1"/>
        <pt x="472" y="387" on="1"/>
        <pt x="414" y="427" on="0"/>
        <pt x="353" y="427" on="1"/>
        <pt x="233" y="427" on="0"/>
        <pt x="233" y="262" on="1"/>
        <pt x="233" y="179" on="0"/>
        <pt x="296" y="108" on="0"/>
        <pt x="352" y="108" on="1"/>
      </contour>
    </TTGlyph>
    <TTGlyph name="cacute" xMin="69" yMin="-17" xMax="540" yMax="819">
      <component glyphName="c" x="0" y="0" flags="0x0"/>
      <component glyphName="acute" x="44" y="-13" flags="0x0"/>
    </TTGlyph>
    <TTGlyph name="cacute.loclPLK" xMin="69" yMin="-17" xMax="540" yMax="811">
      <component glyphName="c" x="0" y="0" flags="0x0"/>
      <component glyphName="acute.loclPLK" x="82" y="-13" flags="0x0"/>
    </TTGlyph>
    <TTGlyph name="capslock" xMin="0" yMin="-12" xMax="600" yMax="832">
      <contour>
        <pt x="431" y="534" on="1"/>
        <pt x="431" y="255" on="1"/>
        <pt x="169" y="255" on="1"/>
        <pt x="169" y="534" on="1"/>
        <pt x="0" y="534" on="1"/>
        <pt x="300" y="832" on="1"/>
        <pt x="600" y="534" on="1"/>
      </contour>
      <contour>
        <pt x="216" y="579" on="1"/>
        <pt x="216" y="297" on="1"/>
        <pt x="384" y="297" on="1"/>
        <pt x="384" y="579" on="1"/>
        <pt x="491" y="579" on="1"/>
        <pt x="300" y="768" on="1"/>
        <pt x="109" y="579" on="1"/>
      </contour>
      <contour>
        <pt x="431" y="16" on="0"/>
        <pt x="404" y="-12" on="0"/>
        <pt x="381" y="-12" on="1"/>
        <pt x="219" y="-12" on="1"/>
        <pt x="197" y="-12" on="0"/>
        <pt x="169" y="16" on="0"/>
        <pt x="169" y="38" on="1"/>
        <pt x="169" y="155" on="1"/>
        <pt x="431" y="155" on="1"/>
        <pt x="431" y="38" on="1"/>
      </contour>
      <contour>
        <pt x="216" y="32" on="1"/>
        <pt x="384" y="32" on="1"/>
        <pt x="384" y="113" on="1"/>
        <pt x="216" y="113" on="1"/>
      </contour>
    </TTGlyph>
    <TTGlyph name="caron" xMin="110" yMin="612" xMax="489" yMax="815">
      <contour>
        <pt x="348" y="612" on="1"/>
        <pt x="252" y="612" on="1"/>
        <pt x="110" y="751" on="1"/>
        <pt x="167" y="815" on="1"/>
        <pt x="300" y="721" on="1"/>
        <pt x="433" y="815" on="1"/>
        <pt x="489" y="751" on="1"/>
      </contour>
    </TTGlyph>
    <TTGlyph name="caron.alt" xMin="226" yMin="462" xMax="402" yMax="711">
      <contour>
        <pt x="324" y="462" on="1"/>
        <pt x="226" y="478" on="1"/>
        <pt x="263" y="711" on="1"/>
        <pt x="402" y="694" on="1"/>
      </contour>
    </TTGlyph>
    <TTGlyph name="caron.case" xMin="110" yMin="751" xMax="489" yMax="946">
      <contour>
        <pt x="348" y="751" on="1"/>
        <pt x="252" y="751" on="1"/>
        <pt x="110" y="881" on="1"/>
        <pt x="167" y="946" on="1"/>
        <pt x="300" y="861" on="1"/>
        <pt x="433" y="946" on="1"/>
        <pt x="489" y="881" on="1"/>
      </contour>
    </TTGlyph>
    <TTGlyph name="ccaron" xMin="69" yMin="-17" xMax="540" yMax="802">
      <component glyphName="c" x="0" y="0" flags="0x0"/>
      <component glyphName="caron" x="44" y="-13" flags="0x0"/>
    </TTGlyph>
    <TTGlyph name="ccedilla" xMin="69" yMin="-262" xMax="540" yMax="549">
      <contour>
        <pt x="507" y="25" on="0"/>
        <pt x="420" y="-12" on="0"/>
        <pt x="369" y="-16" on="1"/>
        <pt x="369" y="-48" on="1"/>
        <pt x="420" y="-54" on="0"/>
        <pt x="472" y="-106" on="0"/>
        <pt x="472" y="-147" on="1"/>
        <pt x="472" y="-198" on="0"/>
        <pt x="390" y="-262" on="0"/>
        <pt x="323" y="-262" on="1"/>
        <pt x="289" y="-262" on="0"/>
        <pt x="229" y="-244" on="0"/>
        <pt x="206" y="-231" on="1"/>
        <pt x="242" y="-159" on="1"/>
        <pt x="276" y="-176" on="0"/>
        <pt x="306" y="-176" on="1"/>
        <pt x="359" y="-176" on="0"/>
        <pt x="359" y="-145" on="1"/>
        <pt x="359" y="-126" on="0"/>
        <pt x="315" y="-112" on="0"/>
        <pt x="267" y="-112" on="1"/>
        <pt x="278" y="-11" on="1"/>
        <pt x="180" y="8" on="0"/>
        <pt x="69" y="153" on="0"/>
        <pt x="69" y="262" on="1"/>
        <pt x="69" y="345" on="0"/>
        <pt x="137" y="475" on="0"/>
        <pt x="262" y="549" on="0"/>
        <pt x="346" y="549" on="1"/>
        <pt x="405" y="549" on="0"/>
        <pt x="499" y="516" on="0"/>
        <pt x="540" y="482" on="1"/>
        <pt x="472" y="387" on="1"/>
        <pt x="414" y="427" on="0"/>
        <pt x="353" y="427" on="1"/>
        <pt x="233" y="427" on="0"/>
        <pt x="233" y="262" on="1"/>
        <pt x="233" y="179" on="0"/>
        <pt x="296" y="108" on="0"/>
        <pt x="352" y="108" on="1"/>
        <pt x="382" y="108" on="0"/>
        <pt x="438" y="131" on="0"/>
        <pt x="470" y="153" on="1"/>
        <pt x="540" y="53" on="1"/>
      </contour>
    </TTGlyph>
    <TTGlyph name="ccircumflex" xMin="69" yMin="-17" xMax="540" yMax="802">
      <component glyphName="c" x="0" y="0" flags="0x0"/>
      <component glyphName="circumflex" x="44" y="-13" flags="0x0"/>
    </TTGlyph>
    <TTGlyph name="cdotaccent" xMin="69" yMin="-17" xMax="540" yMax="796">
      <component glyphName="c" x="0" y="0" flags="0x0"/>
      <component glyphName="dotaccent" x="44" y="-13" flags="0x0"/>
    </TTGlyph>
    <TTGlyph name="cedilla" xMin="167" yMin="-262" xMax="433" yMax="16">
      <contour>
        <pt x="320" y="-126" on="0"/>
        <pt x="276" y="-112" on="0"/>
        <pt x="228" y="-112" on="1"/>
        <pt x="242" y="16" on="1"/>
        <pt x="330" y="16" on="1"/>
        <pt x="330" y="-48" on="1"/>
        <pt x="381" y="-54" on="0"/>
        <pt x="433" y="-106" on="0"/>
        <pt x="433" y="-147" on="1"/>
        <pt x="433" y="-198" on="0"/>
        <pt x="351" y="-262" on="0"/>
        <pt x="284" y="-262" on="1"/>
        <pt x="250" y="-262" on="0"/>
        <pt x="190" y="-244" on="0"/>
        <pt x="167" y="-231" on="1"/>
        <pt x="203" y="-159" on="1"/>
        <pt x="237" y="-176" on="0"/>
        <pt x="267" y="-176" on="1"/>
        <pt x="320" y="-176" on="0"/>
        <pt x="320" y="-145" on="1"/>
      </contour>
    </TTGlyph>
    <TTGlyph name="cedilla.case" xMin="167" yMin="-262" xMax="433" yMax="16">
      <contour>
        <pt x="320" y="-126" on="0"/>
        <pt x="276" y="-112" on="0"/>
        <pt x="228" y="-112" on="1"/>
        <pt x="242" y="16" on="1"/>
        <pt x="330" y="16" on="1"/>
        <pt x="330" y="-48" on="1"/>
        <pt x="381" y="-54" on="0"/>
        <pt x="433" y="-106" on="0"/>
        <pt x="433" y="-147" on="1"/>
        <pt x="433" y="-198" on="0"/>
        <pt x="351" y="-262" on="0"/>
        <pt x="284" y="-262" on="1"/>
        <pt x="250" y="-262" on="0"/>
        <pt x="190" y="-244" on="0"/>
        <pt x="167" y="-231" on="1"/>
        <pt x="203" y="-159" on="1"/>
        <pt x="237" y="-176" on="0"/>
        <pt x="267" y="-176" on="1"/>
        <pt x="320" y="-176" on="0"/>
        <pt x="320" y="-145" on="1"/>
      </contour>
    </TTGlyph>
    <TTGlyph name="cent" xMin="79" yMin="-161" xMax="521" yMax="692">
      <contour>
        <pt x="464" y="531" on="0"/>
        <pt x="521" y="483" on="1"/>
        <pt x="453" y="388" on="1"/>
        <pt x="427" y="409" on="0"/>
        <pt x="379" y="427" on="0"/>
        <pt x="352" y="427" on="1"/>
        <pt x="298" y="427" on="0"/>
        <pt x="244" y="349" on="0"/>
        <pt x="244" y="262" on="1"/>
        <pt x="244" y="177" on="0"/>
        <pt x="299" y="108" on="0"/>
        <pt x="351" y="108" on="1"/>
        <pt x="377" y="108" on="0"/>
        <pt x="421" y="126" on="0"/>
        <pt x="450" y="147" on="1"/>
        <pt x="521" y="46" on="1"/>
        <pt x="463" y="0" on="0"/>
        <pt x="392" y="-12" on="1"/>
        <pt x="392" y="-161" on="1"/>
        <pt x="279" y="-161" on="1"/>
        <pt x="279" y="-9" on="1"/>
        <pt x="184" y="10" on="0"/>
        <pt x="79" y="154" on="0"/>
        <pt x="79" y="262" on="1"/>
        <pt x="79" y="371" on="0"/>
        <pt x="186" y="522" on="0"/>
        <pt x="280" y="541" on="1"/>
        <pt x="280" y="692" on="1"/>
        <pt x="392" y="692" on="1"/>
        <pt x="392" y="543" on="1"/>
      </contour>
    </TTGlyph>
    <TTGlyph name="cent.tosf" xMin="79" yMin="-161" xMax="521" yMax="692">
      <component glyphName="cent" x="0" y="0" flags="0x0"/>
    </TTGlyph>
    <TTGlyph name="chi" xMin="15" yMin="-236" xMax="584" yMax="548">
      <contour>
        <pt x="428" y="-236" on="1"/>
        <pt x="301" y="75" on="1"/>
        <pt x="172" y="-236" on="1"/>
        <pt x="15" y="-200" on="1"/>
        <pt x="215" y="174" on="1"/>
        <pt x="182" y="272" on="0"/>
        <pt x="80" y="437" on="0"/>
        <pt x="17" y="494" on="1"/>
        <pt x="169" y="548" on="1"/>
        <pt x="216" y="489" on="0"/>
        <pt x="281" y="356" on="0"/>
        <pt x="300" y="270" on="1"/>
        <pt x="415" y="547" on="1"/>
        <pt x="564" y="514" on="1"/>
        <pt x="382" y="173" on="1"/>
        <pt x="584" y="-193" on="1"/>
      </contour>
    </TTGlyph>
    <TTGlyph name="circle" xMin="30" yMin="0" xMax="570" yMax="540">
      <contour>
        <pt x="373" y="540" on="0"/>
        <pt x="497" y="467" on="0"/>
        <pt x="570" y="343" on="0"/>
        <pt x="570" y="270" on="1"/>
        <pt x="570" y="196" on="0"/>
        <pt x="497" y="72" on="0"/>
        <pt x="373" y="0" on="0"/>
        <pt x="300" y="0" on="1"/>
        <pt x="226" y="0" on="0"/>
        <pt x="102" y="72" on="0"/>
        <pt x="30" y="196" on="0"/>
        <pt x="30" y="270" on="1"/>
        <pt x="30" y="343" on="0"/>
        <pt x="102" y="467" on="0"/>
        <pt x="226" y="540" on="0"/>
        <pt x="300" y="540" on="1"/>
      </contour>
      <contour>
        <pt x="248" y="460" on="0"/>
        <pt x="161" y="409" on="0"/>
        <pt x="110" y="321" on="0"/>
        <pt x="110" y="270" on="1"/>
        <pt x="110" y="218" on="0"/>
        <pt x="161" y="131" on="0"/>
        <pt x="248" y="80" on="0"/>
        <pt x="300" y="80" on="1"/>
        <pt x="351" y="80" on="0"/>
        <pt x="439" y="131" on="0"/>
        <pt x="490" y="218" on="0"/>
        <pt x="490" y="270" on="1"/>
        <pt x="490" y="321" on="0"/>
        <pt x="438" y="408" on="0"/>
        <pt x="351" y="460" on="0"/>
        <pt x="300" y="460" on="1"/>
      </contour>
    </TTGlyph>
    <TTGlyph name="circumflex" xMin="110" yMin="612" xMax="489" yMax="815">
      <contour>
        <pt x="252" y="815" on="1"/>
        <pt x="348" y="815" on="1"/>
        <pt x="489" y="676" on="1"/>
        <pt x="433" y="612" on="1"/>
        <pt x="300" y="705" on="1"/>
        <pt x="167" y="612" on="1"/>
        <pt x="110" y="676" on="1"/>
      </contour>
    </TTGlyph>
    <TTGlyph name="circumflex.case" xMin="110" yMin="748" xMax="489" yMax="943">
      <contour>
        <pt x="433" y="748" on="1"/>
        <pt x="300" y="833" on="1"/>
        <pt x="167" y="748" on="1"/>
        <pt x="110" y="813" on="1"/>
        <pt x="252" y="943" on="1"/>
        <pt x="348" y="943" on="1"/>
        <pt x="489" y="813" on="1"/>
      </contour>
    </TTGlyph>
    <TTGlyph name="clear" xMin="-80" yMin="28" xMax="680" yMax="673">
      <contour>
        <pt x="653" y="673" on="0"/>
        <pt x="680" y="646" on="0"/>
        <pt x="680" y="623" on="1"/>
        <pt x="680" y="78" on="1"/>
        <pt x="680" y="56" on="0"/>
        <pt x="653" y="28" on="0"/>
        <pt x="630" y="28" on="1"/>
        <pt x="-30" y="28" on="1"/>
        <pt x="-53" y="28" on="0"/>
        <pt x="-80" y="56" on="0"/>
        <pt x="-80" y="78" on="1"/>
        <pt x="-80" y="623" on="1"/>
        <pt x="-80" y="646" on="0"/>
        <pt x="-53" y="673" on="0"/>
        <pt x="-30" y="673" on="1"/>
        <pt x="630" y="673" on="1"/>
      </contour>
      <contour>
        <pt x="166" y="557" on="1"/>
        <pt x="99" y="488" on="1"/>
        <pt x="233" y="355" on="1"/>
        <pt x="99" y="221" on="1"/>
        <pt x="166" y="154" on="1"/>
        <pt x="300" y="288" on="1"/>
        <pt x="434" y="154" on="1"/>
        <pt x="501" y="221" on="1"/>
        <pt x="367" y="355" on="1"/>
        <pt x="501" y="488" on="1"/>
        <pt x="434" y="557" on="1"/>
        <pt x="300" y="422" on="1"/>
      </contour>
    </TTGlyph>
    <TTGlyph name="club" xMin="70" yMin="0" xMax="530" yMax="539">
      <contour>
        <pt x="356" y="539" on="0"/>
        <pt x="420" y="491" on="0"/>
        <pt x="420" y="444" on="1"/>
        <pt x="420" y="408" on="0"/>
        <pt x="392" y="363" on="0"/>
        <pt x="366" y="342" on="1"/>
        <pt x="386" y="351" on="0"/>
        <pt x="411" y="356" on="0"/>
        <pt x="433" y="356" on="1"/>
        <pt x="480" y="356" on="0"/>
        <pt x="530" y="295" on="0"/>
        <pt x="530" y="239" on="1"/>
        <pt x="530" y="193" on="0"/>
        <pt x="471" y="134" on="0"/>
        <pt x="426" y="134" on="1"/>
        <pt x="390" y="134" on="0"/>
        <pt x="338" y="166" on="0"/>
        <pt x="318" y="200" on="1"/>
        <pt x="334" y="65" on="1"/>
        <pt x="490" y="65" on="1"/>
        <pt x="530" y="0" on="1"/>
        <pt x="70" y="0" on="1"/>
        <pt x="110" y="65" on="1"/>
        <pt x="266" y="65" on="1"/>
        <pt x="282" y="200" on="1"/>
        <pt x="261" y="166" on="0"/>
        <pt x="209" y="134" on="0"/>
        <pt x="174" y="134" on="1"/>
        <pt x="129" y="134" on="0"/>
        <pt x="70" y="193" on="0"/>
        <pt x="70" y="239" on="1"/>
        <pt x="70" y="295" on="0"/>
        <pt x="120" y="356" on="0"/>
        <pt x="167" y="356" on="1"/>
        <pt x="189" y="356" on="0"/>
        <pt x="214" y="351" on="0"/>
        <pt x="234" y="342" on="1"/>
        <pt x="208" y="363" on="0"/>
        <pt x="180" y="408" on="0"/>
        <pt x="180" y="444" on="1"/>
        <pt x="180" y="491" on="0"/>
        <pt x="244" y="539" on="0"/>
        <pt x="300" y="539" on="1"/>
      </contour>
    </TTGlyph>
    <TTGlyph name="colon" xMin="195" yMin="-17" xMax="404" yMax="539">
      <contour>
        <pt x="195" y="477" on="0"/>
        <pt x="256" y="539" on="0"/>
        <pt x="300" y="539" on="1"/>
        <pt x="344" y="539" on="0"/>
        <pt x="404" y="477" on="0"/>
        <pt x="404" y="434" on="1"/>
        <pt x="404" y="391" on="0"/>
        <pt x="344" y="330" on="0"/>
        <pt x="300" y="330" on="1"/>
        <pt x="256" y="330" on="0"/>
        <pt x="195" y="391" on="0"/>
        <pt x="195" y="434" on="1"/>
      </contour>
      <contour>
        <pt x="195" y="131" on="0"/>
        <pt x="256" y="192" on="0"/>
        <pt x="300" y="192" on="1"/>
        <pt x="344" y="192" on="0"/>
        <pt x="404" y="131" on="0"/>
        <pt x="404" y="88" on="1"/>
        <pt x="404" y="45" on="0"/>
        <pt x="344" y="-17" on="0"/>
        <pt x="300" y="-17" on="1"/>
        <pt x="256" y="-17" on="0"/>
        <pt x="195" y="45" on="0"/>
        <pt x="195" y="88" on="1"/>
      </contour>
    </TTGlyph>
    <TTGlyph name="comma" xMin="189" yMin="-203" xMax="409" yMax="206">
      <contour>
        <pt x="347" y="206" on="0"/>
        <pt x="409" y="144" on="0"/>
        <pt x="409" y="98" on="1"/>
        <pt x="409" y="71" on="0"/>
        <pt x="391" y="19" on="0"/>
        <pt x="366" y="-40" on="1"/>
        <pt x="294" y="-203" on="1"/>
        <pt x="189" y="-203" on="1"/>
        <pt x="239" y="9" on="1"/>
        <pt x="217" y="23" on="0"/>
        <pt x="192" y="70" on="0"/>
        <pt x="192" y="99" on="1"/>
        <pt x="192" y="144" on="0"/>
        <pt x="254" y="206" on="0"/>
        <pt x="300" y="206" on="1"/>
      </contour>
    </TTGlyph>
    <TTGlyph name="copyright" xMin="9" yMin="92" xMax="591" yMax="759">
      <contour>
        <pt x="391" y="759" on="0"/>
        <pt x="522" y="671" on="0"/>
        <pt x="591" y="518" on="0"/>
        <pt x="591" y="424" on="1"/>
        <pt x="591" y="330" on="0"/>
        <pt x="522" y="179" on="0"/>
        <pt x="391" y="92" on="0"/>
        <pt x="301" y="92" on="1"/>
        <pt x="209" y="92" on="0"/>
        <pt x="77" y="179" on="0"/>
        <pt x="9" y="330" on="0"/>
        <pt x="9" y="424" on="1"/>
        <pt x="9" y="518" on="0"/>
        <pt x="79" y="671" on="0"/>
        <pt x="211" y="759" on="0"/>
        <pt x="301" y="759" on="1"/>
      </contour>
      <contour>
        <pt x="197" y="689" on="0"/>
        <pt x="92" y="541" on="0"/>
        <pt x="92" y="424" on="1"/>
        <pt x="92" y="308" on="0"/>
        <pt x="197" y="161" on="0"/>
        <pt x="301" y="161" on="1"/>
        <pt x="404" y="161" on="0"/>
        <pt x="509" y="308" on="0"/>
        <pt x="509" y="424" on="1"/>
        <pt x="509" y="541" on="0"/>
        <pt x="405" y="689" on="0"/>
        <pt x="301" y="689" on="1"/>
      </contour>
      <contour>
        <pt x="347" y="622" on="0"/>
        <pt x="402" y="599" on="0"/>
        <pt x="426" y="574" on="1"/>
        <pt x="377" y="514" on="1"/>
        <pt x="363" y="525" on="0"/>
        <pt x="337" y="536" on="0"/>
        <pt x="321" y="536" on="1"/>
        <pt x="290" y="536" on="0"/>
        <pt x="254" y="483" on="0"/>
        <pt x="254" y="425" on="1"/>
        <pt x="254" y="316" on="0"/>
        <pt x="321" y="316" on="1"/>
        <pt x="355" y="316" on="0"/>
        <pt x="386" y="343" on="1"/>
        <pt x="431" y="278" on="1"/>
        <pt x="378" y="228" on="0"/>
        <pt x="311" y="228" on="1"/>
        <pt x="231" y="228" on="0"/>
        <pt x="141" y="331" on="0"/>
        <pt x="141" y="425" on="1"/>
        <pt x="141" y="516" on="0"/>
        <pt x="235" y="622" on="0"/>
        <pt x="310" y="622" on="1"/>
      </contour>
    </TTGlyph>
    <TTGlyph name="currency" xMin="31" yMin="71" xMax="569" yMax="612">
      <contour>
        <pt x="231" y="560" on="0"/>
        <pt x="301" y="560" on="1"/>
        <pt x="369" y="560" on="0"/>
        <pt x="418" y="531" on="1"/>
        <pt x="498" y="611" on="1"/>
        <pt x="569" y="540" on="1"/>
        <pt x="491" y="461" on="1"/>
        <pt x="523" y="408" on="0"/>
        <pt x="523" y="342" on="1"/>
        <pt x="523" y="275" on="0"/>
        <pt x="490" y="222" on="1"/>
        <pt x="569" y="143" on="1"/>
        <pt x="498" y="73" on="1"/>
        <pt x="418" y="151" on="1"/>
        <pt x="369" y="123" on="0"/>
        <pt x="301" y="123" on="1"/>
        <pt x="232" y="123" on="0"/>
        <pt x="182" y="151" on="1"/>
        <pt x="102" y="71" on="1"/>
        <pt x="31" y="142" on="1"/>
        <pt x="111" y="223" on="1"/>
        <pt x="80" y="273" on="0"/>
        <pt x="80" y="342" on="1"/>
        <pt x="80" y="412" on="0"/>
        <pt x="110" y="461" on="1"/>
        <pt x="31" y="541" on="1"/>
        <pt x="102" y="612" on="1"/>
        <pt x="183" y="531" on="1"/>
      </contour>
      <contour>
        <pt x="252" y="453" on="0"/>
        <pt x="202" y="395" on="0"/>
        <pt x="202" y="342" on="1"/>
        <pt x="202" y="288" on="0"/>
        <pt x="252" y="230" on="0"/>
        <pt x="301" y="230" on="1"/>
        <pt x="349" y="230" on="0"/>
        <pt x="398" y="288" on="0"/>
        <pt x="398" y="342" on="1"/>
        <pt x="398" y="395" on="0"/>
        <pt x="349" y="453" on="0"/>
        <pt x="301" y="453" on="1"/>
      </contour>
    </TTGlyph>
    <TTGlyph name="currency.tosf" xMin="31" yMin="71" xMax="569" yMax="612">
      <component glyphName="currency" x="0" y="0" flags="0x0"/>
    </TTGlyph>
    <TTGlyph name="d" xMin="40" yMin="-17" xMax="530" yMax="759">
      <contour>
        <pt x="530" y="0" on="1"/>
        <pt x="390" y="0" on="1"/>
        <pt x="382" y="58" on="1"/>
        <pt x="358" y="24" on="0"/>
        <pt x="284" y="-17" on="0"/>
        <pt x="235" y="-17" on="1"/>
        <pt x="139" y="-17" on="0"/>
        <pt x="40" y="135" on="0"/>
        <pt x="40" y="267" on="1"/>
        <pt x="40" y="349" on="0"/>
        <pt x="92" y="477" on="0"/>
        <pt x="188" y="549" on="0"/>
        <pt x="252" y="549" on="1"/>
        <pt x="324" y="549" on="0"/>
        <pt x="372" y="499" on="1"/>
        <pt x="372" y="759" on="1"/>
        <pt x="530" y="742" on="1"/>
      </contour>
      <contour>
        <pt x="203" y="433" on="0"/>
        <pt x="203" y="266" on="1"/>
        <pt x="203" y="174" on="0"/>
        <pt x="246" y="99" on="0"/>
        <pt x="285" y="99" on="1"/>
        <pt x="335" y="99" on="0"/>
        <pt x="372" y="160" on="1"/>
        <pt x="372" y="389" on="1"/>
        <pt x="355" y="411" on="0"/>
        <pt x="318" y="433" on="0"/>
        <pt x="294" y="433" on="1"/>
      </contour>
    </TTGlyph>
    <TTGlyph name="dagger" xMin="61" yMin="0" xMax="539" yMax="679">
      <contour>
        <pt x="539" y="536" on="1"/>
        <pt x="539" y="408" on="1"/>
        <pt x="374" y="408" on="1"/>
        <pt x="374" y="0" on="1"/>
        <pt x="226" y="0" on="1"/>
        <pt x="226" y="408" on="1"/>
        <pt x="61" y="408" on="1"/>
        <pt x="61" y="536" on="1"/>
        <pt x="226" y="536" on="1"/>
        <pt x="226" y="679" on="1"/>
        <pt x="374" y="679" on="1"/>
        <pt x="374" y="536" on="1"/>
      </contour>
    </TTGlyph>
    <TTGlyph name="dagger.tosf" xMin="54" yMin="0" xMax="532" yMax="679">
      <component glyphName="dagger" x="-6" y="0" flags="0x0"/>
    </TTGlyph>
    <TTGlyph name="daggerdbl" xMin="61" yMin="0" xMax="539" yMax="679">
      <contour>
        <pt x="539" y="535" on="1"/>
        <pt x="539" y="408" on="1"/>
        <pt x="374" y="408" on="1"/>
        <pt x="374" y="273" on="1"/>
        <pt x="539" y="273" on="1"/>
        <pt x="539" y="145" on="1"/>
        <pt x="374" y="145" on="1"/>
        <pt x="374" y="0" on="1"/>
        <pt x="226" y="0" on="1"/>
        <pt x="226" y="145" on="1"/>
        <pt x="61" y="145" on="1"/>
        <pt x="61" y="273" on="1"/>
        <pt x="226" y="273" on="1"/>
        <pt x="226" y="408" on="1"/>
        <pt x="61" y="408" on="1"/>
        <pt x="61" y="535" on="1"/>
        <pt x="226" y="535" on="1"/>
        <pt x="226" y="679" on="1"/>
        <pt x="374" y="679" on="1"/>
        <pt x="374" y="535" on="1"/>
      </contour>
    </TTGlyph>
    <TTGlyph name="daggerdbl.tosf" xMin="54" yMin="0" xMax="532" yMax="679">
      <component glyphName="daggerdbl" x="-6" y="0" flags="0x0"/>
    </TTGlyph>
    <TTGlyph name="dcaron" xMin="1" yMin="-17" xMax="693" yMax="764">
      <component glyphName="d" x="-38" y="0" flags="0x0"/>
      <component glyphName="caron.alt" x="291" y="52" flags="0x0"/>
    </TTGlyph>
    <TTGlyph name="dcroat" xMin="22" yMin="-17" xMax="592" yMax="759">
      <contour>
        <pt x="512" y="593" on="1"/>
        <pt x="512" y="0" on="1"/>
        <pt x="372" y="0" on="1"/>
        <pt x="364" y="58" on="1"/>
        <pt x="339" y="24" on="0"/>
        <pt x="266" y="-17" on="0"/>
        <pt x="217" y="-17" on="1"/>
        <pt x="121" y="-17" on="0"/>
        <pt x="22" y="135" on="0"/>
        <pt x="22" y="267" on="1"/>
        <pt x="22" y="349" on="0"/>
        <pt x="73" y="477" on="0"/>
        <pt x="169" y="549" on="0"/>
        <pt x="233" y="549" on="1"/>
        <pt x="306" y="549" on="0"/>
        <pt x="354" y="499" on="1"/>
        <pt x="354" y="593" on="1"/>
        <pt x="231" y="593" on="1"/>
        <pt x="231" y="685" on="1"/>
        <pt x="354" y="685" on="1"/>
        <pt x="354" y="759" on="1"/>
        <pt x="512" y="742" on="1"/>
        <pt x="512" y="685" on="1"/>
        <pt x="592" y="685" on="1"/>
        <pt x="592" y="593" on="1"/>
      </contour>
      <contour>
        <pt x="319" y="433" on="0"/>
        <pt x="276" y="433" on="1"/>
        <pt x="233" y="433" on="0"/>
        <pt x="184" y="352" on="0"/>
        <pt x="184" y="266" on="1"/>
        <pt x="184" y="174" on="0"/>
        <pt x="227" y="99" on="0"/>
        <pt x="267" y="99" on="1"/>
        <pt x="317" y="99" on="0"/>
        <pt x="354" y="160" on="1"/>
        <pt x="354" y="389" on="1"/>
      </contour>
    </TTGlyph>
    <TTGlyph name="degree" xMin="71" yMin="420" xMax="428" yMax="759">
      <contour>
        <pt x="294" y="759" on="0"/>
        <pt x="377" y="718" on="0"/>
        <pt x="428" y="641" on="0"/>
        <pt x="428" y="590" on="1"/>
        <pt x="428" y="539" on="0"/>
        <pt x="377" y="461" on="0"/>
        <pt x="294" y="420" on="0"/>
        <pt x="249" y="420" on="1"/>
        <pt x="204" y="420" on="0"/>
        <pt x="122" y="461" on="0"/>
        <pt x="71" y="539" on="0"/>
        <pt x="71" y="590" on="1"/>
        <pt x="71" y="641" on="0"/>
        <pt x="122" y="718" on="0"/>
        <pt x="204" y="759" on="0"/>
        <pt x="249" y="759" on="1"/>
      </contour>
      <contour>
        <pt x="217" y="668" on="0"/>
        <pt x="180" y="626" on="0"/>
        <pt x="180" y="590" on="1"/>
        <pt x="180" y="555" on="0"/>
        <pt x="218" y="512" on="0"/>
        <pt x="249" y="512" on="1"/>
        <pt x="281" y="512" on="0"/>
        <pt x="319" y="555" on="0"/>
        <pt x="319" y="590" on="1"/>
        <pt x="319" y="626" on="0"/>
        <pt x="281" y="668" on="0"/>
        <pt x="249" y="668" on="1"/>
      </contour>
    </TTGlyph>
    <TTGlyph name="degree.tosf" xMin="71" yMin="420" xMax="428" yMax="759">
      <component glyphName="degree" x="0" y="0" flags="0x0"/>
    </TTGlyph>
    <TTGlyph name="deleterightKey" xMin="-80" yMin="28" xMax="740" yMax="673">
      <contour>
        <pt x="400" y="28" on="1"/>
        <pt x="-30" y="28" on="1"/>
        <pt x="-53" y="28" on="0"/>
        <pt x="-80" y="56" on="0"/>
        <pt x="-80" y="78" on="1"/>
        <pt x="-80" y="623" on="1"/>
        <pt x="-80" y="646" on="0"/>
        <pt x="-53" y="673" on="0"/>
        <pt x="-30" y="673" on="1"/>
        <pt x="400" y="673" on="1"/>
        <pt x="740" y="352" on="1"/>
      </contour>
      <contour>
        <pt x="86" y="557" on="1"/>
        <pt x="19" y="488" on="1"/>
        <pt x="153" y="355" on="1"/>
        <pt x="19" y="221" on="1"/>
        <pt x="86" y="154" on="1"/>
        <pt x="220" y="288" on="1"/>
        <pt x="354" y="154" on="1"/>
        <pt x="421" y="221" on="1"/>
        <pt x="287" y="355" on="1"/>
        <pt x="421" y="488" on="1"/>
        <pt x="354" y="557" on="1"/>
        <pt x="220" y="422" on="1"/>
      </contour>
    </TTGlyph>
    <TTGlyph name="delta" xMin="43" yMin="-17" xMax="559" yMax="759">
      <contour>
        <pt x="431" y="759" on="0"/>
        <pt x="510" y="696" on="1"/>
        <pt x="435" y="610" on="1"/>
        <pt x="385" y="646" on="0"/>
        <pt x="325" y="646" on="1"/>
        <pt x="291" y="646" on="0"/>
        <pt x="257" y="622" on="0"/>
        <pt x="257" y="602" on="1"/>
        <pt x="257" y="586" on="0"/>
        <pt x="271" y="563" on="0"/>
        <pt x="311" y="541" on="0"/>
        <pt x="350" y="525" on="1"/>
        <pt x="425" y="494" on="0"/>
        <pt x="515" y="423" on="0"/>
        <pt x="559" y="321" on="0"/>
        <pt x="559" y="248" on="1"/>
        <pt x="559" y="169" on="0"/>
        <pt x="496" y="49" on="0"/>
        <pt x="379" y="-17" on="0"/>
        <pt x="301" y="-17" on="1"/>
        <pt x="221" y="-17" on="0"/>
        <pt x="105" y="48" on="0"/>
        <pt x="43" y="165" on="0"/>
        <pt x="43" y="242" on="1"/>
        <pt x="43" y="319" on="0"/>
        <pt x="122" y="433" on="0"/>
        <pt x="197" y="466" on="1"/>
        <pt x="141" y="495" on="0"/>
        <pt x="99" y="557" on="0"/>
        <pt x="99" y="605" on="1"/>
        <pt x="99" y="674" on="0"/>
        <pt x="212" y="759" on="0"/>
        <pt x="319" y="759" on="1"/>
      </contour>
      <contour>
        <pt x="239" y="393" on="0"/>
        <pt x="205" y="311" on="0"/>
        <pt x="205" y="249" on="1"/>
        <pt x="205" y="99" on="0"/>
        <pt x="300" y="99" on="1"/>
        <pt x="397" y="99" on="0"/>
        <pt x="397" y="249" on="1"/>
        <pt x="397" y="300" on="0"/>
        <pt x="377" y="362" on="0"/>
        <pt x="330" y="406" on="0"/>
        <pt x="284" y="426" on="1"/>
      </contour>
    </TTGlyph>
    <TTGlyph name="diamond" xMin="104" yMin="-12" xMax="496" yMax="539">
      <contour>
        <pt x="300" y="-12" on="1"/>
        <pt x="104" y="266" on="1"/>
        <pt x="300" y="539" on="1"/>
        <pt x="496" y="266" on="1"/>
      </contour>
    </TTGlyph>
    <TTGlyph name="dieresis" xMin="102" yMin="637" xMax="498" yMax="797">
      <contour>
        <pt x="150" y="637" on="0"/>
        <pt x="102" y="684" on="0"/>
        <pt x="102" y="718" on="1"/>
        <pt x="102" y="751" on="0"/>
        <pt x="150" y="797" on="0"/>
        <pt x="184" y="797" on="1"/>
        <pt x="219" y="797" on="0"/>
        <pt x="267" y="751" on="0"/>
        <pt x="267" y="718" on="1"/>
        <pt x="267" y="684" on="0"/>
        <pt x="219" y="637" on="0"/>
        <pt x="184" y="637" on="1"/>
      </contour>
      <contour>
        <pt x="382" y="637" on="0"/>
        <pt x="333" y="684" on="0"/>
        <pt x="333" y="718" on="1"/>
        <pt x="333" y="751" on="0"/>
        <pt x="382" y="797" on="0"/>
        <pt x="416" y="797" on="1"/>
        <pt x="450" y="797" on="0"/>
        <pt x="498" y="751" on="0"/>
        <pt x="498" y="718" on="1"/>
        <pt x="498" y="684" on="0"/>
        <pt x="451" y="637" on="0"/>
        <pt x="416" y="637" on="1"/>
      </contour>
    </TTGlyph>
    <TTGlyph name="dieresis.case" xMin="107" yMin="762" xMax="503" yMax="922">
      <contour>
        <pt x="155" y="762" on="0"/>
        <pt x="107" y="808" on="0"/>
        <pt x="107" y="842" on="1"/>
        <pt x="107" y="876" on="0"/>
        <pt x="155" y="922" on="0"/>
        <pt x="189" y="922" on="1"/>
        <pt x="224" y="922" on="0"/>
        <pt x="271" y="876" on="0"/>
        <pt x="271" y="842" on="1"/>
        <pt x="271" y="808" on="0"/>
        <pt x="224" y="762" on="0"/>
        <pt x="189" y="762" on="1"/>
      </contour>
      <contour>
        <pt x="387" y="762" on="0"/>
        <pt x="338" y="809" on="0"/>
        <pt x="338" y="842" on="1"/>
        <pt x="338" y="875" on="0"/>
        <pt x="387" y="922" on="0"/>
        <pt x="420" y="922" on="1"/>
        <pt x="455" y="922" on="0"/>
        <pt x="503" y="876" on="0"/>
        <pt x="503" y="842" on="1"/>
        <pt x="503" y="808" on="0"/>
        <pt x="455" y="762" on="0"/>
        <pt x="420" y="762" on="1"/>
      </contour>
    </TTGlyph>
    <TTGlyph name="dieresistonos" xMin="87" yMin="608" xMax="513" yMax="949">
      <contour>
        <pt x="343" y="735" on="1"/>
        <pt x="253" y="749" on="1"/>
        <pt x="282" y="949" on="1"/>
        <pt x="415" y="926" on="1"/>
      </contour>
      <contour>
        <pt x="200" y="762" on="0"/>
        <pt x="246" y="717" on="0"/>
        <pt x="246" y="685" on="1"/>
        <pt x="246" y="653" on="0"/>
        <pt x="200" y="608" on="0"/>
        <pt x="168" y="608" on="1"/>
        <pt x="134" y="608" on="0"/>
        <pt x="87" y="653" on="0"/>
        <pt x="87" y="685" on="1"/>
        <pt x="87" y="717" on="0"/>
        <pt x="134" y="762" on="0"/>
        <pt x="168" y="762" on="1"/>
      </contour>
      <contour>
        <pt x="467" y="762" on="0"/>
        <pt x="513" y="717" on="0"/>
        <pt x="513" y="685" on="1"/>
        <pt x="513" y="653" on="0"/>
        <pt x="467" y="608" on="0"/>
        <pt x="433" y="608" on="1"/>
        <pt x="401" y="608" on="0"/>
        <pt x="355" y="653" on="0"/>
        <pt x="355" y="685" on="1"/>
        <pt x="355" y="717" on="0"/>
        <pt x="401" y="762" on="0"/>
        <pt x="433" y="762" on="1"/>
      </contour>
    </TTGlyph>
    <TTGlyph name="divide" xMin="83" yMin="14" xMax="517" yMax="623">
      <contour>
        <pt x="338" y="623" on="0"/>
        <pt x="390" y="570" on="0"/>
        <pt x="390" y="532" on="1"/>
        <pt x="390" y="496" on="0"/>
        <pt x="338" y="443" on="0"/>
        <pt x="300" y="443" on="1"/>
        <pt x="262" y="443" on="0"/>
        <pt x="210" y="496" on="0"/>
        <pt x="210" y="532" on="1"/>
        <pt x="210" y="570" on="0"/>
        <pt x="262" y="623" on="0"/>
        <pt x="300" y="623" on="1"/>
      </contour>
      <contour>
        <pt x="83" y="258" on="1"/>
        <pt x="83" y="379" on="1"/>
        <pt x="517" y="379" on="1"/>
        <pt x="517" y="258" on="1"/>
      </contour>
      <contour>
        <pt x="338" y="195" on="0"/>
        <pt x="390" y="142" on="0"/>
        <pt x="390" y="104" on="1"/>
        <pt x="390" y="67" on="0"/>
        <pt x="338" y="14" on="0"/>
        <pt x="300" y="14" on="1"/>
        <pt x="262" y="14" on="0"/>
        <pt x="210" y="67" on="0"/>
        <pt x="210" y="104" on="1"/>
        <pt x="210" y="142" on="0"/>
        <pt x="262" y="195" on="0"/>
        <pt x="300" y="195" on="1"/>
      </contour>
    </TTGlyph>
    <TTGlyph name="divide.tosf" xMin="83" yMin="14" xMax="517" yMax="623">
      <component glyphName="divide" x="0" y="0" flags="0x0"/>
    </TTGlyph>
    <TTGlyph name="divisionslash" xMin="-288" yMin="175" xMax="288" yMax="507">
      <component glyphName="fraction" x="0" y="0" flags="0x0"/>
    </TTGlyph>
    <TTGlyph name="dkshade" xMin="0" yMin="-500" xMax="600" yMax="1000">
      <contour>
        <pt x="550" y="925" on="1"/>
        <pt x="550" y="850" on="1"/>
        <pt x="600" y="850" on="1"/>
        <pt x="600" y="775" on="1"/>
        <pt x="550" y="775" on="1"/>
        <pt x="550" y="700" on="1"/>
        <pt x="600" y="700" on="1"/>
        <pt x="600" y="625" on="1"/>
        <pt x="550" y="625" on="1"/>
        <pt x="550" y="550" on="1"/>
        <pt x="600" y="550" on="1"/>
        <pt x="600" y="475" on="1"/>
        <pt x="550" y="475" on="1"/>
        <pt x="550" y="400" on="1"/>
        <pt x="600" y="400" on="1"/>
        <pt x="600" y="325" on="1"/>
        <pt x="550" y="325" on="1"/>
        <pt x="550" y="250" on="1"/>
        <pt x="600" y="250" on="1"/>
        <pt x="600" y="175" on="1"/>
        <pt x="550" y="175" on="1"/>
        <pt x="550" y="100" on="1"/>
        <pt x="600" y="100" on="1"/>
        <pt x="600" y="25" on="1"/>
        <pt x="550" y="25" on="1"/>
        <pt x="550" y="-50" on="1"/>
        <pt x="600" y="-50" on="1"/>
        <pt x="600" y="-125" on="1"/>
        <pt x="550" y="-125" on="1"/>
        <pt x="550" y="-200" on="1"/>
        <pt x="600" y="-200" on="1"/>
        <pt x="600" y="-275" on="1"/>
        <pt x="550" y="-275" on="1"/>
        <pt x="550" y="-350" on="1"/>
        <pt x="600" y="-350" on="1"/>
        <pt x="600" y="-425" on="1"/>
        <pt x="550" y="-425" on="1"/>
        <pt x="550" y="-500" on="1"/>
        <pt x="500" y="-500" on="1"/>
        <pt x="500" y="-425" on="1"/>
        <pt x="450" y="-425" on="1"/>
        <pt x="450" y="-500" on="1"/>
        <pt x="400" y="-500" on="1"/>
        <pt x="400" y="-425" on="1"/>
        <pt x="350" y="-425" on="1"/>
        <pt x="350" y="-500" on="1"/>
        <pt x="300" y="-500" on="1"/>
        <pt x="300" y="-425" on="1"/>
        <pt x="250" y="-425" on="1"/>
        <pt x="250" y="-500" on="1"/>
        <pt x="200" y="-500" on="1"/>
        <pt x="200" y="-425" on="1"/>
        <pt x="150" y="-425" on="1"/>
        <pt x="150" y="-500" on="1"/>
        <pt x="100" y="-500" on="1"/>
        <pt x="100" y="-425" on="1"/>
        <pt x="50" y="-425" on="1"/>
        <pt x="50" y="-500" on="1"/>
        <pt x="0" y="-500" on="1"/>
        <pt x="0" y="1000" on="1"/>
        <pt x="600" y="1000" on="1"/>
        <pt x="600" y="925" on="1"/>
      </contour>
      <contour>
        <pt x="50" y="850" on="1"/>
        <pt x="100" y="850" on="1"/>
        <pt x="100" y="925" on="1"/>
        <pt x="50" y="925" on="1"/>
      </contour>
      <contour>
        <pt x="150" y="850" on="1"/>
        <pt x="200" y="850" on="1"/>
        <pt x="200" y="925" on="1"/>
        <pt x="150" y="925" on="1"/>
      </contour>
      <contour>
        <pt x="250" y="850" on="1"/>
        <pt x="300" y="850" on="1"/>
        <pt x="300" y="925" on="1"/>
        <pt x="250" y="925" on="1"/>
      </contour>
      <contour>
        <pt x="350" y="850" on="1"/>
        <pt x="400" y="850" on="1"/>
        <pt x="400" y="925" on="1"/>
        <pt x="350" y="925" on="1"/>
      </contour>
      <contour>
        <pt x="450" y="850" on="1"/>
        <pt x="500" y="850" on="1"/>
        <pt x="500" y="925" on="1"/>
        <pt x="450" y="925" on="1"/>
      </contour>
      <contour>
        <pt x="50" y="700" on="1"/>
        <pt x="100" y="700" on="1"/>
        <pt x="100" y="775" on="1"/>
        <pt x="50" y="775" on="1"/>
      </contour>
      <contour>
        <pt x="150" y="700" on="1"/>
        <pt x="200" y="700" on="1"/>
        <pt x="200" y="775" on="1"/>
        <pt x="150" y="775" on="1"/>
      </contour>
      <contour>
        <pt x="250" y="700" on="1"/>
        <pt x="300" y="700" on="1"/>
        <pt x="300" y="775" on="1"/>
        <pt x="250" y="775" on="1"/>
      </contour>
      <contour>
        <pt x="350" y="700" on="1"/>
        <pt x="400" y="700" on="1"/>
        <pt x="400" y="775" on="1"/>
        <pt x="350" y="775" on="1"/>
      </contour>
      <contour>
        <pt x="450" y="700" on="1"/>
        <pt x="500" y="700" on="1"/>
        <pt x="500" y="775" on="1"/>
        <pt x="450" y="775" on="1"/>
      </contour>
      <contour>
        <pt x="50" y="550" on="1"/>
        <pt x="100" y="550" on="1"/>
        <pt x="100" y="625" on="1"/>
        <pt x="50" y="625" on="1"/>
      </contour>
      <contour>
        <pt x="150" y="550" on="1"/>
        <pt x="200" y="550" on="1"/>
        <pt x="200" y="625" on="1"/>
        <pt x="150" y="625" on="1"/>
      </contour>
      <contour>
        <pt x="250" y="550" on="1"/>
        <pt x="300" y="550" on="1"/>
        <pt x="300" y="625" on="1"/>
        <pt x="250" y="625" on="1"/>
      </contour>
      <contour>
        <pt x="350" y="550" on="1"/>
        <pt x="400" y="550" on="1"/>
        <pt x="400" y="625" on="1"/>
        <pt x="350" y="625" on="1"/>
      </contour>
      <contour>
        <pt x="450" y="550" on="1"/>
        <pt x="500" y="550" on="1"/>
        <pt x="500" y="625" on="1"/>
        <pt x="450" y="625" on="1"/>
      </contour>
      <contour>
        <pt x="50" y="400" on="1"/>
        <pt x="100" y="400" on="1"/>
        <pt x="100" y="475" on="1"/>
        <pt x="50" y="475" on="1"/>
      </contour>
      <contour>
        <pt x="150" y="400" on="1"/>
        <pt x="200" y="400" on="1"/>
        <pt x="200" y="475" on="1"/>
        <pt x="150" y="475" on="1"/>
      </contour>
      <contour>
        <pt x="250" y="400" on="1"/>
        <pt x="300" y="400" on="1"/>
        <pt x="300" y="475" on="1"/>
        <pt x="250" y="475" on="1"/>
      </contour>
      <contour>
        <pt x="350" y="400" on="1"/>
        <pt x="400" y="400" on="1"/>
        <pt x="400" y="475" on="1"/>
        <pt x="350" y="475" on="1"/>
      </contour>
      <contour>
        <pt x="450" y="400" on="1"/>
        <pt x="500" y="400" on="1"/>
        <pt x="500" y="475" on="1"/>
        <pt x="450" y="475" on="1"/>
      </contour>
      <contour>
        <pt x="50" y="250" on="1"/>
        <pt x="100" y="250" on="1"/>
        <pt x="100" y="325" on="1"/>
        <pt x="50" y="325" on="1"/>
      </contour>
      <contour>
        <pt x="150" y="250" on="1"/>
        <pt x="200" y="250" on="1"/>
        <pt x="200" y="325" on="1"/>
        <pt x="150" y="325" on="1"/>
      </contour>
      <contour>
        <pt x="250" y="250" on="1"/>
        <pt x="300" y="250" on="1"/>
        <pt x="300" y="325" on="1"/>
        <pt x="250" y="325" on="1"/>
      </contour>
      <contour>
        <pt x="350" y="250" on="1"/>
        <pt x="400" y="250" on="1"/>
        <pt x="400" y="325" on="1"/>
        <pt x="350" y="325" on="1"/>
      </contour>
      <contour>
        <pt x="450" y="250" on="1"/>
        <pt x="500" y="250" on="1"/>
        <pt x="500" y="325" on="1"/>
        <pt x="450" y="325" on="1"/>
      </contour>
      <contour>
        <pt x="50" y="100" on="1"/>
        <pt x="100" y="100" on="1"/>
        <pt x="100" y="175" on="1"/>
        <pt x="50" y="175" on="1"/>
      </contour>
      <contour>
        <pt x="150" y="100" on="1"/>
        <pt x="200" y="100" on="1"/>
        <pt x="200" y="175" on="1"/>
        <pt x="150" y="175" on="1"/>
      </contour>
      <contour>
        <pt x="250" y="100" on="1"/>
        <pt x="300" y="100" on="1"/>
        <pt x="300" y="175" on="1"/>
        <pt x="250" y="175" on="1"/>
      </contour>
      <contour>
        <pt x="350" y="100" on="1"/>
        <pt x="400" y="100" on="1"/>
        <pt x="400" y="175" on="1"/>
        <pt x="350" y="175" on="1"/>
      </contour>
      <contour>
        <pt x="450" y="100" on="1"/>
        <pt x="500" y="100" on="1"/>
        <pt x="500" y="175" on="1"/>
        <pt x="450" y="175" on="1"/>
      </contour>
      <contour>
        <pt x="50" y="-50" on="1"/>
        <pt x="100" y="-50" on="1"/>
        <pt x="100" y="25" on="1"/>
        <pt x="50" y="25" on="1"/>
      </contour>
      <contour>
        <pt x="150" y="-50" on="1"/>
        <pt x="200" y="-50" on="1"/>
        <pt x="200" y="25" on="1"/>
        <pt x="150" y="25" on="1"/>
      </contour>
      <contour>
        <pt x="250" y="-50" on="1"/>
        <pt x="300" y="-50" on="1"/>
        <pt x="300" y="25" on="1"/>
        <pt x="250" y="25" on="1"/>
      </contour>
      <contour>
        <pt x="350" y="-50" on="1"/>
        <pt x="400" y="-50" on="1"/>
        <pt x="400" y="25" on="1"/>
        <pt x="350" y="25" on="1"/>
      </contour>
      <contour>
        <pt x="450" y="-50" on="1"/>
        <pt x="500" y="-50" on="1"/>
        <pt x="500" y="25" on="1"/>
        <pt x="450" y="25" on="1"/>
      </contour>
      <contour>
        <pt x="50" y="-200" on="1"/>
        <pt x="100" y="-200" on="1"/>
        <pt x="100" y="-125" on="1"/>
        <pt x="50" y="-125" on="1"/>
      </contour>
      <contour>
        <pt x="150" y="-200" on="1"/>
        <pt x="200" y="-200" on="1"/>
        <pt x="200" y="-125" on="1"/>
        <pt x="150" y="-125" on="1"/>
      </contour>
      <contour>
        <pt x="250" y="-200" on="1"/>
        <pt x="300" y="-200" on="1"/>
        <pt x="300" y="-125" on="1"/>
        <pt x="250" y="-125" on="1"/>
      </contour>
      <contour>
        <pt x="350" y="-200" on="1"/>
        <pt x="400" y="-200" on="1"/>
        <pt x="400" y="-125" on="1"/>
        <pt x="350" y="-125" on="1"/>
      </contour>
      <contour>
        <pt x="450" y="-200" on="1"/>
        <pt x="500" y="-200" on="1"/>
        <pt x="500" y="-125" on="1"/>
        <pt x="450" y="-125" on="1"/>
      </contour>
      <contour>
        <pt x="50" y="-350" on="1"/>
        <pt x="100" y="-350" on="1"/>
        <pt x="100" y="-275" on="1"/>
        <pt x="50" y="-275" on="1"/>
      </contour>
      <contour>
        <pt x="150" y="-350" on="1"/>
        <pt x="200" y="-350" on="1"/>
        <pt x="200" y="-275" on="1"/>
        <pt x="150" y="-275" on="1"/>
      </contour>
      <contour>
        <pt x="250" y="-350" on="1"/>
        <pt x="300" y="-350" on="1"/>
        <pt x="300" y="-275" on="1"/>
        <pt x="250" y="-275" on="1"/>
      </contour>
      <contour>
        <pt x="350" y="-350" on="1"/>
        <pt x="400" y="-350" on="1"/>
        <pt x="400" y="-275" on="1"/>
        <pt x="350" y="-275" on="1"/>
      </contour>
      <contour>
        <pt x="450" y="-350" on="1"/>
        <pt x="500" y="-350" on="1"/>
        <pt x="500" y="-275" on="1"/>
        <pt x="450" y="-275" on="1"/>
      </contour>
    </TTGlyph>
    <TTGlyph name="dnblock" xMin="0" yMin="-500" xMax="600" yMax="250">
      <contour>
        <pt x="0" y="-500" on="1"/>
        <pt x="0" y="250" on="1"/>
        <pt x="600" y="250" on="1"/>
        <pt x="600" y="-500" on="1"/>
      </contour>
    </TTGlyph>
    <TTGlyph name="dollar" xMin="42" yMin="-162" xMax="558" yMax="856">
      <contour>
        <pt x="463" y="698" on="0"/>
        <pt x="546" y="629" on="1"/>
        <pt x="469" y="549" on="1"/>
        <pt x="416" y="592" on="0"/>
        <pt x="349" y="597" on="1"/>
        <pt x="349" y="422" on="1"/>
        <pt x="457" y="387" on="0"/>
        <pt x="558" y="290" on="0"/>
        <pt x="558" y="204" on="1"/>
        <pt x="558" y="118" on="0"/>
        <pt x="448" y="-1" on="0"/>
        <pt x="349" y="-13" on="1"/>
        <pt x="349" y="-162" on="1"/>
        <pt x="268" y="-162" on="1"/>
        <pt x="268" y="-16" on="1"/>
        <pt x="198" y="-11" on="0"/>
        <pt x="82" y="41" on="0"/>
        <pt x="42" y="79" on="1"/>
        <pt x="118" y="167" on="1"/>
        <pt x="153" y="136" on="0"/>
        <pt x="225" y="103" on="0"/>
        <pt x="268" y="100" on="1"/>
        <pt x="268" y="308" on="1"/>
        <pt x="161" y="344" on="0"/>
        <pt x="67" y="440" on="0"/>
        <pt x="67" y="512" on="1"/>
        <pt x="67" y="593" on="0"/>
        <pt x="175" y="697" on="0"/>
        <pt x="268" y="707" on="1"/>
        <pt x="268" y="856" on="1"/>
        <pt x="349" y="856" on="1"/>
        <pt x="349" y="708" on="1"/>
      </contour>
      <contour>
        <pt x="239" y="591" on="0"/>
        <pt x="208" y="555" on="0"/>
        <pt x="208" y="530" on="1"/>
        <pt x="208" y="503" on="0"/>
        <pt x="231" y="470" on="0"/>
        <pt x="268" y="453" on="1"/>
        <pt x="268" y="596" on="1"/>
      </contour>
      <contour>
        <pt x="411" y="117" on="0"/>
        <pt x="411" y="185" on="1"/>
        <pt x="411" y="216" on="0"/>
        <pt x="385" y="258" on="0"/>
        <pt x="349" y="276" on="1"/>
        <pt x="349" y="103" on="1"/>
      </contour>
    </TTGlyph>
    <TTGlyph name="dollar.tosf" xMin="42" yMin="-162" xMax="558" yMax="856">
      <component glyphName="dollar" x="0" y="0" flags="0x0"/>
    </TTGlyph>
    <TTGlyph name="dotaccent" xMin="206" yMin="631" xMax="393" yMax="809">
      <contour>
        <pt x="340" y="809" on="0"/>
        <pt x="393" y="758" on="0"/>
        <pt x="393" y="720" on="1"/>
        <pt x="393" y="682" on="0"/>
        <pt x="340" y="631" on="0"/>
        <pt x="300" y="631" on="1"/>
        <pt x="259" y="631" on="0"/>
        <pt x="206" y="682" on="0"/>
        <pt x="206" y="720" on="1"/>
        <pt x="206" y="758" on="0"/>
        <pt x="259" y="809" on="0"/>
        <pt x="300" y="809" on="1"/>
      </contour>
    </TTGlyph>
    <TTGlyph name="dotaccent.case" xMin="211" yMin="756" xMax="398" yMax="934">
      <contour>
        <pt x="345" y="934" on="0"/>
        <pt x="398" y="883" on="0"/>
        <pt x="398" y="845" on="1"/>
        <pt x="398" y="807" on="0"/>
        <pt x="345" y="756" on="0"/>
        <pt x="305" y="756" on="1"/>
        <pt x="263" y="756" on="0"/>
        <pt x="211" y="806" on="0"/>
        <pt x="211" y="845" on="1"/>
        <pt x="211" y="883" on="0"/>
        <pt x="264" y="934" on="0"/>
        <pt x="305" y="934" on="1"/>
      </contour>
    </TTGlyph>
    <TTGlyph name="dotlessi" xMin="86" yMin="0" xMax="530" yMax="531">
      <contour>
        <pt x="530" y="108" on="1"/>
        <pt x="530" y="0" on="1"/>
        <pt x="86" y="0" on="1"/>
        <pt x="86" y="108" on="1"/>
        <pt x="236" y="108" on="1"/>
        <pt x="236" y="423" on="1"/>
        <pt x="91" y="423" on="1"/>
        <pt x="91" y="531" on="1"/>
        <pt x="394" y="531" on="1"/>
        <pt x="394" y="108" on="1"/>
      </contour>
    </TTGlyph>
    <TTGlyph name="e" xMin="46" yMin="-17" xMax="554" yMax="549">
      <contour>
        <pt x="222" y="98" on="0"/>
        <pt x="335" y="98" on="1"/>
        <pt x="408" y="98" on="0"/>
        <pt x="468" y="146" on="1"/>
        <pt x="534" y="56" on="1"/>
        <pt x="495" y="22" on="0"/>
        <pt x="387" y="-17" on="0"/>
        <pt x="322" y="-17" on="1"/>
        <pt x="233" y="-17" on="0"/>
        <pt x="109" y="54" on="0"/>
        <pt x="46" y="181" on="0"/>
        <pt x="46" y="265" on="1"/>
        <pt x="46" y="345" on="0"/>
        <pt x="107" y="474" on="0"/>
        <pt x="223" y="549" on="0"/>
        <pt x="303" y="549" on="1"/>
        <pt x="419" y="549" on="0"/>
        <pt x="554" y="404" on="0"/>
        <pt x="554" y="276" on="1"/>
        <pt x="554" y="243" on="0"/>
        <pt x="551" y="219" on="1"/>
        <pt x="207" y="219" on="1"/>
      </contour>
      <contour>
        <pt x="215" y="443" on="0"/>
        <pt x="205" y="315" on="1"/>
        <pt x="400" y="315" on="1"/>
        <pt x="398" y="443" on="0"/>
        <pt x="305" y="443" on="1"/>
      </contour>
    </TTGlyph>
    <TTGlyph name="eacute" xMin="46" yMin="-17" xMax="554" yMax="832">
      <component glyphName="e" x="0" y="0" flags="0x0"/>
      <component glyphName="acute" x="7" y="0" flags="0x0"/>
    </TTGlyph>
    <TTGlyph name="ebreve" xMin="46" yMin="-17" xMax="554" yMax="801">
      <component glyphName="e" x="0" y="0" flags="0x0"/>
      <component glyphName="breve" x="7" y="0" flags="0x0"/>
    </TTGlyph>
    <TTGlyph name="ecaron" xMin="46" yMin="-17" xMax="554" yMax="815">
      <component glyphName="e" x="0" y="0" flags="0x0"/>
      <component glyphName="caron" x="7" y="0" flags="0x0"/>
    </TTGlyph>
    <TTGlyph name="ecircumflex" xMin="46" yMin="-17" xMax="554" yMax="815">
      <component glyphName="e" x="0" y="0" flags="0x0"/>
      <component glyphName="circumflex" x="7" y="0" flags="0x0"/>
    </TTGlyph>
    <TTGlyph name="edieresis" xMin="46" yMin="-17" xMax="554" yMax="797">
      <component glyphName="e" x="0" y="0" flags="0x0"/>
      <component glyphName="dieresis" x="7" y="0" flags="0x0"/>
    </TTGlyph>
    <TTGlyph name="edotaccent" xMin="46" yMin="-17" xMax="554" yMax="809">
      <component glyphName="e" x="0" y="0" flags="0x0"/>
      <component glyphName="dotaccent" x="7" y="0" flags="0x0"/>
    </TTGlyph>
    <TTGlyph name="egrave" xMin="46" yMin="-17" xMax="554" yMax="832">
      <component glyphName="e" x="0" y="0" flags="0x0"/>
      <component glyphName="grave" x="7" y="0" flags="0x0"/>
    </TTGlyph>
    <TTGlyph name="eight" xMin="43" yMin="-17" xMax="557" yMax="711">
      <contour>
        <pt x="530" y="479" on="0"/>
        <pt x="479" y="409" on="0"/>
        <pt x="423" y="377" on="1"/>
        <pt x="557" y="309" on="0"/>
        <pt x="557" y="188" on="1"/>
        <pt x="557" y="133" on="0"/>
        <pt x="497" y="39" on="0"/>
        <pt x="380" y="-17" on="0"/>
        <pt x="297" y="-17" on="1"/>
        <pt x="216" y="-17" on="0"/>
        <pt x="101" y="38" on="0"/>
        <pt x="43" y="129" on="0"/>
        <pt x="43" y="184" on="1"/>
        <pt x="43" y="242" on="0"/>
        <pt x="110" y="331" on="0"/>
        <pt x="170" y="357" on="1"/>
        <pt x="115" y="392" on="0"/>
        <pt x="70" y="463" on="0"/>
        <pt x="70" y="519" on="1"/>
        <pt x="70" y="577" on="0"/>
        <pt x="130" y="664" on="0"/>
        <pt x="235" y="711" on="0"/>
        <pt x="301" y="711" on="1"/>
        <pt x="368" y="711" on="0"/>
        <pt x="472" y="666" on="0"/>
        <pt x="530" y="583" on="0"/>
        <pt x="530" y="527" on="1"/>
      </contour>
      <contour>
        <pt x="220" y="483" on="0"/>
        <pt x="268" y="435" on="0"/>
        <pt x="321" y="415" on="1"/>
        <pt x="354" y="439" on="0"/>
        <pt x="380" y="487" on="0"/>
        <pt x="380" y="518" on="1"/>
        <pt x="380" y="557" on="0"/>
        <pt x="340" y="603" on="0"/>
        <pt x="301" y="603" on="1"/>
        <pt x="262" y="603" on="0"/>
        <pt x="220" y="561" on="0"/>
        <pt x="220" y="519" on="1"/>
      </contour>
      <contour>
        <pt x="399" y="223" on="0"/>
        <pt x="372" y="266" on="0"/>
        <pt x="318" y="297" on="0"/>
        <pt x="267" y="315" on="1"/>
        <pt x="201" y="273" on="0"/>
        <pt x="201" y="194" on="1"/>
        <pt x="201" y="149" on="0"/>
        <pt x="252" y="96" on="0"/>
        <pt x="301" y="96" on="1"/>
        <pt x="350" y="96" on="0"/>
        <pt x="399" y="149" on="0"/>
        <pt x="399" y="189" on="1"/>
      </contour>
    </TTGlyph>
    <TTGlyph name="eight.dnom" xMin="135" yMin="-6" xMax="465" yMax="327">
      <contour>
        <pt x="448" y="217" on="0"/>
        <pt x="416" y="187" on="0"/>
        <pt x="383" y="177" on="1"/>
        <pt x="425" y="164" on="0"/>
        <pt x="465" y="126" on="0"/>
        <pt x="465" y="94" on="1"/>
        <pt x="465" y="50" on="0"/>
        <pt x="377" y="-6" on="0"/>
        <pt x="297" y="-6" on="1"/>
        <pt x="218" y="-6" on="0"/>
        <pt x="135" y="47" on="0"/>
        <pt x="135" y="92" on="1"/>
        <pt x="135" y="122" on="0"/>
        <pt x="172" y="159" on="0"/>
        <pt x="211" y="170" on="1"/>
        <pt x="180" y="185" on="0"/>
        <pt x="151" y="217" on="0"/>
        <pt x="151" y="242" on="1"/>
        <pt x="151" y="278" on="0"/>
        <pt x="231" y="327" on="0"/>
        <pt x="300" y="327" on="1"/>
        <pt x="369" y="327" on="0"/>
        <pt x="448" y="279" on="0"/>
        <pt x="448" y="243" on="1"/>
      </contour>
      <contour>
        <pt x="263" y="228" on="0"/>
        <pt x="283" y="215" on="0"/>
        <pt x="307" y="208" on="1"/>
        <pt x="324" y="216" on="0"/>
        <pt x="338" y="228" on="0"/>
        <pt x="338" y="236" on="1"/>
        <pt x="338" y="244" on="0"/>
        <pt x="318" y="257" on="0"/>
        <pt x="300" y="257" on="1"/>
        <pt x="282" y="257" on="0"/>
        <pt x="263" y="245" on="0"/>
        <pt x="263" y="237" on="1"/>
      </contour>
      <contour>
        <pt x="351" y="109" on="0"/>
        <pt x="320" y="125" on="0"/>
        <pt x="283" y="134" on="1"/>
        <pt x="248" y="120" on="0"/>
        <pt x="248" y="100" on="1"/>
        <pt x="248" y="71" on="0"/>
        <pt x="300" y="71" on="1"/>
        <pt x="324" y="71" on="0"/>
        <pt x="351" y="85" on="0"/>
        <pt x="351" y="96" on="1"/>
      </contour>
    </TTGlyph>
    <TTGlyph name="eight.numr" xMin="135" yMin="365" xMax="465" yMax="698">
      <component glyphName="eight.dnom" x="0" y="371" flags="0x0"/>
    </TTGlyph>
    <TTGlyph name="eight.tosf" xMin="43" yMin="-17" xMax="557" yMax="711">
      <contour>
        <pt x="530" y="479" on="0"/>
        <pt x="479" y="409" on="0"/>
        <pt x="423" y="377" on="1"/>
        <pt x="557" y="309" on="0"/>
        <pt x="557" y="188" on="1"/>
        <pt x="557" y="133" on="0"/>
        <pt x="497" y="39" on="0"/>
        <pt x="380" y="-17" on="0"/>
        <pt x="297" y="-17" on="1"/>
        <pt x="216" y="-17" on="0"/>
        <pt x="101" y="38" on="0"/>
        <pt x="43" y="129" on="0"/>
        <pt x="43" y="184" on="1"/>
        <pt x="43" y="242" on="0"/>
        <pt x="110" y="331" on="0"/>
        <pt x="170" y="357" on="1"/>
        <pt x="115" y="392" on="0"/>
        <pt x="70" y="463" on="0"/>
        <pt x="70" y="519" on="1"/>
        <pt x="70" y="577" on="0"/>
        <pt x="130" y="664" on="0"/>
        <pt x="235" y="711" on="0"/>
        <pt x="301" y="711" on="1"/>
        <pt x="368" y="711" on="0"/>
        <pt x="472" y="666" on="0"/>
        <pt x="530" y="583" on="0"/>
        <pt x="530" y="527" on="1"/>
      </contour>
      <contour>
        <pt x="220" y="483" on="0"/>
        <pt x="268" y="435" on="0"/>
        <pt x="321" y="415" on="1"/>
        <pt x="354" y="439" on="0"/>
        <pt x="380" y="487" on="0"/>
        <pt x="380" y="518" on="1"/>
        <pt x="380" y="557" on="0"/>
        <pt x="340" y="603" on="0"/>
        <pt x="301" y="603" on="1"/>
        <pt x="262" y="603" on="0"/>
        <pt x="220" y="561" on="0"/>
        <pt x="220" y="519" on="1"/>
      </contour>
      <contour>
        <pt x="399" y="223" on="0"/>
        <pt x="372" y="266" on="0"/>
        <pt x="318" y="297" on="0"/>
        <pt x="267" y="315" on="1"/>
        <pt x="201" y="273" on="0"/>
        <pt x="201" y="194" on="1"/>
        <pt x="201" y="149" on="0"/>
        <pt x="252" y="96" on="0"/>
        <pt x="301" y="96" on="1"/>
        <pt x="350" y="96" on="0"/>
        <pt x="399" y="149" on="0"/>
        <pt x="399" y="189" on="1"/>
      </contour>
    </TTGlyph>
    <TTGlyph name="eightinferior" xMin="135" yMin="-199" xMax="465" yMax="134">
      <component glyphName="eight.dnom" x="0" y="-193" flags="0x0"/>
    </TTGlyph>
    <TTGlyph name="eightsuperior" xMin="135" yMin="309" xMax="465" yMax="642">
      <component glyphName="eight.dnom" x="0" y="315" flags="0x0"/>
    </TTGlyph>
    <TTGlyph name="ellipsis" xMin="15" yMin="-20" xMax="585" yMax="151">
      <contour>
        <pt x="15" y="101" on="0"/>
        <pt x="65" y="151" on="0"/>
        <pt x="100" y="151" on="1"/>
        <pt x="135" y="151" on="0"/>
        <pt x="185" y="101" on="0"/>
        <pt x="185" y="66" on="1"/>
        <pt x="185" y="31" on="0"/>
        <pt x="135" y="-20" on="0"/>
        <pt x="100" y="-20" on="1"/>
        <pt x="65" y="-20" on="0"/>
        <pt x="15" y="31" on="0"/>
        <pt x="15" y="66" on="1"/>
      </contour>
      <contour>
        <pt x="215" y="101" on="0"/>
        <pt x="265" y="151" on="0"/>
        <pt x="300" y="151" on="1"/>
        <pt x="335" y="151" on="0"/>
        <pt x="385" y="101" on="0"/>
        <pt x="385" y="66" on="1"/>
        <pt x="385" y="31" on="0"/>
        <pt x="335" y="-20" on="0"/>
        <pt x="300" y="-20" on="1"/>
        <pt x="265" y="-20" on="0"/>
        <pt x="215" y="31" on="0"/>
        <pt x="215" y="66" on="1"/>
      </contour>
      <contour>
        <pt x="415" y="101" on="0"/>
        <pt x="465" y="151" on="0"/>
        <pt x="500" y="151" on="1"/>
        <pt x="535" y="151" on="0"/>
        <pt x="585" y="101" on="0"/>
        <pt x="585" y="66" on="1"/>
        <pt x="585" y="31" on="0"/>
        <pt x="535" y="-20" on="0"/>
        <pt x="500" y="-20" on="1"/>
        <pt x="465" y="-20" on="0"/>
        <pt x="415" y="31" on="0"/>
        <pt x="415" y="66" on="1"/>
      </contour>
    </TTGlyph>
    <TTGlyph name="emacron" xMin="46" yMin="-17" xMax="554" yMax="767">
      <component glyphName="e" x="0" y="0" flags="0x0"/>
      <component glyphName="macron" x="7" y="0" flags="0x0"/>
    </TTGlyph>
    <TTGlyph name="emdash" xMin="0" yMin="252" xMax="600" yMax="374">
      <contour>
        <pt x="600" y="374" on="1"/>
        <pt x="600" y="252" on="1"/>
        <pt x="0" y="252" on="1"/>
        <pt x="0" y="374" on="1"/>
      </contour>
    </TTGlyph>
    <TTGlyph name="emdash.case" xMin="0" yMin="292" xMax="600" yMax="414">
      <component glyphName="emdash" x="0" y="40" flags="0x0"/>
    </TTGlyph>
    <TTGlyph name="endash" xMin="27" yMin="252" xMax="573" yMax="374">
      <contour>
        <pt x="573" y="374" on="1"/>
        <pt x="573" y="252" on="1"/>
        <pt x="27" y="252" on="1"/>
        <pt x="27" y="374" on="1"/>
      </contour>
    </TTGlyph>
    <TTGlyph name="endash.case" xMin="27" yMin="292" xMax="573" yMax="414">
      <component glyphName="endash" x="0" y="40" flags="0x0"/>
    </TTGlyph>
    <TTGlyph name="eng" xMin="70" yMin="-222" xMax="530" yMax="549">
      <contour>
        <pt x="530" y="-23" on="0"/>
        <pt x="480" y="-129" on="0"/>
        <pt x="391" y="-192" on="0"/>
        <pt x="319" y="-222" on="1"/>
        <pt x="264" y="-106" on="1"/>
        <pt x="302" y="-89" on="0"/>
        <pt x="348" y="-54" on="0"/>
        <pt x="372" y="4" on="0"/>
        <pt x="372" y="50" on="1"/>
        <pt x="372" y="344" on="1"/>
        <pt x="372" y="394" on="0"/>
        <pt x="351" y="432" on="0"/>
        <pt x="321" y="432" on="1"/>
        <pt x="297" y="432" on="0"/>
        <pt x="252" y="400" on="0"/>
        <pt x="228" y="368" on="1"/>
        <pt x="228" y="0" on="1"/>
        <pt x="70" y="0" on="1"/>
        <pt x="70" y="531" on="1"/>
        <pt x="208" y="531" on="1"/>
        <pt x="219" y="470" on="1"/>
        <pt x="289" y="549" on="0"/>
        <pt x="384" y="549" on="1"/>
        <pt x="454" y="549" on="0"/>
        <pt x="530" y="466" on="0"/>
        <pt x="530" y="390" on="1"/>
        <pt x="530" y="60" on="1"/>
      </contour>
    </TTGlyph>
    <TTGlyph name="eogonek" xMin="46" yMin="-253" xMax="554" yMax="549">
      <contour>
        <pt x="554" y="243" on="0"/>
        <pt x="551" y="219" on="1"/>
        <pt x="207" y="219" on="1"/>
        <pt x="222" y="98" on="0"/>
        <pt x="335" y="98" on="1"/>
        <pt x="408" y="98" on="0"/>
        <pt x="468" y="146" on="1"/>
        <pt x="534" y="56" on="1"/>
        <pt x="490" y="18" on="0"/>
        <pt x="435" y="0" on="1"/>
        <pt x="370" y="-22" on="0"/>
        <pt x="320" y="-76" on="0"/>
        <pt x="320" y="-110" on="1"/>
        <pt x="320" y="-134" on="0"/>
        <pt x="351" y="-159" on="0"/>
        <pt x="378" y="-159" on="1"/>
        <pt x="402" y="-159" on="0"/>
        <pt x="432" y="-152" on="1"/>
        <pt x="420" y="-245" on="1"/>
        <pt x="391" y="-253" on="0"/>
        <pt x="361" y="-253" on="1"/>
        <pt x="295" y="-253" on="0"/>
        <pt x="210" y="-188" on="0"/>
        <pt x="210" y="-130" on="1"/>
        <pt x="210" y="-60" on="0"/>
        <pt x="279" y="-15" on="1"/>
        <pt x="166" y="-3" on="0"/>
        <pt x="46" y="148" on="0"/>
        <pt x="46" y="265" on="1"/>
        <pt x="46" y="345" on="0"/>
        <pt x="107" y="474" on="0"/>
        <pt x="223" y="549" on="0"/>
        <pt x="303" y="549" on="1"/>
        <pt x="419" y="549" on="0"/>
        <pt x="554" y="404" on="0"/>
        <pt x="554" y="276" on="1"/>
      </contour>
      <contour>
        <pt x="398" y="443" on="0"/>
        <pt x="305" y="443" on="1"/>
        <pt x="215" y="443" on="0"/>
        <pt x="205" y="315" on="1"/>
        <pt x="400" y="315" on="1"/>
      </contour>
    </TTGlyph>
    <TTGlyph name="epsilon" xMin="64" yMin="-17" xMax="574" yMax="549">
      <contour>
        <pt x="227" y="223" on="0"/>
        <pt x="227" y="162" on="1"/>
        <pt x="227" y="130" on="0"/>
        <pt x="283" y="96" on="0"/>
        <pt x="337" y="96" on="1"/>
        <pt x="432" y="96" on="0"/>
        <pt x="503" y="136" on="1"/>
        <pt x="574" y="48" on="1"/>
        <pt x="476" y="-17" on="0"/>
        <pt x="325" y="-17" on="1"/>
        <pt x="207" y="-17" on="0"/>
        <pt x="64" y="69" on="0"/>
        <pt x="64" y="149" on="1"/>
        <pt x="64" y="208" on="0"/>
        <pt x="132" y="273" on="0"/>
        <pt x="205" y="283" on="1"/>
        <pt x="84" y="310" on="0"/>
        <pt x="84" y="405" on="1"/>
        <pt x="84" y="472" on="0"/>
        <pt x="214" y="549" on="0"/>
        <pt x="315" y="549" on="1"/>
        <pt x="452" y="549" on="0"/>
        <pt x="542" y="493" on="1"/>
        <pt x="473" y="408" on="1"/>
        <pt x="417" y="439" on="0"/>
        <pt x="336" y="439" on="1"/>
        <pt x="243" y="439" on="0"/>
        <pt x="243" y="383" on="1"/>
        <pt x="243" y="356" on="0"/>
        <pt x="286" y="324" on="0"/>
        <pt x="327" y="324" on="1"/>
        <pt x="434" y="324" on="1"/>
        <pt x="419" y="223" on="1"/>
        <pt x="320" y="223" on="1"/>
      </contour>
    </TTGlyph>
    <TTGlyph name="epsilontonos" xMin="64" yMin="-17" xMax="574" yMax="853">
      <component glyphName="epsilon" x="0" y="0" flags="0x0"/>
      <component glyphName="tonos" x="56" y="0" flags="0x0"/>
    </TTGlyph>
    <TTGlyph name="equal" xMin="73" yMin="145" xMax="527" yMax="478">
      <contour>
        <pt x="73" y="354" on="1"/>
        <pt x="73" y="478" on="1"/>
        <pt x="527" y="478" on="1"/>
        <pt x="527" y="354" on="1"/>
      </contour>
      <contour>
        <pt x="73" y="145" on="1"/>
        <pt x="73" y="268" on="1"/>
        <pt x="527" y="268" on="1"/>
        <pt x="527" y="145" on="1"/>
      </contour>
    </TTGlyph>
    <TTGlyph name="equal.dnom" xMin="161" yMin="61" xMax="439" yMax="273">
      <contour>
        <pt x="161" y="190" on="1"/>
        <pt x="161" y="273" on="1"/>
        <pt x="439" y="273" on="1"/>
        <pt x="439" y="190" on="1"/>
      </contour>
      <contour>
        <pt x="161" y="61" on="1"/>
        <pt x="161" y="143" on="1"/>
        <pt x="439" y="143" on="1"/>
        <pt x="439" y="61" on="1"/>
      </contour>
    </TTGlyph>
    <TTGlyph name="equal.numr" xMin="161" yMin="432" xMax="439" yMax="644">
      <component glyphName="equal.dnom" x="0" y="370" flags="0x0"/>
    </TTGlyph>
    <TTGlyph name="equal.tosf" xMin="73" yMin="145" xMax="527" yMax="478">
      <component glyphName="equal" x="0" y="0" flags="0x0"/>
    </TTGlyph>
    <TTGlyph name="equalsuperior" xMin="161" yMin="376" xMax="439" yMax="588">
      <component glyphName="equal.dnom" x="0" y="315" flags="0x0"/>
    </TTGlyph>
    <TTGlyph name="equivalence" xMin="73" yMin="42" xMax="527" yMax="585">
      <contour>
        <pt x="73" y="461" on="1"/>
        <pt x="73" y="585" on="1"/>
        <pt x="527" y="585" on="1"/>
        <pt x="527" y="461" on="1"/>
      </contour>
      <contour>
        <pt x="73" y="252" on="1"/>
        <pt x="73" y="375" on="1"/>
        <pt x="527" y="375" on="1"/>
        <pt x="527" y="252" on="1"/>
      </contour>
      <contour>
        <pt x="73" y="42" on="1"/>
        <pt x="73" y="165" on="1"/>
        <pt x="527" y="165" on="1"/>
        <pt x="527" y="42" on="1"/>
      </contour>
    </TTGlyph>
    <TTGlyph name="estimated" xMin="21" yMin="-12" xMax="583" yMax="701">
      <contour>
        <pt x="429" y="701" on="0"/>
        <pt x="566" y="572" on="0"/>
        <pt x="583" y="468" on="1"/>
        <pt x="583" y="334" on="1"/>
        <pt x="151" y="334" on="1"/>
        <pt x="151" y="73" on="1"/>
        <pt x="208" y="26" on="0"/>
        <pt x="305" y="26" on="1"/>
        <pt x="373" y="26" on="0"/>
        <pt x="472" y="77" on="0"/>
        <pt x="498" y="123" on="1"/>
        <pt x="547" y="123" on="1"/>
        <pt x="515" y="61" on="0"/>
        <pt x="396" y="-12" on="0"/>
        <pt x="304" y="-12" on="1"/>
        <pt x="181" y="-12" on="0"/>
        <pt x="40" y="111" on="0"/>
        <pt x="21" y="214" on="1"/>
        <pt x="21" y="468" on="1"/>
        <pt x="38" y="572" on="0"/>
        <pt x="175" y="701" on="0"/>
        <pt x="302" y="701" on="1"/>
      </contour>
      <contour>
        <pt x="205" y="662" on="0"/>
        <pt x="151" y="620" on="1"/>
        <pt x="151" y="373" on="1"/>
        <pt x="450" y="373" on="1"/>
        <pt x="450" y="619" on="1"/>
        <pt x="426" y="638" on="0"/>
        <pt x="348" y="662" on="0"/>
        <pt x="303" y="662" on="1"/>
      </contour>
    </TTGlyph>
    <TTGlyph name="eta" xMin="55" yMin="-222" xMax="536" yMax="549">
      <contour>
        <pt x="460" y="549" on="0"/>
        <pt x="536" y="466" on="0"/>
        <pt x="536" y="390" on="1"/>
        <pt x="536" y="-205" on="1"/>
        <pt x="378" y="-222" on="1"/>
        <pt x="378" y="344" on="1"/>
        <pt x="378" y="394" on="0"/>
        <pt x="357" y="432" on="0"/>
        <pt x="327" y="432" on="1"/>
        <pt x="281" y="432" on="0"/>
        <pt x="233" y="368" on="1"/>
        <pt x="233" y="0" on="1"/>
        <pt x="76" y="0" on="1"/>
        <pt x="76" y="382" on="1"/>
        <pt x="76" y="419" on="0"/>
        <pt x="64" y="496" on="0"/>
        <pt x="55" y="525" on="1"/>
        <pt x="201" y="545" on="1"/>
        <pt x="216" y="520" on="0"/>
        <pt x="224" y="468" on="1"/>
        <pt x="293" y="549" on="0"/>
        <pt x="390" y="549" on="1"/>
      </contour>
    </TTGlyph>
    <TTGlyph name="etatonos" xMin="55" yMin="-222" xMax="536" yMax="853">
      <component glyphName="eta" x="0" y="0" flags="0x0"/>
      <component glyphName="tonos" x="50" y="0" flags="0x0"/>
    </TTGlyph>
    <TTGlyph name="eth" xMin="40" yMin="-17" xMax="556" yMax="797">
      <contour>
        <pt x="143" y="646" on="0"/>
        <pt x="93" y="655" on="1"/>
        <pt x="124" y="758" on="1"/>
        <pt x="209" y="746" on="0"/>
        <pt x="270" y="721" on="1"/>
        <pt x="343" y="797" on="1"/>
        <pt x="424" y="727" on="1"/>
        <pt x="371" y="673" on="1"/>
        <pt x="466" y="612" on="0"/>
        <pt x="556" y="414" on="0"/>
        <pt x="556" y="277" on="1"/>
        <pt x="556" y="193" on="0"/>
        <pt x="495" y="60" on="0"/>
        <pt x="376" y="-17" on="0"/>
        <pt x="294" y="-17" on="1"/>
        <pt x="222" y="-17" on="0"/>
        <pt x="106" y="43" on="0"/>
        <pt x="40" y="157" on="0"/>
        <pt x="40" y="234" on="1"/>
        <pt x="40" y="306" on="0"/>
        <pt x="99" y="419" on="0"/>
        <pt x="197" y="482" on="0"/>
        <pt x="255" y="482" on="1"/>
        <pt x="298" y="482" on="0"/>
        <pt x="360" y="457" on="0"/>
        <pt x="389" y="431" on="1"/>
        <pt x="357" y="528" on="0"/>
        <pt x="282" y="582" on="1"/>
        <pt x="226" y="525" on="1"/>
        <pt x="126" y="571" on="1"/>
        <pt x="184" y="631" on="1"/>
      </contour>
      <contour>
        <pt x="397" y="305" on="0"/>
        <pt x="396" y="328" on="1"/>
        <pt x="356" y="371" on="0"/>
        <pt x="296" y="371" on="1"/>
        <pt x="251" y="371" on="0"/>
        <pt x="201" y="303" on="0"/>
        <pt x="201" y="236" on="1"/>
        <pt x="201" y="98" on="0"/>
        <pt x="297" y="98" on="1"/>
        <pt x="349" y="98" on="0"/>
        <pt x="397" y="175" on="0"/>
        <pt x="397" y="256" on="1"/>
      </contour>
    </TTGlyph>
    <TTGlyph name="exclam" xMin="210" yMin="-17" xMax="390" yMax="693">
      <contour>
        <pt x="237" y="255" on="1"/>
        <pt x="216" y="693" on="1"/>
        <pt x="384" y="693" on="1"/>
        <pt x="364" y="255" on="1"/>
      </contour>
      <contour>
        <pt x="338" y="164" on="0"/>
        <pt x="390" y="111" on="0"/>
        <pt x="390" y="73" on="1"/>
        <pt x="390" y="36" on="0"/>
        <pt x="338" y="-17" on="0"/>
        <pt x="300" y="-17" on="1"/>
        <pt x="263" y="-17" on="0"/>
        <pt x="210" y="36" on="0"/>
        <pt x="210" y="73" on="1"/>
        <pt x="210" y="111" on="0"/>
        <pt x="263" y="164" on="0"/>
        <pt x="300" y="164" on="1"/>
      </contour>
    </TTGlyph>
    <TTGlyph name="exclamdown" xMin="210" yMin="-205" xMax="390" yMax="512">
      <contour>
        <pt x="338" y="512" on="0"/>
        <pt x="390" y="458" on="0"/>
        <pt x="390" y="420" on="1"/>
        <pt x="390" y="384" on="0"/>
        <pt x="338" y="331" on="0"/>
        <pt x="300" y="331" on="1"/>
        <pt x="263" y="331" on="0"/>
        <pt x="210" y="384" on="0"/>
        <pt x="210" y="420" on="1"/>
        <pt x="210" y="458" on="0"/>
        <pt x="263" y="512" on="0"/>
        <pt x="300" y="512" on="1"/>
      </contour>
      <contour>
        <pt x="216" y="-205" on="1"/>
        <pt x="237" y="240" on="1"/>
        <pt x="363" y="240" on="1"/>
        <pt x="385" y="-205" on="1"/>
      </contour>
    </TTGlyph>
    <TTGlyph name="exclamdown.case" xMin="210" yMin="0" xMax="390" yMax="711">
      <contour>
        <pt x="338" y="711" on="0"/>
        <pt x="390" y="657" on="0"/>
        <pt x="390" y="619" on="1"/>
        <pt x="390" y="583" on="0"/>
        <pt x="338" y="530" on="0"/>
        <pt x="300" y="530" on="1"/>
        <pt x="263" y="530" on="0"/>
        <pt x="210" y="583" on="0"/>
        <pt x="210" y="619" on="1"/>
        <pt x="210" y="657" on="0"/>
        <pt x="263" y="711" on="0"/>
        <pt x="300" y="711" on="1"/>
      </contour>
      <contour>
        <pt x="216" y="0" on="1"/>
        <pt x="237" y="440" on="1"/>
        <pt x="363" y="440" on="1"/>
        <pt x="385" y="0" on="1"/>
      </contour>
    </TTGlyph>
    <TTGlyph name="f" xMin="77" yMin="0" xMax="590" yMax="759">
      <contour>
        <pt x="510" y="759" on="0"/>
        <pt x="590" y="725" on="1"/>
        <pt x="546" y="622" on="1"/>
        <pt x="495" y="642" on="0"/>
        <pt x="432" y="642" on="1"/>
        <pt x="386" y="642" on="0"/>
        <pt x="345" y="608" on="0"/>
        <pt x="345" y="569" on="1"/>
        <pt x="345" y="498" on="1"/>
        <pt x="518" y="498" on="1"/>
        <pt x="500" y="388" on="1"/>
        <pt x="345" y="388" on="1"/>
        <pt x="345" y="0" on="1"/>
        <pt x="188" y="0" on="1"/>
        <pt x="188" y="388" on="1"/>
        <pt x="77" y="388" on="1"/>
        <pt x="77" y="498" on="1"/>
        <pt x="188" y="498" on="1"/>
        <pt x="188" y="575" on="1"/>
        <pt x="188" y="628" on="0"/>
        <pt x="239" y="711" on="0"/>
        <pt x="338" y="759" on="0"/>
        <pt x="408" y="759" on="1"/>
      </contour>
    </TTGlyph>
    <TTGlyph name="female" xMin="139" yMin="0" xMax="460" yMax="539">
      <contour>
        <pt x="343" y="539" on="0"/>
        <pt x="417" y="497" on="0"/>
        <pt x="460" y="425" on="0"/>
        <pt x="460" y="381" on="1"/>
        <pt x="460" y="321" on="0"/>
        <pt x="383" y="236" on="0"/>
        <pt x="324" y="228" on="1"/>
        <pt x="324" y="145" on="1"/>
        <pt x="420" y="145" on="1"/>
        <pt x="420" y="105" on="1"/>
        <pt x="324" y="105" on="1"/>
        <pt x="324" y="0" on="1"/>
        <pt x="276" y="0" on="1"/>
        <pt x="276" y="105" on="1"/>
        <pt x="180" y="105" on="1"/>
        <pt x="180" y="145" on="1"/>
        <pt x="276" y="145" on="1"/>
        <pt x="276" y="227" on="1"/>
        <pt x="217" y="235" on="0"/>
        <pt x="139" y="321" on="0"/>
        <pt x="139" y="381" on="1"/>
        <pt x="139" y="425" on="0"/>
        <pt x="182" y="497" on="0"/>
        <pt x="255" y="539" on="0"/>
        <pt x="299" y="539" on="1"/>
      </contour>
      <contour>
        <pt x="251" y="493" on="0"/>
        <pt x="190" y="429" on="0"/>
        <pt x="190" y="381" on="1"/>
        <pt x="190" y="333" on="0"/>
        <pt x="251" y="270" on="0"/>
        <pt x="299" y="270" on="1"/>
        <pt x="347" y="270" on="0"/>
        <pt x="409" y="333" on="0"/>
        <pt x="409" y="381" on="1"/>
        <pt x="409" y="429" on="0"/>
        <pt x="347" y="493" on="0"/>
        <pt x="299" y="493" on="1"/>
      </contour>
    </TTGlyph>
    <TTGlyph name="fi" xMin="10" yMin="0" xMax="592" yMax="759">
      <contour>
        <pt x="315" y="108" on="1"/>
        <pt x="376" y="108" on="1"/>
        <pt x="376" y="421" on="1"/>
        <pt x="239" y="421" on="1"/>
        <pt x="239" y="0" on="1"/>
        <pt x="88" y="0" on="1"/>
        <pt x="88" y="421" on="1"/>
        <pt x="10" y="421" on="1"/>
        <pt x="10" y="531" on="1"/>
        <pt x="88" y="531" on="1"/>
        <pt x="88" y="575" on="1"/>
        <pt x="88" y="657" on="0"/>
        <pt x="199" y="759" on="0"/>
        <pt x="302" y="759" on="1"/>
        <pt x="406" y="759" on="0"/>
        <pt x="484" y="725" on="1"/>
        <pt x="441" y="622" on="1"/>
        <pt x="388" y="642" on="0"/>
        <pt x="327" y="642" on="1"/>
        <pt x="280" y="642" on="0"/>
        <pt x="239" y="608" on="0"/>
        <pt x="239" y="569" on="1"/>
        <pt x="239" y="531" on="1"/>
        <pt x="528" y="531" on="1"/>
        <pt x="528" y="108" on="1"/>
        <pt x="592" y="108" on="1"/>
        <pt x="592" y="0" on="1"/>
        <pt x="315" y="0" on="1"/>
      </contour>
    </TTGlyph>
    <TTGlyph name="figuredash" xMin="32" yMin="258" xMax="568" yMax="380">
      <contour>
        <pt x="568" y="380" on="1"/>
        <pt x="568" y="258" on="1"/>
        <pt x="32" y="258" on="1"/>
        <pt x="32" y="380" on="1"/>
      </contour>
    </TTGlyph>
    <TTGlyph name="figuredash.tosf" xMin="32" yMin="258" xMax="568" yMax="380">
      <component glyphName="figuredash" x="0" y="0" flags="0x0"/>
    </TTGlyph>
    <TTGlyph name="filledbox" xMin="30" yMin="0" xMax="570" yMax="540">
      <contour>
        <pt x="30" y="0" on="1"/>
        <pt x="30" y="540" on="1"/>
        <pt x="570" y="540" on="1"/>
        <pt x="570" y="0" on="1"/>
      </contour>
    </TTGlyph>
    <TTGlyph name="filledrect" xMin="30" yMin="0" xMax="570" yMax="270">
      <contour>
        <pt x="30" y="0" on="1"/>
        <pt x="30" y="270" on="1"/>
        <pt x="570" y="270" on="1"/>
        <pt x="570" y="0" on="1"/>
      </contour>
    </TTGlyph>
    <TTGlyph name="firsttonechinese" xMin="147" yMin="671" xMax="452" yMax="781">
      <contour>
        <pt x="147" y="781" on="1"/>
        <pt x="452" y="781" on="1"/>
        <pt x="452" y="671" on="1"/>
        <pt x="147" y="671" on="1"/>
      </contour>
    </TTGlyph>
</ttFont>
